<svg width="40" height="40" viewBox="0 0 40 40" fill="none" xmlns="http://www.w3.org/2000/svg">
<g clip-path="url(#clip0_1180_750)">
<path d="M34.2631 17.8292L40 12.0923H34.0812L40 6.17334H10.4812L0 16.6545H5.91884L0 22.5735H5.73685L0 28.3102H5.5164L0 33.8267H29.519L40.0001 23.3456H34.4837L40.0001 17.8292H34.2631ZM2.93004 15.4408L10.9839 7.387H37.0701L29.0163 15.4408H2.93004ZM2.93004 21.3598L7.63521 16.6546H29.5188L32.8675 13.306H37.07L29.0161 21.3598H2.93004ZM37.07 24.5591L29.0161 32.6129H2.93004L7.23278 28.3102H29.5188L33.2699 24.5591H37.07ZM29.0161 27.0965H2.93004L7.45323 22.5733H29.519L33.0496 19.0427H37.07L29.0161 27.0965Z" fill="black"/>
</g>
<defs>
<clipPath id="clip0_1180_750">
<rect width="40" height="40" fill="white"/>
</clipPath>
</defs>
</svg>
