<svg width="40" height="40" viewBox="0 0 40 40" fill="none" xmlns="http://www.w3.org/2000/svg">
<g clip-path="url(#clip0_1180_742)">
<path d="M3.18124 34.6638L19.81 39.97C19.8712 39.99 19.9362 40 20 40C20.0662 40 20.1325 39.9888 20.1962 39.9688L36.8362 34.46C37.6187 34.2 38.125 33.5038 38.125 32.6813C38.125 31.8588 37.62 31.1588 36.8375 30.9L27.1712 27.7C26.8412 27.5875 26.49 27.77 26.3812 28.0963C26.2725 28.425 26.45 28.7775 26.7775 28.8863L36.4437 32.0863C36.8437 32.2188 36.875 32.575 36.875 32.6813C36.875 32.7863 36.8437 33.1413 36.445 33.2738L19.9962 38.7188L3.56249 33.4725C3.16124 33.345 3.12624 32.99 3.12499 32.8838C3.12374 32.7788 3.15124 32.4238 3.54874 32.2863L13.5837 28.845C13.91 28.7338 14.0837 28.3775 13.9725 28.0513C13.86 27.7238 13.5037 27.55 13.1787 27.6625L3.14374 31.1038C2.36499 31.3713 1.86624 32.0738 1.87499 32.8963C1.88374 33.7188 2.39624 34.4125 3.18124 34.6638Z" fill="black"/>
<path d="M21.4737 0.0787323C14.1375 -0.743768 7.89624 4.97748 7.89624 12.1312C7.89624 14.9312 8.80749 17.4187 10.84 20.1837L18.7275 31.585C19.0387 32.0337 19.55 32.3025 20.0975 32.3025C20.6487 32.3025 21.1637 32.03 21.47 31.5812L26.6862 24.09L29.6162 19.63C31.685 17.0125 32.5675 13.7325 32.1012 10.395C31.3512 5.02748 26.8812 0.688732 21.4737 0.0787323ZM28.6025 18.9L25.65 23.39L20.44 30.8725C20.3287 31.035 20.1625 31.0537 20.0975 31.0537C20.0325 31.0537 19.8662 31.0362 19.755 30.875L11.8575 19.4587C9.98249 16.9075 9.14624 14.6462 9.14624 12.1312C9.14624 6.13123 14.0425 1.24998 20.06 1.24998C20.4787 1.24998 20.9037 1.27373 21.3325 1.32248C26.1825 1.86873 30.19 5.75748 30.8625 10.5687C31.2812 13.565 30.49 16.5075 28.6025 18.9Z" fill="black"/>
<path d="M19.9962 5.88123C16.55 5.88123 13.7462 8.68498 13.7462 12.1312C13.7462 15.5775 16.55 18.3812 19.9962 18.3812C23.4425 18.3812 26.2462 15.5775 26.2462 12.1312C26.2462 8.68498 23.4412 5.88123 19.9962 5.88123ZM19.9962 17.1312C17.2387 17.1312 14.9962 14.8887 14.9962 12.1312C14.9962 9.37373 17.2387 7.13123 19.9962 7.13123C22.7537 7.13123 24.9962 9.37373 24.9962 12.1312C24.9962 14.8887 22.7525 17.1312 19.9962 17.1312Z" fill="black"/>
</g>
<defs>
<clipPath id="clip0_1180_742">
<rect width="40" height="40" fill="white"/>
</clipPath>
</defs>
</svg>
