<svg width="16" height="16" viewBox="0 0 16 16" fill="none" xmlns="http://www.w3.org/2000/svg">
<g clip-path="url(#clip0_1234_281)">
<path d="M7.48907 0.012397C7.48907 0.0198679 7.42552 0.0248484 7.3221 0.0248484C7.22367 0.0248484 7.1514 0.0298289 7.14642 0.0372998C7.14268 0.0435254 7.10654 0.0497511 7.06792 0.0497511C7.00562 0.0497511 6.89347 0.0646928 6.69037 0.0995566C6.65299 0.107027 6.6044 0.112008 6.58446 0.112008C6.56328 0.112008 6.5421 0.116988 6.53462 0.123214C6.52839 0.12944 6.49849 0.138156 6.46734 0.141891C6.3228 0.159323 6.29788 0.164304 6.2742 0.174265C6.2605 0.18049 6.22935 0.187961 6.20567 0.192942C6.10848 0.209129 6.04618 0.222825 5.98139 0.243992C5.94401 0.255199 5.89417 0.26765 5.87299 0.27014C5.85056 0.273876 5.83187 0.281346 5.83187 0.287572C5.83187 0.293798 5.80944 0.298778 5.78327 0.298778C5.75586 0.298778 5.72969 0.303759 5.72596 0.31123C5.72222 0.317455 5.70727 0.323681 5.69356 0.323681C5.6811 0.323681 5.65992 0.328662 5.64746 0.334887C5.62129 0.347339 5.55276 0.368506 5.49918 0.379712C5.47675 0.384693 5.45557 0.393409 5.45183 0.399634C5.44685 0.40586 5.43065 0.410841 5.41321 0.410841C5.39701 0.410841 5.3833 0.415821 5.3833 0.423292C5.3833 0.429518 5.3696 0.435743 5.35215 0.435743C5.33471 0.435743 5.30854 0.441969 5.29234 0.450685C5.23378 0.480568 5.22132 0.485549 5.20263 0.485549C5.19266 0.485549 5.17397 0.490529 5.16151 0.496755C5.11541 0.521658 4.98208 0.572708 4.96464 0.572708C4.95467 0.572708 4.94719 0.577689 4.94719 0.58516C4.94719 0.591385 4.93349 0.597611 4.91604 0.597611C4.8986 0.597611 4.88489 0.602592 4.88489 0.610062C4.88489 0.616288 4.87119 0.622514 4.85499 0.622514C4.83755 0.622514 4.8201 0.627494 4.81636 0.634965C4.81262 0.641191 4.79767 0.647416 4.78397 0.647416C4.77151 0.647416 4.76029 0.652397 4.76029 0.659868C4.76029 0.666094 4.75282 0.672319 4.74534 0.672319C4.73662 0.672319 4.70173 0.686016 4.66684 0.703448C4.6332 0.719634 4.58585 0.740802 4.56467 0.749518C4.54224 0.758234 4.52355 0.76944 4.52355 0.77442C4.52355 0.780646 4.50984 0.784381 4.4924 0.784381C4.47495 0.784381 4.46125 0.788117 4.46125 0.793097C4.46125 0.799323 4.42511 0.819245 4.38026 0.840413C4.3354 0.860335 4.29927 0.881502 4.29927 0.886483C4.29927 0.892708 4.29054 0.896444 4.28058 0.896444C4.26313 0.896444 4.23821 0.908895 4.10613 0.986093C4.07249 1.00602 4.03386 1.02594 4.02265 1.02967C4.01019 1.03341 4.00022 1.04088 4.00022 1.04711C4.00022 1.05333 3.98901 1.05831 3.9753 1.05831C3.96159 1.05831 3.95038 1.06329 3.95038 1.07076C3.95038 1.07699 3.94166 1.08321 3.93169 1.08321C3.92172 1.08321 3.913 1.08819 3.913 1.09567C3.913 1.10189 3.90677 1.10812 3.90054 1.10812C3.89306 1.10812 3.85568 1.12804 3.8183 1.1517C3.78092 1.17535 3.74479 1.19528 3.73856 1.19528C3.73108 1.19528 3.7261 1.20026 3.7261 1.20524C3.7261 1.21146 3.69495 1.23263 3.65757 1.25131C3.62019 1.27123 3.58904 1.29115 3.58904 1.29613C3.58904 1.30111 3.57907 1.30858 3.56536 1.31356C3.5529 1.3173 3.52673 1.33473 3.5068 1.35092C3.48686 1.36835 3.46568 1.38205 3.4582 1.38205C3.45197 1.38205 3.42955 1.39699 3.40836 1.41442C3.36351 1.45426 3.27006 1.51901 3.25884 1.51901C3.2551 1.51901 3.23392 1.5352 3.21149 1.55637C3.18906 1.57629 3.16788 1.59372 3.1629 1.59372C3.15791 1.59372 3.14047 1.60742 3.12303 1.62485C3.10558 1.64228 3.08564 1.65598 3.07817 1.65598C3.07194 1.65598 3.06571 1.66096 3.06571 1.66843C3.06571 1.67465 3.05948 1.68088 3.052 1.68088C3.04328 1.68088 3.02833 1.69084 3.01711 1.70329C3.0059 1.7145 2.97475 1.74189 2.94734 1.76181C2.91992 1.78174 2.89127 1.80415 2.88379 1.81162C2.87507 1.81784 2.84267 1.84648 2.81027 1.87388C2.77663 1.90127 2.73801 1.93613 2.72181 1.95107C2.70561 1.96726 2.68941 1.97971 2.68567 1.97971C2.68069 1.97971 2.64082 2.01582 2.59721 2.06065C2.55235 2.10547 2.50874 2.14158 2.49877 2.14158C2.4888 2.14158 2.48008 2.14656 2.48008 2.15154C2.48008 2.15777 2.45391 2.18765 2.42276 2.21753C2.31062 2.32461 2.1125 2.52882 2.10129 2.54998C2.09506 2.56119 2.05394 2.60726 2.00909 2.65209C1.91439 2.74796 1.83215 2.84384 1.83215 2.86002C1.83215 2.865 1.8172 2.88119 1.79975 2.89489C1.78231 2.90858 1.74991 2.94469 1.72873 2.97582C1.70755 3.00695 1.6764 3.0443 1.66145 3.06049C1.64525 3.07668 1.63279 3.09411 1.63279 3.09909C1.63279 3.10407 1.61659 3.12648 1.59541 3.14765C1.57547 3.17006 1.55803 3.19123 1.55803 3.19621C1.55803 3.20244 1.54058 3.22609 1.5194 3.24975C1.49946 3.27341 1.4733 3.30827 1.46084 3.32695C1.44962 3.34687 1.43592 3.36181 1.43093 3.36181C1.42595 3.36181 1.42097 3.36804 1.42097 3.37675C1.42097 3.38423 1.40601 3.41037 1.38608 3.43528C1.32128 3.51995 1.29761 3.55481 1.27643 3.59465C1.26521 3.61707 1.25151 3.63574 1.24528 3.63574C1.23905 3.63574 1.23406 3.64695 1.23406 3.66065C1.23406 3.67434 1.22908 3.68555 1.22409 3.68555C1.21786 3.68555 1.20416 3.70547 1.19294 3.72913C1.18173 3.75279 1.16678 3.77271 1.16055 3.77271C1.15432 3.77271 1.14684 3.78267 1.1431 3.79388C1.13812 3.80633 1.11818 3.84368 1.097 3.87854C1.07582 3.91216 1.05588 3.95076 1.0509 3.96197C1.04716 3.97442 1.03968 3.98438 1.0347 3.98438C1.02847 3.98438 1.01975 3.99683 1.01476 4.01177C1.00978 4.02796 1.00355 4.0429 0.998565 4.04664C0.994827 4.05037 0.973645 4.08648 0.952463 4.12757C0.863995 4.2994 0.841567 4.33925 0.832845 4.34298C0.826615 4.34547 0.822877 4.35792 0.822877 4.37162C0.822877 4.38407 0.817893 4.39528 0.810417 4.39528C0.804187 4.39528 0.797956 4.40275 0.797956 4.41146C0.797956 4.41893 0.773036 4.47746 0.741886 4.53847C0.710735 4.60072 0.685815 4.658 0.685815 4.66547C0.685815 4.67419 0.680831 4.68166 0.673355 4.68166C0.667125 4.68166 0.660895 4.69286 0.660895 4.70656C0.660895 4.72026 0.65591 4.73146 0.648434 4.73146C0.642204 4.73146 0.635974 4.74267 0.635974 4.75512C0.635974 4.77629 0.617284 4.82111 0.566197 4.92072C0.556229 4.93816 0.548753 4.96181 0.548753 4.97302C0.548753 4.98423 0.543769 4.99294 0.536293 4.99294C0.530063 4.99294 0.523833 5.00415 0.523833 5.01784C0.523833 5.04275 0.518849 5.05395 0.488944 5.11372C0.480222 5.12991 0.473992 5.15107 0.473992 5.16103C0.473992 5.171 0.469008 5.18967 0.462778 5.20212C0.456548 5.21333 0.436611 5.26189 0.417921 5.31045C0.399231 5.35777 0.379295 5.40757 0.373064 5.41878C0.366834 5.43123 0.36185 5.45489 0.36185 5.47107C0.36185 5.48851 0.356866 5.50594 0.34939 5.50967C0.34316 5.51341 0.33693 5.53707 0.33693 5.56072C0.33693 5.58438 0.331946 5.60306 0.32447 5.60306C0.31824 5.60306 0.31201 5.61925 0.31201 5.63792C0.31201 5.65784 0.308272 5.67777 0.303287 5.6815C0.289581 5.69644 0.249709 5.81847 0.249709 5.84835C0.249709 5.86329 0.244725 5.87948 0.237249 5.88321C0.231018 5.88695 0.224788 5.90687 0.224788 5.92679C0.224788 5.94672 0.219804 5.96539 0.213574 5.96913C0.207344 5.97286 0.199868 5.99403 0.19613 6.01644C0.184916 6.07621 0.166226 6.17333 0.150027 6.2443C0.142551 6.27792 0.132583 6.33146 0.128845 6.36259C0.125107 6.39372 0.117631 6.42485 0.111401 6.43107C0.0989406 6.44726 0.0752663 6.56928 0.0665442 6.66142C0.0628061 6.69878 0.05533 6.73489 0.0490999 6.74111C0.0428698 6.74858 0.0378858 6.79092 0.0378858 6.83699C0.0378858 6.88306 0.0329017 6.92539 0.0254256 6.92913C0.0191955 6.93286 0.0129654 6.97769 0.0129654 7.02625C0.0129654 7.07605 0.00798134 7.13582 0.00175125 7.15948C-0.0381213 7.31014 -0.0431054 8.73084 -0.00323282 8.84041C0.000505232 8.85037 0.00798133 8.90889 0.0142114 8.97115C0.0204415 9.03216 0.0316557 9.12181 0.0391318 9.17037C0.0453619 9.21769 0.054084 9.28866 0.057822 9.32602C0.0615601 9.36337 0.0702822 9.39948 0.0765123 9.4057C0.0827424 9.41317 0.0877265 9.44181 0.0877265 9.4717C0.0877265 9.50033 0.0952026 9.5464 0.105171 9.57131C0.115139 9.59746 0.128845 9.66096 0.137567 9.71201C0.145043 9.76306 0.157503 9.81535 0.163734 9.82656C0.169964 9.83901 0.174948 9.86516 0.174948 9.88508C0.174948 9.90625 0.179932 9.92493 0.186162 9.92866C0.192392 9.9324 0.199868 9.9573 0.203606 9.9822C0.213574 10.0606 0.285843 10.3122 0.303287 10.3296C0.308272 10.3346 0.31201 10.357 0.31201 10.3806C0.31201 10.4031 0.31824 10.4217 0.32447 10.4217C0.331946 10.4217 0.33693 10.4379 0.33693 10.4578C0.33693 10.479 0.34316 10.4989 0.34939 10.5027C0.356866 10.5064 0.36185 10.5213 0.36185 10.535C0.36185 10.5475 0.366834 10.5687 0.37431 10.5811C0.380541 10.5923 0.394247 10.6272 0.404215 10.6583C0.437857 10.7592 0.456548 10.8077 0.46527 10.8152C0.470254 10.8202 0.473992 10.8351 0.473992 10.8476C0.473992 10.86 0.478976 10.8799 0.485206 10.8924C0.491436 10.9036 0.50265 10.9285 0.510126 10.9472C0.548753 11.0418 0.578657 11.114 0.611054 11.1875C0.627252 11.2211 0.64345 11.261 0.648434 11.2747C0.653418 11.2883 0.689553 11.3643 0.728179 11.4427C0.766806 11.5212 0.797956 11.5934 0.797956 11.6009C0.797956 11.6096 0.804187 11.6171 0.810417 11.6171C0.817893 11.6171 0.822877 11.6283 0.822877 11.6407C0.822877 11.6544 0.826615 11.6669 0.832845 11.6694C0.837829 11.6706 0.857765 11.7042 0.877702 11.7416C0.93751 11.8549 0.979875 11.9321 1.00853 11.9782C1.02349 12.0018 1.03844 12.0317 1.04218 12.0429C1.04716 12.0554 1.05339 12.0653 1.05837 12.0653C1.06336 12.0653 1.07457 12.0852 1.08454 12.1089C1.09451 12.1326 1.10572 12.1525 1.11195 12.1525C1.11694 12.1525 1.12192 12.1587 1.12192 12.1662C1.12192 12.1749 1.14186 12.2085 1.16553 12.2409C1.18921 12.2745 1.20914 12.3081 1.20914 12.3143C1.20914 12.3218 1.22036 12.3392 1.23406 12.3542C1.24777 12.3691 1.25898 12.3891 1.25898 12.3978C1.25898 12.4065 1.26397 12.414 1.26895 12.414C1.27518 12.414 1.29013 12.4339 1.30384 12.4575C1.3163 12.4812 1.33001 12.5011 1.33499 12.5011C1.33997 12.5011 1.34994 12.5173 1.35866 12.5385C1.36739 12.5596 1.3786 12.5758 1.38483 12.5758C1.39106 12.5758 1.39604 12.5845 1.39604 12.5945C1.39604 12.6045 1.40103 12.6132 1.40601 12.6132C1.41224 12.6132 1.4247 12.6281 1.43467 12.6468C1.45087 12.6792 1.48202 12.7203 1.51691 12.7576C1.52563 12.7663 1.53311 12.7788 1.53311 12.7862C1.53311 12.7937 1.53809 12.7999 1.54307 12.7999C1.54931 12.7999 1.56177 12.8149 1.57173 12.8336C1.5817 12.8535 1.5979 12.8771 1.60787 12.8871C1.61908 12.8971 1.644 12.9282 1.66394 12.9556C1.68512 12.983 1.71004 13.0141 1.72001 13.0241C1.73122 13.034 1.75614 13.0652 1.77733 13.0926C1.79726 13.1199 1.82467 13.1536 1.83838 13.1685C1.85209 13.1834 1.88075 13.2171 1.90193 13.2432C1.92436 13.2706 1.95924 13.3105 1.98043 13.3316C2.00161 13.354 2.01905 13.3752 2.01905 13.3789C2.01905 13.3926 2.65701 14.0202 2.67072 14.0202C2.67446 14.0202 2.69813 14.0401 2.7243 14.065C2.75171 14.0899 2.80404 14.1335 2.84143 14.1609C2.87881 14.1895 2.91868 14.2219 2.92865 14.2319C2.93861 14.2418 2.976 14.2729 3.00964 14.3003C3.04453 14.3277 3.07443 14.3539 3.07568 14.3589C3.07817 14.3651 3.08564 14.3688 3.09187 14.3688C3.10184 14.3688 3.24638 14.4734 3.26507 14.4933C3.27753 14.5083 3.4744 14.6427 3.48188 14.6427C3.48686 14.6427 3.50181 14.654 3.51677 14.6676C3.53172 14.6813 3.55166 14.6926 3.56038 14.6926C3.5691 14.6926 3.57658 14.6975 3.57658 14.705C3.57658 14.7112 3.5853 14.7175 3.59527 14.7175C3.60523 14.7175 3.61396 14.7212 3.61396 14.7274C3.61396 14.7324 3.63389 14.7473 3.65757 14.7598C3.68124 14.7735 3.70118 14.7884 3.70118 14.7947C3.70118 14.7996 3.71239 14.8046 3.7261 14.8046C3.7398 14.8046 3.75102 14.8096 3.75102 14.8171C3.75102 14.8233 3.756 14.8295 3.76348 14.8295C3.76971 14.8295 3.8046 14.8482 3.84073 14.8706C3.87687 14.893 3.92172 14.9192 3.94166 14.9279C3.96035 14.9378 3.9753 14.9503 3.9753 14.9565C3.9753 14.9615 3.98652 14.9665 3.99898 14.9665C4.01268 14.9665 4.02514 14.9702 4.02763 14.9752C4.03013 14.9814 4.0538 14.9964 4.08121 15.0113C4.19335 15.0711 4.21827 15.0848 4.22201 15.0935C4.2245 15.0997 4.23696 15.1034 4.25067 15.1034C4.26313 15.1034 4.27435 15.1084 4.27435 15.1159C4.27435 15.1221 4.28182 15.1283 4.29179 15.1283C4.30799 15.1283 4.39521 15.1719 4.51483 15.2392C4.54099 15.2529 4.56965 15.2653 4.57962 15.2653C4.58959 15.2653 4.59831 15.2703 4.59831 15.2778C4.59831 15.284 4.60703 15.2902 4.61825 15.2902C4.62946 15.2902 4.6793 15.3101 4.73039 15.3338C4.78023 15.3575 4.82758 15.3774 4.83505 15.3774C4.84128 15.3774 4.84751 15.3824 4.84751 15.3898C4.84751 15.3961 4.85873 15.4023 4.87243 15.4023C4.88614 15.4023 4.90732 15.4073 4.91978 15.4135C4.931 15.4197 4.95841 15.4309 4.97835 15.4396C4.99953 15.4483 5.02569 15.4596 5.03691 15.4658C5.04937 15.472 5.07055 15.477 5.08426 15.477C5.09796 15.477 5.10918 15.482 5.10918 15.4869C5.10918 15.4932 5.14282 15.5081 5.18394 15.5206C5.2263 15.533 5.26244 15.548 5.26618 15.5542C5.26991 15.5592 5.2886 15.5641 5.30979 15.5641C5.32972 15.5641 5.34592 15.5691 5.34592 15.5766C5.34592 15.5828 5.36212 15.5891 5.38206 15.5891C5.40324 15.5891 5.42317 15.594 5.42691 15.6015C5.43065 15.6077 5.44809 15.614 5.46429 15.614C5.48049 15.614 5.49793 15.6202 5.50167 15.6264C5.50541 15.6339 5.52036 15.6389 5.53282 15.6389C5.55401 15.6389 5.61506 15.6613 5.67238 15.6899C5.68484 15.6961 5.70727 15.7011 5.72222 15.7011C5.74714 15.7011 5.80695 15.7173 5.86302 15.7397C5.87672 15.7447 5.90538 15.7522 5.92532 15.7559C5.9465 15.7584 5.98762 15.7683 6.01877 15.7758C6.04992 15.7833 6.09976 15.7945 6.13091 15.7995C6.16206 15.8045 6.19944 15.8157 6.21439 15.8231C6.22935 15.8319 6.2605 15.8381 6.28542 15.8381C6.30909 15.8381 6.33277 15.8431 6.3365 15.8505C6.34024 15.8568 6.36766 15.863 6.39756 15.863C6.42622 15.863 6.45488 15.868 6.46111 15.8742C6.46858 15.8804 6.50472 15.8891 6.5421 15.8929C6.57948 15.8966 6.64676 15.9053 6.69162 15.9115C6.73648 15.919 6.81747 15.9302 6.87354 15.9364C6.92836 15.9439 6.99814 15.9551 7.02929 15.9613C7.05919 15.9688 7.12773 15.975 7.18006 15.975C7.23239 15.975 7.27974 15.98 7.28348 15.9875C7.29345 16.0037 8.65659 16.0037 8.66656 15.9875C8.6703 15.98 8.71764 15.975 8.76998 15.975C8.82231 15.975 8.88835 15.9688 8.91576 15.9626C8.97183 15.9476 9.13008 15.9252 9.2335 15.9178C9.27088 15.914 9.31324 15.9066 9.32695 15.9003C9.34065 15.8941 9.3743 15.8866 9.40171 15.8829C9.545 15.8655 9.5774 15.8592 9.58861 15.8493C9.59484 15.8431 9.61602 15.8381 9.63721 15.8381C9.65714 15.8381 9.702 15.8294 9.73689 15.8194C9.84778 15.787 9.96117 15.7609 10.0098 15.7547C10.0347 15.7509 10.0596 15.7434 10.0633 15.7372C10.0671 15.731 10.0858 15.726 10.1057 15.726C10.1256 15.726 10.1456 15.7198 10.1493 15.7136C10.1531 15.7061 10.1767 15.7011 10.2004 15.7011C10.2241 15.7011 10.2428 15.6961 10.2428 15.6899C10.2428 15.6837 10.2615 15.6762 10.2839 15.6725C10.3238 15.6662 10.3923 15.6451 10.4322 15.6252C10.4446 15.6189 10.4658 15.614 10.4783 15.614C10.492 15.614 10.5069 15.609 10.5107 15.6015C10.5144 15.5953 10.5343 15.5891 10.5543 15.5891C10.5742 15.5891 10.5941 15.5828 10.5979 15.5766C10.6016 15.5691 10.6191 15.5641 10.6365 15.5641C10.6527 15.5641 10.6664 15.5592 10.6664 15.5529C10.6664 15.548 10.6963 15.5343 10.7325 15.5231C10.8496 15.4869 10.8907 15.4708 10.8907 15.462C10.8907 15.4558 10.9044 15.4521 10.9218 15.4521C10.9393 15.4521 10.953 15.4459 10.953 15.4396C10.953 15.4322 10.9642 15.4272 10.9779 15.4272C10.9916 15.4272 11.0128 15.4222 11.0253 15.416C11.0489 15.4035 11.181 15.3438 11.2209 15.3276C11.3056 15.294 11.8128 15.0362 11.8128 15.0275C11.8128 15.0213 11.824 15.0163 11.8377 15.0163C11.8514 15.0163 11.8626 15.0101 11.8626 15.0038C11.8626 14.9964 11.8726 14.9914 11.885 14.9914C11.8962 14.9914 11.9199 14.9802 11.9374 14.9665C11.9548 14.9528 11.976 14.9416 11.9847 14.9416C11.9922 14.9416 11.9997 14.9354 11.9997 14.9291C11.9997 14.9217 12.0071 14.9167 12.0171 14.9167C12.0258 14.9167 12.0395 14.9092 12.047 14.9005C12.0545 14.8918 12.0881 14.8706 12.123 14.8544C12.1579 14.837 12.1866 14.8196 12.1866 14.8133C12.1866 14.8083 12.1928 14.8046 12.2003 14.8046C12.209 14.8046 12.2426 14.7847 12.275 14.761C12.3087 14.7374 12.3423 14.7175 12.3485 14.7175C12.356 14.7175 12.361 14.7125 12.361 14.7062C12.361 14.7 12.371 14.6913 12.3847 14.6863C12.3971 14.6826 12.4233 14.6652 12.4432 14.649C12.4632 14.6315 12.4868 14.6178 12.4956 14.6178C12.503 14.6178 12.5105 14.6129 12.5105 14.6079C12.5105 14.6017 12.5305 14.5867 12.5541 14.573C12.5778 14.5606 12.5977 14.5456 12.5977 14.5406C12.5977 14.5344 12.6052 14.5307 12.6139 14.5307C12.6227 14.5307 12.6526 14.512 12.68 14.4908C12.7061 14.4684 12.7535 14.4298 12.7846 14.4062C12.8158 14.3825 12.8432 14.3589 12.8445 14.3539C12.8469 14.3489 12.8557 14.3439 12.8631 14.3439C12.8719 14.3439 12.9055 14.319 12.9404 14.2879C12.974 14.2568 13.0064 14.2319 13.0127 14.2319C13.0177 14.2319 13.0401 14.2132 13.0625 14.192C13.0849 14.1696 13.1198 14.1397 13.1385 14.126C13.1585 14.1123 13.2021 14.0737 13.2357 14.0413C13.2706 14.0077 13.3117 13.9729 13.3279 13.9617C13.3441 13.9517 13.3578 13.9343 13.3578 13.9255C13.3578 13.9156 13.3653 13.9081 13.3753 13.9081C13.3927 13.9081 13.8687 13.4449 13.8687 13.4275C13.8687 13.4188 13.8936 13.3914 13.9746 13.3055C14.002 13.2768 14.0469 13.2258 14.0743 13.1922C14.1004 13.1573 14.1316 13.1212 14.1428 13.1112C14.1528 13.1013 14.1777 13.0701 14.1989 13.0427C14.2188 13.0154 14.245 12.9842 14.2574 12.973C14.2699 12.9618 14.2799 12.9494 14.2799 12.9444C14.2799 12.9369 14.306 12.9033 14.3422 12.8622C14.3708 12.8311 14.4169 12.7651 14.4169 12.7551C14.4169 12.7501 14.4269 12.7377 14.4406 12.7265C14.4531 12.7153 14.4842 12.6729 14.5104 12.6319C14.5365 12.5908 14.5615 12.5547 14.5652 12.5509C14.5689 12.5472 14.5802 12.5298 14.5901 12.5098C14.6001 12.4912 14.6126 12.4762 14.6188 12.4762C14.6238 12.4762 14.6288 12.4712 14.6288 12.4662C14.6288 12.4563 14.7509 12.2658 14.7783 12.2309C14.7857 12.2222 14.7907 12.2122 14.7907 12.2085C14.7907 12.2048 14.8107 12.1699 14.8343 12.1326C14.858 12.0952 14.878 12.0591 14.878 12.0529C14.878 12.0454 14.8829 12.0404 14.8879 12.0404C14.8942 12.0404 14.9054 12.0205 14.9153 11.9968C14.9253 11.9732 14.9365 11.9533 14.9427 11.9533C14.9477 11.9533 14.9527 11.9433 14.9527 11.9296C14.9527 11.9171 14.9602 11.901 14.9689 11.8922C14.9776 11.8848 15.025 11.8026 15.0723 11.708C15.1197 11.6133 15.162 11.5336 15.1683 11.5324C15.1733 11.5299 15.177 11.5224 15.177 11.515C15.177 11.5087 15.2081 11.439 15.2455 11.3606C15.2829 11.2821 15.3141 11.2124 15.3141 11.2074C15.3141 11.2012 15.3265 11.1713 15.3402 11.1414C15.3552 11.1128 15.3714 11.0767 15.3764 11.063C15.3826 11.0493 15.4013 11.0057 15.4187 10.9659C15.4362 10.926 15.4511 10.8862 15.4511 10.8762C15.4511 10.8675 15.4574 10.855 15.4636 10.8513C15.4711 10.8476 15.476 10.8276 15.476 10.8065C15.476 10.7866 15.4823 10.7704 15.4885 10.7704C15.496 10.7704 15.501 10.7567 15.501 10.7392C15.501 10.7218 15.5059 10.7081 15.5109 10.7081C15.5159 10.7081 15.5271 10.682 15.5371 10.6483C15.5458 10.616 15.5608 10.5699 15.5695 10.5462C15.5795 10.5226 15.5944 10.4778 15.6019 10.4466C15.6106 10.4155 15.6218 10.3856 15.6281 10.3782C15.633 10.3719 15.638 10.3483 15.638 10.3271C15.638 10.3047 15.6443 10.2823 15.6505 10.2785C15.6567 10.2748 15.6629 10.2549 15.6629 10.235C15.6629 10.215 15.6692 10.1951 15.6754 10.1914C15.6829 10.1876 15.6879 10.1677 15.6879 10.1491C15.6879 10.1304 15.6916 10.1105 15.6966 10.1055C15.7066 10.0968 15.7265 10.0245 15.7502 9.91746C15.7564 9.89006 15.7676 9.84275 15.7751 9.81162C15.7838 9.78049 15.7925 9.73317 15.795 9.70578C15.7988 9.67839 15.8062 9.64477 15.8125 9.63107C15.8175 9.61738 15.8287 9.56384 15.8374 9.51279C15.8461 9.46174 15.8573 9.40321 15.8636 9.38329C15.8698 9.36337 15.8748 9.32353 15.8748 9.29613C15.8748 9.26749 15.8835 9.21146 15.8935 9.17286C15.9034 9.13302 15.9121 9.07325 15.9121 9.03963C15.9121 9.00602 15.9184 8.97489 15.9246 8.97115C15.9321 8.96742 15.9371 8.91014 15.9371 8.84166C15.9371 8.77567 15.9421 8.7159 15.9483 8.70967C15.9545 8.7022 15.9632 8.57644 15.9657 8.42952C15.9695 8.28259 15.9757 8.15185 15.9807 8.1394C15.9869 8.1257 15.9869 8.03605 15.9819 7.94018C15.9782 7.84306 15.9707 7.665 15.967 7.54547C15.962 7.42594 15.9545 7.32135 15.9495 7.31512C15.9445 7.30765 15.9396 7.24913 15.9383 7.18438C15.9371 7.11963 15.9308 7.06111 15.9234 7.05364C15.9171 7.04742 15.9121 7.01131 15.9121 6.97271C15.9121 6.93535 15.9059 6.88181 15.8984 6.85442C15.8922 6.82703 15.8798 6.76477 15.8735 6.71746C15.866 6.66889 15.8548 6.59668 15.8486 6.55559C15.8424 6.5145 15.8337 6.45847 15.8299 6.43107C15.8262 6.40368 15.8175 6.37629 15.8112 6.36882C15.805 6.36259 15.8 6.33769 15.8 6.31279C15.8 6.28788 15.795 6.26298 15.7888 6.25675C15.7826 6.24928 15.7751 6.22189 15.7713 6.1945C15.7589 6.10485 15.7178 5.93675 15.6991 5.8994C15.6929 5.88695 15.6879 5.86578 15.6879 5.85333C15.6879 5.83963 15.6829 5.82469 15.6754 5.82096C15.6692 5.81722 15.6629 5.79979 15.6629 5.78236C15.6629 5.74749 15.5957 5.52586 15.5695 5.47481C15.5595 5.45489 15.5508 5.42874 15.5508 5.41629C15.5508 5.40384 15.5458 5.38889 15.5383 5.38516C15.5321 5.38142 15.5259 5.3615 15.5259 5.34033C15.5259 5.32041 15.5209 5.30423 15.5147 5.30423C15.5084 5.30423 15.501 5.28679 15.496 5.26687C15.4922 5.2457 15.4848 5.21209 15.481 5.19216C15.476 5.171 15.4686 5.15481 15.4623 5.15481C15.4561 5.15481 15.4511 5.14734 15.4511 5.13738C15.4511 5.12742 15.4412 5.10127 15.4299 5.07761C15.3926 5.0029 15.3888 4.99294 15.3888 4.97426C15.3888 4.9643 15.3838 4.95559 15.3764 4.95559C15.3701 4.95559 15.3639 4.93816 15.3639 4.91823C15.3639 4.89707 15.3589 4.88088 15.3514 4.88088C15.3452 4.88088 15.339 4.86967 15.339 4.85598C15.339 4.84228 15.334 4.83107 15.3265 4.83107C15.3203 4.83107 15.3141 4.82236 15.3141 4.8124C15.3141 4.80244 15.2941 4.75388 15.2705 4.70532C15.2468 4.65551 15.2268 4.60819 15.2268 4.59823C15.2268 4.58952 15.2219 4.58205 15.2144 4.58205C15.2081 4.58205 15.2019 4.57084 15.2019 4.55714C15.2019 4.54345 15.1969 4.53224 15.1895 4.53224C15.1832 4.53224 15.177 4.52477 15.177 4.51481C15.177 4.50485 15.1571 4.46251 15.1334 4.42018C15.1097 4.37784 15.0898 4.33551 15.0898 4.32555C15.0898 4.31559 15.0848 4.30812 15.0773 4.30812C15.0711 4.30812 15.0649 4.29691 15.0649 4.28321C15.0649 4.26952 15.0599 4.25831 15.0524 4.25831C15.0462 4.25831 15.0399 4.24711 15.0399 4.23341C15.0399 4.21971 15.035 4.20851 15.0275 4.20851C15.0212 4.20851 15.015 4.19979 15.015 4.18983C15.015 4.17987 15.01 4.17115 15.0026 4.17115C14.9963 4.17115 14.9901 4.16244 14.9901 4.15123C14.9901 4.14127 14.9764 4.11388 14.9589 4.09146C14.9415 4.06905 14.9278 4.04539 14.9278 4.03917C14.9278 4.03294 14.9166 4.01426 14.9029 3.99683C14.8892 3.9794 14.878 3.95574 14.878 3.94329C14.878 3.93209 14.873 3.92212 14.8655 3.92212C14.8593 3.92212 14.853 3.9159 14.853 3.90718C14.853 3.89971 14.8431 3.88104 14.8294 3.86734C14.8169 3.8524 14.792 3.81504 14.7745 3.78391C14.7222 3.68679 14.7097 3.66687 14.7023 3.66065C14.696 3.65567 14.6599 3.60337 14.6101 3.52617C14.6038 3.51496 14.5876 3.49504 14.5764 3.48135C14.564 3.46765 14.554 3.44897 14.554 3.44026C14.554 3.43154 14.549 3.42407 14.5415 3.42407C14.5353 3.42407 14.5291 3.41784 14.5291 3.41037C14.5291 3.4029 14.5216 3.38921 14.5141 3.38049C14.4855 3.34936 14.473 3.33193 14.4294 3.26843C14.407 3.23356 14.3845 3.20368 14.3795 3.19995C14.3758 3.19621 14.3559 3.17131 14.3347 3.14391C14.3148 3.11652 14.2886 3.0829 14.2774 3.07045C14.2649 3.05675 14.2549 3.04181 14.2549 3.03559C14.2549 3.03061 14.23 3.00072 14.1989 2.97084C14.1677 2.93971 14.1428 2.90983 14.1428 2.90236C14.1428 2.89489 14.1179 2.86376 14.0867 2.83139C14.0556 2.80026 14.0307 2.76913 14.0307 2.7629C14.0307 2.75792 14.0194 2.74672 14.0057 2.73925C13.992 2.73177 13.9808 2.72057 13.9808 2.7131C13.9808 2.68695 13.303 2.00461 13.2768 2.00461C13.2743 2.00461 13.2581 1.99216 13.2419 1.97598C13.1597 1.89753 13.0937 1.84275 13.0837 1.84275C13.0762 1.84275 13.0712 1.83652 13.0712 1.8303C13.0712 1.82282 13.065 1.81784 13.0575 1.81784C13.0488 1.81784 13.0338 1.80788 13.0226 1.79543C13.0114 1.78298 12.9803 1.75683 12.9529 1.73691C12.9254 1.71574 12.8943 1.69084 12.8843 1.68088C12.8744 1.66967 12.8382 1.64104 12.8033 1.61738C12.7697 1.59497 12.7398 1.57131 12.7373 1.56633C12.7348 1.56259 12.6887 1.52897 12.6339 1.49411C12.5803 1.458 12.5354 1.42438 12.5354 1.41816C12.5354 1.41193 12.528 1.40695 12.5192 1.40695C12.5105 1.40695 12.4906 1.39574 12.4756 1.38205C12.4607 1.36835 12.4407 1.35714 12.4308 1.35714C12.4208 1.35714 12.4108 1.35341 12.4083 1.34718C12.4034 1.33473 12.3236 1.27621 12.2713 1.24757C12.2476 1.23388 12.214 1.2152 12.1978 1.20524C12.1816 1.19652 12.1654 1.18656 12.1616 1.18283C12.1492 1.17037 12.1056 1.14423 12.0844 1.138C12.0719 1.13302 12.062 1.12555 12.062 1.11932C12.062 1.1131 12.0532 1.10812 12.0433 1.10812C12.0333 1.10812 12.0246 1.10189 12.0246 1.09567C12.0246 1.08819 12.0134 1.08321 11.9997 1.08321C11.9859 1.08321 11.9747 1.07823 11.9747 1.07201C11.9747 1.06578 11.9648 1.05831 11.9536 1.05458C11.9411 1.0496 11.8975 1.02718 11.8564 1.00228C11.8152 0.977378 11.7617 0.948739 11.738 0.936288C11.7143 0.925082 11.6931 0.911385 11.6906 0.90516C11.6881 0.900179 11.6782 0.896444 11.6695 0.896444C11.652 0.896444 11.5424 0.840413 11.5212 0.82049C11.5137 0.814265 11.4988 0.809284 11.4863 0.809284C11.4738 0.809284 11.4639 0.803058 11.4639 0.796833C11.4639 0.789362 11.4527 0.784381 11.4402 0.784381C11.4265 0.784381 11.4115 0.778156 11.4078 0.77193C11.4041 0.764459 11.3891 0.759479 11.3766 0.759479C11.3642 0.759479 11.3517 0.754498 11.3492 0.749518C11.3442 0.735821 11.2059 0.672319 11.1835 0.672319C11.1735 0.672319 11.1648 0.666094 11.1648 0.659868C11.1648 0.652397 11.1536 0.647416 11.1411 0.647416C11.1274 0.647416 11.1125 0.641191 11.1088 0.634965C11.105 0.627494 11.0901 0.622514 11.0764 0.622514C11.0639 0.622514 11.0527 0.616288 11.0527 0.610062C11.0527 0.602592 11.0415 0.597611 11.0278 0.597611C11.0141 0.597611 10.9929 0.59263 10.9804 0.586405C10.9692 0.580179 10.943 0.568973 10.9218 0.560257C10.862 0.535354 10.7985 0.507961 10.7761 0.496755C10.7636 0.490529 10.7424 0.485549 10.73 0.485549C10.7163 0.485549 10.7013 0.479323 10.6976 0.473097C10.6938 0.465627 10.6764 0.460646 10.6602 0.460646C10.644 0.460646 10.6265 0.45442 10.6228 0.448195C10.6191 0.440724 10.6016 0.435743 10.5854 0.435743C10.5692 0.435743 10.5518 0.429518 10.548 0.423292C10.5443 0.415821 10.5294 0.410841 10.5169 0.410841C10.5044 0.410841 10.4783 0.40337 10.4583 0.393409C10.4396 0.383448 10.3985 0.368506 10.3674 0.361035C10.3362 0.352319 10.3013 0.341113 10.2901 0.334887C10.2777 0.328662 10.2515 0.323681 10.2303 0.323681C10.2104 0.323681 10.1929 0.317455 10.1929 0.31123C10.1929 0.303759 10.1767 0.298778 10.1568 0.298778C10.1356 0.298778 10.1157 0.292553 10.1119 0.286327C10.1082 0.278856 10.092 0.273876 10.0783 0.273876C10.0633 0.273876 10.0347 0.268895 10.0135 0.262669C9.85526 0.216599 9.79296 0.201658 9.71321 0.190452C9.6858 0.186716 9.65839 0.179245 9.65216 0.17302C9.64468 0.166794 9.61976 0.161813 9.59484 0.161813C9.56992 0.161813 9.545 0.156833 9.53752 0.150607C9.53129 0.144381 9.49516 0.136911 9.45778 0.133175C9.388 0.12695 9.22727 0.102047 9.03289 0.0684282C8.97432 0.0584671 8.89458 0.0497511 8.85595 0.0497511C8.81733 0.0497511 8.78244 0.0435254 8.7787 0.0372998C8.77371 0.0298289 8.7002 0.0248484 8.59678 0.0248484C8.48962 0.0248484 8.42358 0.0198679 8.42358 0.012397C8.42358 0.00492622 8.25911 -5.43248e-05 7.95633 -5.43248e-05C7.65355 -5.43248e-05 7.48907 0.00492622 7.48907 0.012397ZM7.90026 1.22018C7.90026 1.23388 7.89527 1.24508 7.8878 1.24508C7.88157 1.24508 7.87534 1.25629 7.87534 1.26998C7.87534 1.28368 7.87783 1.29489 7.88157 1.29489C7.88406 1.29489 7.90649 1.28368 7.93141 1.26998C7.98499 1.2401 7.9962 1.23886 8.01987 1.26376C8.05102 1.29364 8.06473 1.28617 8.05601 1.24508C8.04853 1.21271 8.05102 1.20897 8.07096 1.21644C8.11208 1.23139 8.12828 1.25878 8.13451 1.3173C8.13949 1.37209 8.13575 1.3808 8.08841 1.43808C8.05975 1.4717 8.03732 1.50781 8.03607 1.51901C8.03109 1.59621 8.04106 1.97598 8.04978 2.09177C8.05725 2.17022 8.06224 2.32711 8.06224 2.44041C8.06224 2.56368 8.06971 2.6857 8.08093 2.74547C8.0909 2.80026 8.09837 2.86998 8.09962 2.89862C8.09962 2.94843 8.13575 3.02314 8.16441 3.03559C8.17936 3.04181 8.17687 3.19746 8.16192 3.20617C8.15569 3.20991 8.14946 3.22983 8.14946 3.24975C8.14946 3.26967 8.14448 3.2896 8.137 3.29333C8.11582 3.30703 8.12329 3.378 8.15071 3.42407C8.17687 3.4664 8.19805 3.48757 8.2616 3.53862C8.29151 3.56228 8.29275 3.56975 8.29026 3.67559C8.28901 3.73909 8.28154 3.79388 8.27406 3.80384C8.26534 3.81504 8.2616 3.84119 8.26659 3.86858C8.28278 3.98065 8.29026 4.00928 8.30023 4.00928C8.30646 4.00928 8.31144 4.01551 8.31144 4.02298C8.31144 4.03668 8.34135 4.07154 8.35381 4.07154C8.35755 4.07154 8.36128 4.06282 8.36128 4.05286C8.36128 4.04166 8.37125 4.018 8.38247 3.99932C8.43106 3.92461 8.4485 3.92337 8.4485 3.9931C8.4485 4.01551 8.45349 4.03419 8.46096 4.03419C8.46844 4.03419 8.47467 4.16244 8.47841 4.36041C8.48588 4.82983 8.50707 4.99792 8.57435 5.1324C8.58058 5.14485 8.58557 5.16851 8.58557 5.18469C8.58557 5.20212 8.5918 5.21956 8.59803 5.22329C8.6055 5.22703 8.61049 5.24446 8.61049 5.26189C8.61049 5.29925 8.62668 5.30049 8.64413 5.26314C8.66033 5.23076 8.68525 5.08757 8.68525 5.03403C8.68525 5.01411 8.69397 4.98672 8.70394 4.97302C8.71391 4.96057 8.72263 4.9394 8.72263 4.92695C8.72263 4.9145 8.72886 4.90827 8.73509 4.91201C8.74256 4.91574 8.74755 4.94687 8.74755 4.98049C8.74755 5.01411 8.75253 5.04399 8.75876 5.04773C8.76375 5.05146 8.76998 5.09629 8.77122 5.14734C8.77247 5.19839 8.7787 5.2594 8.78618 5.28181C8.79241 5.30423 8.79739 5.35403 8.79739 5.39388C8.79739 5.43247 8.80362 5.47979 8.8111 5.49971C8.81982 5.52212 8.82605 5.79605 8.82854 6.30656C8.83103 6.73115 8.83602 7.1022 8.841 7.13084C8.85097 7.18563 8.88461 7.20679 8.88461 7.15823C8.88461 7.14454 8.88959 7.12337 8.89707 7.11092C8.9033 7.09847 8.90953 7.05613 8.91078 7.01753C8.91202 6.97893 8.91825 6.94781 8.92448 6.94781C8.92947 6.94781 8.93445 6.91419 8.93445 6.87434C8.93445 6.83325 8.94068 6.7959 8.94691 6.79216C8.95439 6.78843 8.95937 6.77349 8.95937 6.76103C8.95937 6.73364 9.01046 6.63403 9.03787 6.60539C9.04908 6.59543 9.06404 6.58672 9.07276 6.58672C9.09394 6.58672 9.14503 6.64897 9.155 6.68633C9.15873 6.70376 9.16621 6.72244 9.17119 6.72991C9.18116 6.74236 9.18988 6.7959 9.20359 6.91294C9.20733 6.94656 9.21605 6.97271 9.22228 6.97271C9.22851 6.97271 9.2335 7.0001 9.2335 7.03372C9.2335 7.06858 9.23848 7.09847 9.24471 7.1022C9.25094 7.10594 9.25842 7.13084 9.26215 7.15574C9.2796 7.27901 9.3257 7.34874 9.388 7.34874C9.41915 7.34874 9.4204 7.35247 9.4204 7.42843C9.4204 7.47076 9.42663 7.51061 9.43286 7.51434C9.44033 7.51808 9.44532 7.51559 9.44532 7.50812C9.44532 7.50065 9.45404 7.4857 9.46401 7.47574C9.47398 7.46454 9.4827 7.44088 9.4827 7.42096C9.4827 7.40103 9.48893 7.38111 9.49516 7.37738C9.50264 7.37364 9.50762 7.3338 9.50762 7.28897C9.50762 7.24415 9.5126 7.20928 9.52008 7.20928C9.52756 7.20928 9.53254 7.19808 9.53254 7.18438C9.53254 7.17068 9.53628 7.15948 9.54002 7.15948C9.5612 7.15948 9.58113 7.20928 9.58238 7.26282C9.58238 7.35123 9.61727 7.48944 9.64593 7.51559C9.66337 7.53177 9.6696 7.55294 9.6696 7.60773C9.6696 7.64633 9.66337 7.68368 9.65465 7.6924C9.64219 7.70485 9.63721 7.94267 9.63471 8.77567C9.63222 9.36212 9.63471 9.86142 9.63845 9.88259L9.64593 9.92368H9.77053C9.89139 9.92368 9.89762 9.92244 9.93127 9.88882C9.96366 9.85644 9.96615 9.84524 9.97363 9.71699C9.98235 9.56384 9.99107 9.50282 10.0073 9.49286C10.0135 9.48913 10.0185 9.47543 10.0185 9.46174C10.0185 9.44928 10.0247 9.43808 10.0309 9.43808C10.0384 9.43808 10.0434 9.42812 10.0434 9.41567C10.0434 9.40321 10.0484 9.38827 10.0546 9.3808C10.0783 9.3559 10.1306 9.24882 10.1306 9.2264C10.1306 9.21271 10.1369 9.2015 10.1431 9.2015C10.1506 9.2015 10.1555 9.19279 10.1555 9.18282C10.1555 9.17286 10.1655 9.16415 10.178 9.16415C10.1992 9.16415 10.2428 9.24882 10.2428 9.29115C10.2428 9.30236 10.249 9.31605 10.2552 9.31979C10.2627 9.32353 10.2677 9.33722 10.2677 9.34843C10.2677 9.36088 10.2789 9.37831 10.2926 9.38827C10.3063 9.39823 10.3175 9.41068 10.3175 9.41691C10.3175 9.42189 10.3287 9.43808 10.3425 9.45302C10.3686 9.48166 10.3736 9.51403 10.3873 9.70578C10.3923 9.77426 10.3973 9.84399 10.3985 9.86142L10.401 9.89255H11.1598H11.9187L11.9274 9.73068C11.9311 9.64103 11.9411 9.53271 11.9498 9.48788C11.9573 9.44306 11.966 9.38205 11.9697 9.35092C11.9735 9.31979 11.9822 9.28991 11.9884 9.28368C11.9947 9.27621 11.9997 9.25878 11.9997 9.24259C11.9997 9.2264 12.0046 9.20399 12.0109 9.19154C12.0258 9.16166 12.0757 9.01598 12.0856 8.97115L12.0944 8.9338L12.1155 8.97364C12.1267 8.99605 12.1367 9.03092 12.1367 9.05209C12.1367 9.07201 12.1417 9.08944 12.1479 9.08944C12.1629 9.08944 12.1741 9.03839 12.1866 8.91139C12.1915 8.85535 12.2077 8.78189 12.2227 8.74952C12.2364 8.7159 12.2489 8.66983 12.2489 8.64742C12.2489 8.62376 12.2551 8.60135 12.2613 8.59761C12.2688 8.59388 12.2738 8.57893 12.2738 8.56524C12.2738 8.54282 12.2813 8.54033 12.3523 8.54407C12.4283 8.54781 12.4295 8.54905 12.4333 8.58516C12.4358 8.60508 12.4432 8.62749 12.4495 8.63372C12.4557 8.64119 12.4607 8.66111 12.4607 8.67854C12.4607 8.69598 12.4657 8.7159 12.4706 8.72212C12.4831 8.73582 12.503 8.82921 12.523 8.96493C12.5305 9.01598 12.5392 9.07076 12.5429 9.08695C12.5529 9.13302 12.5728 9.10563 12.5728 9.04586C12.5728 9.01598 12.5791 8.98734 12.5853 8.9836C12.5928 8.97987 12.5977 8.96493 12.5977 8.95123C12.5977 8.93878 12.6015 8.92757 12.6077 8.92757C12.6239 8.92757 12.6476 8.99356 12.6476 9.03839C12.6488 9.06329 12.6563 9.10563 12.6663 9.13302C12.6762 9.16041 12.685 9.20524 12.685 9.23263C12.685 9.26749 12.6937 9.29364 12.7149 9.3173L12.7448 9.35216L12.7772 9.32477C12.8145 9.2924 12.8295 9.24384 12.842 9.11434C12.8494 9.02469 12.8619 8.98983 12.8856 8.98983C12.8918 8.98983 12.8968 9.01224 12.8968 9.03963C12.8968 9.06703 12.903 9.08944 12.9092 9.08944C12.9167 9.08944 12.9217 9.11932 12.9217 9.15543C12.9217 9.21893 12.9553 9.31605 12.9778 9.31605C12.994 9.31605 13.0089 9.28493 13.0089 9.24757C13.0089 9.22765 13.0139 9.20275 13.0201 9.19154C13.0264 9.18033 13.0351 9.01349 13.0388 8.82174C13.0525 8.18174 13.0874 7.77458 13.1285 7.76088C13.136 7.75839 13.1472 7.76835 13.151 7.78454C13.1622 7.82065 13.1834 7.9738 13.1921 8.0871C13.1983 8.16555 13.2095 8.1917 13.2357 8.19294C13.2407 8.19294 13.2469 8.0622 13.2482 7.90282L13.2519 7.61395L13.3204 7.60026L13.389 7.58781L13.3952 7.42594L13.4014 7.26532H13.526H13.6506L13.6481 7.3338C13.6481 7.37115 13.6432 7.43341 13.6382 7.47201C13.6294 7.53925 13.6307 7.54298 13.6668 7.56913C13.688 7.58282 13.7179 7.59528 13.7354 7.59528H13.7653L13.7727 7.85302C13.7802 8.1145 13.7877 8.18049 13.8076 8.18049C13.8139 8.18049 13.8188 8.16181 13.8188 8.1394C13.8188 8.11699 13.8238 8.09333 13.8301 8.08586C13.8363 8.07963 13.845 8.04353 13.8487 8.00617C13.8662 7.82189 13.8762 7.76835 13.8961 7.74843C13.9135 7.731 13.9185 7.731 13.9223 7.74594C13.9248 7.7559 13.9335 7.78329 13.9422 7.80819C13.9497 7.83185 13.9559 7.87792 13.9559 7.9103C13.9559 7.94142 13.9621 7.97131 13.9684 7.97504C13.9758 7.97878 13.9808 8.00742 13.9808 8.0373C13.9808 8.06718 13.9858 8.09458 13.992 8.09831C14.0033 8.10578 14.0095 8.13816 14.0307 8.305C14.0606 8.54407 14.0668 8.65489 14.068 8.92633C14.068 9.22889 14.078 9.30111 14.1179 9.30111C14.149 9.30111 14.1652 9.25629 14.174 9.1517C14.1914 8.93131 14.1976 8.89644 14.2225 8.89271C14.235 8.89022 14.2512 8.89395 14.2587 8.90142C14.2774 8.9201 14.2923 9.62734 14.2998 10.9011C14.3035 11.5411 14.3098 11.9259 14.3172 11.9333C14.3334 11.9495 14.3334 12.211 14.3172 12.221C14.3098 12.2247 14.3048 12.2396 14.3048 12.2533C14.3048 12.2658 14.2998 12.277 14.2923 12.277C14.2861 12.277 14.2799 12.2857 14.2799 12.2957C14.2799 12.3056 14.2749 12.3143 14.2674 12.3143C14.2612 12.3143 14.2549 12.3218 14.2549 12.3305C14.2549 12.3392 14.245 12.3579 14.2338 12.3716C14.2213 12.3841 14.1951 12.4177 14.174 12.4451C14.154 12.4725 14.1303 12.5024 14.1216 12.5111C14.1129 12.5198 14.1054 12.5322 14.1054 12.5385C14.1054 12.5447 14.0979 12.5571 14.0892 12.5659C14.0805 12.5746 14.0568 12.6045 14.0369 12.6319C14.0157 12.6592 13.9933 12.6891 13.9846 12.7003C13.9771 12.7103 13.9472 12.7489 13.9185 12.7838C13.8911 12.8199 13.8625 12.8498 13.8562 12.8498C13.8487 12.8498 13.8438 12.8585 13.8438 12.8684C13.8438 12.8784 13.8388 12.8871 13.8313 12.8871C13.8251 12.8871 13.8188 12.8921 13.8188 12.8996C13.8188 12.9145 13.7939 12.9431 13.7042 13.0365C13.6643 13.0764 13.6319 13.1137 13.6319 13.1199C13.6319 13.1336 13.2257 13.5433 13.1423 13.6155C13.1099 13.6429 13.0625 13.6852 13.0363 13.7089C13.0102 13.7326 12.9616 13.7749 12.9292 13.8023C12.8955 13.8297 12.8607 13.8596 12.8519 13.867C12.8432 13.8757 12.8332 13.8832 12.8295 13.8832C12.8258 13.8832 12.8058 13.9006 12.7871 13.9206C12.7672 13.9417 12.746 13.9579 12.7398 13.9579C12.7336 13.9592 12.7012 13.9841 12.6675 14.014C12.6326 14.0451 12.599 14.07 12.5915 14.07C12.584 14.07 12.5703 14.0812 12.5604 14.0961C12.5504 14.1098 12.5255 14.1298 12.5068 14.141C12.4868 14.1509 12.4545 14.1758 12.4333 14.1957C12.4121 14.2157 12.3884 14.2319 12.3797 14.2319C12.3722 14.2319 12.3548 14.2418 12.3411 14.2543C12.3286 14.2655 12.2912 14.2929 12.2588 14.3128C12.2252 14.334 12.199 14.3539 12.199 14.3589C12.199 14.3651 12.1928 14.3688 12.1866 14.3688C12.1729 14.3688 12.042 14.4522 12.0146 14.4771C12.0059 14.4859 11.9772 14.502 11.9523 14.5145C11.9274 14.5257 11.9037 14.5394 11.9 14.5431C11.89 14.5568 11.738 14.6427 11.7243 14.6427C11.7181 14.6427 11.7006 14.654 11.6857 14.6676C11.6707 14.6813 11.6483 14.6926 11.6358 14.6926C11.6234 14.6926 11.6134 14.6963 11.6134 14.7025C11.6134 14.7075 11.6022 14.7175 11.5885 14.7237C11.3418 14.8469 11.1399 14.9466 11.115 14.9565C11.0975 14.964 11.0739 14.974 11.0626 14.9802C11.0502 14.9864 11.0315 14.9914 11.0215 14.9914C11.0116 14.9914 11.0028 14.9964 11.0028 15.0038C11.0028 15.0101 10.9941 15.0163 10.9841 15.0163C10.9655 15.0163 10.9555 15.02 10.8807 15.0574C10.8571 15.0686 10.8309 15.0785 10.8209 15.0785C10.811 15.0785 10.8035 15.0835 10.8035 15.091C10.8035 15.0972 10.7873 15.1034 10.7661 15.1034C10.7462 15.1034 10.7287 15.1084 10.7287 15.1159C10.7287 15.1221 10.7175 15.1283 10.7038 15.1283C10.6901 15.1283 10.6689 15.1333 10.6564 15.1396C10.6452 15.1458 10.6191 15.157 10.5979 15.1657C10.5779 15.1744 10.5443 15.1881 10.5231 15.1968C10.5032 15.2068 10.4633 15.2205 10.4359 15.2292C10.4085 15.2367 10.3761 15.2479 10.3649 15.2541C10.3524 15.2603 10.3287 15.2653 10.3113 15.2653C10.2939 15.2653 10.2802 15.2703 10.2802 15.2778C10.2802 15.284 10.2627 15.2902 10.2428 15.2902C10.2216 15.2902 10.1954 15.2952 10.183 15.3014C10.1717 15.3076 10.1281 15.3226 10.087 15.3338C10.0459 15.3462 10.0023 15.3599 9.99107 15.3662C9.97861 15.3724 9.95494 15.3774 9.93874 15.3774C9.9213 15.3774 9.90385 15.3824 9.90011 15.3898C9.89638 15.3961 9.87021 15.4023 9.84404 15.4023C9.81788 15.4023 9.79171 15.4073 9.78797 15.4147C9.78424 15.421 9.75558 15.4272 9.72443 15.4272C9.69452 15.4272 9.6696 15.4322 9.6696 15.4396C9.6696 15.4459 9.65216 15.4521 9.62973 15.4521C9.60855 15.4521 9.57366 15.4571 9.55248 15.4633C9.48893 15.482 9.34439 15.5131 9.25219 15.5255C9.20484 15.533 9.14503 15.5417 9.12135 15.5467C9.09768 15.5505 9.04161 15.5567 8.99675 15.5604C8.9519 15.5641 8.91078 15.5704 8.9033 15.5766C8.89707 15.5816 8.83477 15.5866 8.76624 15.5878C8.69771 15.5891 8.63665 15.5953 8.62918 15.6003C8.61298 15.614 8.2479 15.6301 7.97502 15.6314C7.72208 15.6314 7.34079 15.614 7.31338 15.6003C7.30217 15.5953 7.23987 15.5891 7.17258 15.5878C7.10654 15.5866 7.04923 15.5816 7.04549 15.5754C7.04175 15.5691 7.00063 15.5641 6.95328 15.5641C6.90593 15.5641 6.86357 15.5579 6.85983 15.5517C6.85609 15.5442 6.82744 15.5392 6.79753 15.5392C6.75018 15.5392 6.67916 15.5268 6.44242 15.4745C6.41127 15.4683 6.36392 15.4596 6.3365 15.4571C6.30909 15.4533 6.27545 15.4459 6.26174 15.4396C6.23682 15.4284 6.19197 15.4197 6.10225 15.406C6.07733 15.4023 6.05241 15.3948 6.04867 15.3886C6.04494 15.3824 6.02625 15.3774 6.00631 15.3774C5.98637 15.3774 5.96768 15.3724 5.96395 15.3662C5.96021 15.3599 5.93903 15.3525 5.9166 15.3487C5.84308 15.3363 5.75711 15.3101 5.75711 15.3002C5.75711 15.294 5.73966 15.2902 5.71973 15.2902C5.69854 15.2902 5.67238 15.2852 5.65992 15.279C5.6487 15.2728 5.60011 15.2566 5.55151 15.2417C5.47301 15.2168 5.42317 15.1968 5.35589 15.1645C5.34343 15.1582 5.32225 15.1533 5.30979 15.1533C5.29608 15.1533 5.28113 15.1483 5.27739 15.1408C5.27365 15.1346 5.2587 15.1283 5.24499 15.1283C5.23253 15.1283 5.21135 15.1234 5.19889 15.1171C5.18768 15.1109 5.164 15.101 5.14656 15.0947C5.12911 15.0873 5.08426 15.0673 5.04688 15.0487C5.0095 15.0312 4.97087 15.0163 4.96339 15.0163C4.95467 15.0163 4.94719 15.0101 4.94719 15.0038C4.94719 14.9964 4.93598 14.9914 4.92227 14.9914C4.90857 14.9914 4.87866 14.9802 4.85374 14.9665C4.82882 14.9528 4.79892 14.9416 4.78646 14.9416C4.77275 14.9416 4.76029 14.9378 4.7578 14.9316C4.75282 14.9204 4.56965 14.8295 4.55096 14.8295C4.54224 14.8295 4.53601 14.8233 4.53601 14.8171C4.53601 14.8096 4.52479 14.8046 4.51109 14.8046C4.49738 14.8046 4.48617 14.7984 4.48617 14.7922C4.48617 14.7847 4.47745 14.7797 4.46499 14.7797C4.45377 14.7797 4.42636 14.766 4.40393 14.7486C4.3815 14.7312 4.35409 14.7175 4.34412 14.7175C4.33291 14.7175 4.32419 14.7125 4.32419 14.7075C4.32419 14.7013 4.30425 14.6901 4.28058 14.6801C4.2569 14.6701 4.23696 14.6589 4.23696 14.6527C4.23696 14.6477 4.22824 14.6427 4.21827 14.6427C4.20706 14.6427 4.19211 14.6365 4.18339 14.6303C4.15847 14.6091 4.02265 14.5307 4.01144 14.5307C4.00521 14.5307 4.00022 14.5269 4.00022 14.5207C4.00022 14.5157 3.98153 14.5033 3.96035 14.4933C3.93792 14.4846 3.90802 14.4659 3.89431 14.4522C3.8806 14.4398 3.84322 14.4149 3.81083 14.3975C3.77718 14.3788 3.75102 14.3601 3.75102 14.3539C3.75102 14.3489 3.7398 14.3439 3.7261 14.3439C3.71239 14.3439 3.70118 14.3402 3.70118 14.334C3.70118 14.329 3.67626 14.3078 3.64511 14.2879C3.6152 14.2667 3.58904 14.2468 3.58904 14.2406C3.58904 14.2356 3.58156 14.2319 3.57284 14.2319C3.56412 14.2319 3.54543 14.2219 3.53172 14.2094C3.51926 14.197 3.48312 14.1696 3.45197 14.1472C3.42082 14.1248 3.37347 14.0899 3.34606 14.0687C3.31865 14.0476 3.28376 14.0214 3.26756 14.0102C3.20651 13.9654 3.17287 13.938 3.12552 13.8932C3.0981 13.867 3.07194 13.8459 3.06695 13.8459C3.06197 13.8459 3.02459 13.8135 2.98347 13.7736C2.94235 13.735 2.88628 13.6865 2.86012 13.6653C2.80031 13.6217 2.33803 13.1598 2.29193 13.0988C2.27324 13.0751 2.23711 13.0328 2.21094 13.0054C2.18353 12.978 2.14615 12.9332 2.12497 12.9058C2.10503 12.8784 2.07637 12.8448 2.06266 12.8298C2.04896 12.8161 2.02404 12.785 2.00659 12.7626C1.98915 12.7389 1.96298 12.7066 1.94803 12.6904C1.93183 12.6729 1.91937 12.6555 1.91937 12.6505C1.91937 12.6455 1.9094 12.6306 1.89694 12.6157C1.88448 12.602 1.8633 12.5746 1.8496 12.5571C1.83714 12.5385 1.81097 12.5048 1.79352 12.4824C1.77608 12.4588 1.73745 12.404 1.70755 12.3592C1.67889 12.3143 1.65023 12.277 1.64525 12.277C1.63777 12.277 1.62157 10.8737 1.61659 9.83652C1.61659 9.70578 1.62656 9.62111 1.65272 9.54018C1.66269 9.51154 1.67017 9.46547 1.67017 9.44057C1.67017 9.41442 1.67515 9.38827 1.68138 9.3808C1.68886 9.37458 1.69509 9.3173 1.69634 9.25255C1.69883 9.13675 1.71876 9.06454 1.74867 9.06454C1.76611 9.06454 1.80723 9.26625 1.80723 9.34469C1.80723 9.43061 1.83589 9.49909 1.87078 9.50033C1.88199 9.50033 1.89445 9.28119 1.90816 8.83419C1.93183 8.03107 1.95177 7.88539 2.03525 7.93022C2.05893 7.94267 2.0664 7.96259 2.07886 8.04103C2.09381 8.13567 2.115 8.23901 2.12746 8.28508C2.1312 8.29753 2.13867 8.30251 2.14366 8.29753C2.15362 8.28633 2.15985 8.21784 2.17979 7.91279C2.18976 7.75839 2.19474 7.74096 2.23835 7.72228C2.26701 7.70858 2.26826 7.7036 2.26826 7.58656C2.2695 7.42469 2.27698 7.41473 2.3966 7.41473C2.44644 7.41473 2.50126 7.41847 2.51995 7.42469C2.5511 7.43216 2.55235 7.4359 2.54113 7.47325C2.5349 7.49567 2.52992 7.55419 2.52992 7.60275C2.52992 7.68742 2.53117 7.69115 2.57353 7.72726C2.61091 7.75839 2.61714 7.77084 2.61714 7.81567C2.61714 7.84555 2.62337 7.86921 2.6296 7.86921C2.63708 7.86921 2.64206 7.94142 2.64206 8.06096C2.64206 8.16679 2.6458 8.26142 2.64954 8.27263C2.6757 8.33987 2.72928 8.20788 2.72928 8.07714C2.72928 8.01987 2.73801 7.97753 2.7567 7.93271C2.78785 7.86298 2.80404 7.85177 2.80404 7.90033C2.80404 7.91777 2.80903 7.94142 2.81526 7.95388C2.82149 7.96508 2.8327 8.02485 2.84018 8.0871C2.84766 8.14812 2.86012 8.23777 2.86884 8.28633C2.88877 8.41707 2.90373 8.68103 2.9112 9.08321C2.91743 9.42563 2.92491 9.50033 2.95606 9.50033C2.96104 9.50033 2.96603 9.49162 2.96603 9.48166C2.96603 9.4717 2.97101 9.46298 2.976 9.46298C2.98098 9.46298 2.99593 9.39699 3.00839 9.31605C3.02085 9.23637 3.0358 9.16041 3.04328 9.14796C3.06446 9.10687 3.07817 9.12679 3.07817 9.19901C3.07817 9.23886 3.08191 9.27621 3.08689 9.28119C3.09187 9.28617 3.0981 9.32353 3.09935 9.36586C3.10184 9.43808 3.12427 9.51279 3.14421 9.51279C3.15542 9.51279 3.20277 9.48664 3.22271 9.46921C3.23766 9.45426 3.25012 9.41193 3.26507 9.31356C3.28875 9.15917 3.29498 9.13177 3.31242 9.10438C3.32239 9.08944 3.3336 9.07948 3.33734 9.08321C3.34855 9.09442 3.37721 9.18033 3.37721 9.20399C3.37721 9.21644 3.38344 9.2264 3.38967 9.2264C3.39715 9.2264 3.40213 9.2152 3.40213 9.20275C3.40213 9.18905 3.40836 9.17411 3.41459 9.17037C3.42207 9.16664 3.42705 9.10687 3.42705 9.03341C3.42705 8.90142 3.43328 8.86033 3.45322 8.87279C3.45945 8.87528 3.47565 8.87279 3.48935 8.86531C3.51054 8.85411 3.51427 8.83917 3.51427 8.76197C3.51427 8.70718 3.5205 8.66485 3.52923 8.65613C3.53795 8.64742 3.57035 8.64119 3.60399 8.64119C3.67875 8.64119 3.6937 8.6636 3.68124 8.76321C3.67252 8.84166 3.68249 8.85909 3.73731 8.86781C3.77718 8.87279 3.79961 8.94002 3.78466 9.00975C3.77095 9.07574 3.77843 9.24633 3.79463 9.24259C3.8021 9.24135 3.80833 9.22391 3.81083 9.20524C3.81332 9.18656 3.82079 9.16539 3.82703 9.15792C3.83326 9.1517 3.83824 9.1243 3.83824 9.09691C3.83824 9.0496 3.83824 9.04835 3.86316 9.07076C3.87687 9.08321 3.88808 9.10936 3.88808 9.12928C3.88808 9.14796 3.89431 9.16415 3.90054 9.16415C3.90802 9.16415 3.913 9.17286 3.913 9.18282C3.913 9.19403 3.92546 9.23761 3.94041 9.27995C3.98153 9.39948 3.99025 9.46547 3.99648 9.6871C3.99898 9.80664 4.00645 9.89753 4.01517 9.90749C4.02514 9.91995 4.18339 9.92368 4.79767 9.92368H5.56771L5.57519 9.81411C5.59139 9.59621 5.59637 9.57255 5.63998 9.50407C5.66366 9.46672 5.68235 9.42687 5.68235 9.41317C5.68235 9.39948 5.68858 9.38827 5.69481 9.38827C5.70228 9.38827 5.70727 9.37707 5.70727 9.36337C5.70727 9.33722 5.7272 9.29489 5.75461 9.26625C5.76832 9.25131 5.7733 9.25131 5.79199 9.26625C5.82813 9.29364 5.84308 9.31854 5.84433 9.34718C5.84433 9.36337 5.85056 9.37582 5.85679 9.37582C5.86426 9.37582 5.86925 9.38329 5.86925 9.39325C5.86925 9.40197 5.88918 9.44804 5.91286 9.49535C5.93653 9.54142 5.95647 9.58998 5.95647 9.60119C5.95647 9.61364 5.9627 9.62734 5.96893 9.63107C5.97641 9.63481 5.98139 9.69333 5.98139 9.75932C5.98264 9.83403 5.98762 9.88757 5.99759 9.90002C6.01129 9.9187 6.05366 9.92866 6.18075 9.94485C6.23059 9.94983 6.24056 9.94734 6.27171 9.91746L6.30535 9.88259L6.30785 9.48913C6.31657 7.9738 6.31532 7.91279 6.27919 7.74469C6.25925 7.64882 6.26299 7.6015 6.30535 7.43341C6.31408 7.40228 6.32404 7.34625 6.32778 7.30889C6.34024 7.2043 6.3689 7.21177 6.39631 7.32508C6.40753 7.37489 6.4175 7.43341 6.4175 7.45333C6.4175 7.51808 6.46484 7.58905 6.49101 7.5629C6.49475 7.55917 6.49724 7.50936 6.49475 7.45333L6.49101 7.35123L6.55456 7.34998C6.6206 7.34874 6.65299 7.32633 6.65424 7.28026C6.65424 7.26033 6.66172 7.24166 6.69287 7.18438C6.70782 7.15823 6.74146 7.08477 6.75641 7.04742C6.76389 7.02998 6.77386 7.00633 6.78009 6.99512C6.79504 6.96524 6.79379 6.88928 6.77884 6.87932C6.77261 6.87559 6.76638 6.85567 6.76638 6.83574C6.76638 6.81582 6.77261 6.7959 6.77884 6.79216C6.78632 6.78843 6.7913 6.771 6.7913 6.75356C6.7913 6.72368 6.83367 6.65146 6.88849 6.58921C6.91839 6.55559 6.92836 6.55434 6.92836 6.58672C6.92836 6.60041 6.93459 6.61162 6.94082 6.61162C6.9483 6.61162 6.95328 6.61909 6.95328 6.62905C6.95328 6.63901 6.95702 6.64897 6.96325 6.65146C6.97945 6.65769 7.01309 6.73987 7.02181 6.79216C7.02555 6.81956 7.03178 6.89177 7.03552 6.95403C7.03926 7.01504 7.04673 7.07107 7.05421 7.07854C7.06044 7.08477 7.06542 7.09722 7.06542 7.10594C7.06542 7.12461 7.11527 7.18438 7.13022 7.18438C7.1352 7.18438 7.14143 6.79963 7.14392 6.32773C7.14766 5.5408 7.15015 5.46734 7.17009 5.40384C7.20124 5.31045 7.21619 5.21956 7.22367 5.08259C7.22865 4.98298 7.23239 4.96804 7.25108 4.96804C7.26977 4.96804 7.276 4.98049 7.28099 5.02656C7.30217 5.2096 7.31961 5.30423 7.32833 5.28928C7.33456 5.28057 7.33955 5.25816 7.33955 5.23823C7.33955 5.21956 7.34578 5.20461 7.35201 5.20461C7.35949 5.20461 7.36447 5.1822 7.36447 5.15481C7.36447 5.12742 7.3707 5.105 7.37693 5.105C7.38441 5.105 7.38939 5.08882 7.38939 5.06889C7.38939 5.04773 7.39562 5.02781 7.40185 5.02407C7.40933 5.02033 7.41431 5.00415 7.41431 4.98796C7.41431 4.97302 7.41805 4.95559 7.42303 4.95061C7.45169 4.92321 7.46789 4.78874 7.47786 4.51979C7.48907 4.1973 7.49904 4.07403 7.51524 4.06407C7.52147 4.06033 7.52645 4.04415 7.52645 4.02672C7.52645 4.01053 7.53268 3.99683 7.53891 3.99683C7.54639 3.99683 7.55137 3.98812 7.55137 3.97816C7.55137 3.94454 7.57006 3.95823 7.59249 4.00928C7.61243 4.05784 7.63859 4.06656 7.63859 4.02672C7.63859 4.01675 7.64233 4.00928 7.64856 4.00928C7.68096 4.00928 7.70712 3.78516 7.67597 3.76648C7.66974 3.76275 7.66351 3.7366 7.66351 3.71045C7.66351 3.6843 7.66974 3.65816 7.67597 3.65442C7.68345 3.65068 7.68843 3.63574 7.68843 3.62205C7.68843 3.59465 7.74077 3.51496 7.7931 3.45893C7.81927 3.43154 7.8255 3.41286 7.8255 3.36181C7.8255 3.32695 7.82051 3.2896 7.81428 3.27714C7.79933 3.24851 7.77565 3.14391 7.77565 3.10905C7.77565 3.09286 7.79185 3.058 7.81179 3.03061C7.86661 2.9559 7.86038 3.01567 7.89901 2.098C7.90649 1.93364 7.9177 1.74189 7.92393 1.67092C7.93888 1.52897 7.93265 1.50905 7.84169 1.41318C7.83297 1.40321 7.8255 1.36586 7.8255 1.32975C7.8255 1.27995 7.83297 1.25504 7.85415 1.23014C7.88655 1.18905 7.90026 1.18656 7.90026 1.22018Z" fill="white"/>
<path d="M8.11855 4.33549C8.11481 4.37907 8.10858 4.55588 8.10484 4.72771C8.09861 5.02654 8.09986 5.04272 8.12104 5.04272C8.14347 5.04272 8.17462 4.99292 8.17462 4.95557C8.17462 4.94436 8.18209 4.92817 8.19082 4.91946C8.212 4.89829 8.212 4.36537 8.18957 4.34296C8.18209 4.33549 8.17462 4.31183 8.17462 4.29315C8.17462 4.267 8.16839 4.25829 8.15094 4.25829C8.13101 4.25829 8.12602 4.27074 8.11855 4.33549Z" fill="white"/>
<path d="M7.92501 4.66792C7.92501 4.8796 7.92128 5.06388 7.91629 5.07633C7.90882 5.0975 7.90882 5.0975 7.92751 5.07882C7.95616 5.05143 7.98731 4.97174 7.98731 4.9294C7.98731 4.91072 7.99354 4.8908 7.99978 4.88707C8.00725 4.88209 8.01224 4.78497 8.01224 4.63804C8.01224 4.49111 8.00725 4.39399 7.99978 4.38901C7.99354 4.38528 7.98731 4.36909 7.98731 4.3529C7.98731 4.32676 7.95367 4.28318 7.93374 4.28318C7.92875 4.28318 7.92501 4.45625 7.92501 4.66792Z" fill="white"/>
<path d="M7.77558 4.3106C7.77433 4.31309 7.77433 4.465 7.77433 4.65052C7.77309 4.98297 7.77309 4.98671 7.79925 4.99045C7.82542 4.99418 7.82542 4.99294 7.82542 4.65177C7.82542 4.31683 7.82542 4.30811 7.8005 4.30811C7.78679 4.30811 7.77558 4.30936 7.77558 4.3106Z" fill="white"/>
<path d="M7.63867 6.00022C7.63867 6.00644 7.66858 6.02512 7.70471 6.0438C7.7695 6.07493 7.78072 6.07617 7.98631 6.07617C8.19066 6.07617 8.20312 6.07493 8.26293 6.04504C8.29657 6.02761 8.32149 6.00769 8.31775 6.00146C8.30778 5.98528 7.63867 5.98528 7.63867 6.00022Z" fill="white"/>
<path d="M8.2092 6.1297C8.20297 6.14215 8.19924 6.19942 8.19924 6.2567C8.19924 6.31398 8.19425 6.36503 8.18678 6.36876C8.1793 6.37374 8.17432 6.52814 8.17432 6.79335V7.20923H8.21668C8.25406 7.20923 8.26029 7.20425 8.26777 7.16814C8.28397 7.1009 8.28895 6.65888 8.274 6.64394C8.26777 6.63771 8.26154 6.57545 8.26154 6.50324C8.26154 6.43226 8.25282 6.3339 8.24285 6.28409C8.23288 6.23429 8.22416 6.17452 8.22167 6.15086C8.21917 6.11724 8.21543 6.11226 8.2092 6.1297Z" fill="white"/>
<path d="M7.82568 6.75475C7.82568 7.09094 7.82942 7.27148 7.83814 7.27148C7.84562 7.27148 7.8506 7.2665 7.8506 7.26152C7.8506 7.2553 7.86057 7.24036 7.87303 7.22666C7.92786 7.16565 7.95652 6.72238 7.91913 6.4746C7.90792 6.39615 7.89297 6.32643 7.88674 6.31896C7.88051 6.31273 7.87552 6.30028 7.87552 6.29032C7.87552 6.27413 7.84687 6.23802 7.83316 6.23802C7.82942 6.23802 7.82568 6.47086 7.82568 6.75475Z" fill="white"/>
<path d="M8.00993 6.26542C8.00744 6.27413 8.00494 6.48829 8.00619 6.7423L8.00868 7.203H8.05105H8.09341L8.09715 7.06604C8.0984 6.99133 8.10587 6.92409 8.1121 6.91787C8.1283 6.90168 8.1283 6.54557 8.1121 6.52938C8.10587 6.52316 8.0984 6.45966 8.09715 6.38744L8.09341 6.2567L8.05479 6.25296C8.03111 6.25047 8.01367 6.25545 8.00993 6.26542Z" fill="white"/>
<path d="M7.67853 6.27787C7.66731 6.28907 7.66357 6.4111 7.66357 6.75102V7.20923H7.70095H7.73834V6.73608C7.73834 6.28907 7.73709 6.26293 7.71591 6.26293C7.70345 6.26293 7.68725 6.26915 7.67853 6.27787Z" fill="white"/>
<path d="M7.43554 7.40603C7.41312 7.41101 7.40689 7.43965 7.42558 7.45086C7.43181 7.45459 7.4642 7.45833 7.4966 7.45957C7.53024 7.46082 7.56513 7.46704 7.57385 7.47451C7.59753 7.49319 8.43236 7.49195 8.45105 7.47327C8.45977 7.46455 8.47846 7.45833 8.49466 7.45833C8.54824 7.45833 8.52332 7.43841 8.45229 7.42346C8.3875 7.40977 7.49535 7.39483 7.43554 7.40603Z" fill="white"/>
<path d="M6.65915 7.93523C6.64544 7.9427 6.628 7.96262 6.62052 7.98005C6.61055 8.00247 6.60432 8.35484 6.59934 9.08324C6.5956 9.67219 6.58813 10.5538 6.58439 11.0406L6.57567 11.9284H6.50963C6.47349 11.9284 6.43985 11.9334 6.43611 11.9408C6.43113 11.9483 6.34765 11.9533 6.22678 11.9533C6.11589 11.9533 6.01745 11.9583 6.00873 11.9645C5.99751 11.9707 5.99502 11.9881 6.00001 12.018L6.00873 12.0616L6.12835 12.0778C6.31649 12.1027 6.79497 12.0803 6.80867 12.0454C6.81366 12.033 6.82113 8.07468 6.81615 7.96138C6.8149 7.92651 6.71148 7.90908 6.65915 7.93523Z" fill="white"/>
<path d="M7.04043 7.92769C7.04043 7.93392 7.0367 8.23151 7.03296 8.59135C7.02797 8.9512 7.02922 9.81532 7.0342 10.5114C7.04293 11.6731 7.04542 11.7764 7.06411 11.7689C7.08903 11.759 7.12766 11.7216 7.15631 11.6756C7.1775 11.6432 7.17874 11.5523 7.17376 9.83898C7.16877 7.82186 7.17376 7.91898 7.08778 7.91898C7.06162 7.91898 7.04043 7.92271 7.04043 7.92769Z" fill="white"/>
<path d="M8.81753 8.22657C8.80009 9.07949 8.78763 10.6882 8.79261 11.1626C8.80009 11.6719 8.80133 11.6993 8.82376 11.7204C8.8574 11.7516 8.88855 11.7428 8.90351 11.698C8.90974 11.6768 8.91971 11.6582 8.92344 11.6544C8.94338 11.6395 8.96082 10.0656 8.94836 9.53147C8.94089 9.23638 8.93466 8.78315 8.93466 8.52291C8.93466 8.1942 8.92967 8.03108 8.91971 7.98501C8.90475 7.92151 8.90226 7.91902 8.86363 7.91902H8.82376L8.81753 8.22657Z" fill="white"/>
<path d="M9.14249 7.96254C9.12255 8.00363 9.1213 8.14682 9.1213 9.96347C9.1213 11.0393 9.11757 11.9171 9.11383 11.9121C9.11009 11.9084 9.10511 11.886 9.10261 11.8623C9.10012 11.8387 9.0914 11.8075 9.08143 11.7926C9.06523 11.7664 9.06149 11.7652 8.68146 11.7677C8.46964 11.7677 8.29395 11.7652 8.28896 11.7602C8.28523 11.7565 8.28647 11.749 8.2927 11.744C8.31513 11.7278 8.44845 11.546 8.44845 11.5311C8.44845 11.5236 8.45344 11.5174 8.45967 11.5174C8.46465 11.5174 8.47337 11.4937 8.47711 11.4639C8.48085 11.434 8.48833 11.4016 8.49206 11.3904C8.49705 11.3792 8.49206 11.368 8.4796 11.363C8.45842 11.3555 8.34005 11.3879 8.31762 11.4066C8.31139 11.4128 8.29644 11.4178 8.28398 11.4178C8.27152 11.4178 8.25034 11.424 8.23788 11.4327C8.19551 11.4589 8.06468 11.4016 7.99864 11.3281C7.97621 11.3032 7.88027 11.297 7.8404 11.3169C7.82918 11.3232 7.80426 11.3344 7.78557 11.3431C7.76813 11.3518 7.73449 11.3755 7.7133 11.3954C7.67966 11.4253 7.66595 11.4302 7.63356 11.4228C7.61238 11.419 7.58995 11.4103 7.58247 11.4041C7.57624 11.3979 7.56254 11.3929 7.55132 11.3929C7.54135 11.3929 7.51643 11.3842 7.4965 11.3742C7.42797 11.3381 7.41426 11.3468 7.41426 11.4302C7.41426 11.5074 7.44915 11.5896 7.50646 11.6481C7.54634 11.6892 7.60116 11.7527 7.60116 11.759C7.60116 11.7776 7.36566 11.7901 6.99435 11.7913C6.89841 11.7913 6.88969 11.7938 6.871 11.8225C6.8386 11.871 6.83486 11.9445 6.86103 12.008C6.87972 12.0541 6.89467 12.0678 6.94451 12.0902C7.0093 12.1201 7.05291 12.1201 7.22736 12.0889C7.27844 12.0802 7.35196 12.0727 7.38934 12.0727C7.46535 12.074 7.65848 12.0964 7.68963 12.1088C7.71704 12.1188 7.86283 12.0927 7.88027 12.074C7.90145 12.0503 7.93509 11.9756 7.94257 11.9345C7.965 11.8038 7.98618 11.759 8.01733 11.7702C8.02855 11.7751 8.03727 11.7876 8.03727 11.8001C8.03727 11.8125 8.05222 11.8499 8.06842 11.8847C8.08586 11.9183 8.09957 11.9569 8.09957 11.9681C8.09957 11.9794 8.1058 11.993 8.11203 11.9968C8.11951 12.0005 8.12449 12.0155 8.12449 12.0292C8.12449 12.0429 8.13446 12.064 8.14567 12.0752C8.16436 12.0939 8.20548 12.0964 8.55935 12.0927C8.78612 12.0902 8.9805 12.0827 9.01913 12.0752C9.08019 12.0615 9.08517 12.059 9.09888 12.0105L9.11507 11.9594L9.1238 12.0155C9.12878 12.0453 9.13999 12.074 9.14872 12.0802C9.16616 12.0914 9.60725 12.0839 9.7169 12.0715C9.75179 12.0665 9.78169 12.0578 9.78169 12.0516C9.78169 12.0453 9.79166 12.0404 9.80412 12.0404C9.82904 12.0404 9.87888 12.003 9.88387 11.9806C9.88636 11.9669 9.83652 11.9632 9.63217 11.9619L9.37674 11.9594L9.37051 9.94231L9.36428 7.92519L9.2646 7.92145L9.16367 7.91772L9.14249 7.96254Z" fill="white"/>
<path d="M8.06964 8.00864C8.05967 8.04101 8.05344 9.86514 8.06092 10.5587L8.06839 11.2746L8.10951 11.2784L8.14938 11.2821V9.63852V7.9937H8.112C8.09082 7.9937 8.07213 8.00117 8.06964 8.00864Z" fill="white"/>
<path d="M7.686 8.02729C7.66482 8.03227 7.66357 8.11943 7.66357 9.63227C7.66357 10.9023 7.66731 11.231 7.67977 11.231C7.68725 11.231 7.70718 11.2348 7.72338 11.2385L7.7508 11.246L7.7483 9.63601C7.74457 7.90154 7.7483 8.00986 7.686 8.02729Z" fill="white"/>
<path d="M2.25698 8.38224C2.20714 8.41088 2.13113 8.48932 2.13113 8.51174C2.13113 8.51921 2.12241 8.5329 2.11244 8.54162C2.09873 8.55283 2.09375 8.58146 2.09375 8.64372C2.09375 8.74707 2.13985 8.85539 2.19717 8.8803C2.21586 8.88901 2.23081 8.90022 2.23081 8.90395C2.23081 8.92263 2.33548 8.95251 2.40027 8.95251C2.45136 8.95251 2.48375 8.9438 2.52736 8.92014C2.5934 8.88279 2.66692 8.80808 2.66692 8.77695C2.66692 8.7645 2.67315 8.7508 2.67938 8.74707C2.70305 8.73213 2.69308 8.58271 2.66443 8.51921C2.63577 8.45944 2.58593 8.4059 2.55851 8.40465C2.54979 8.40465 2.54232 8.39967 2.54232 8.39469C2.54232 8.37477 2.45759 8.35485 2.37909 8.35609C2.32302 8.35609 2.28688 8.36357 2.25698 8.38224Z" fill="white"/>
<path d="M13.4389 8.36731C13.4352 8.37354 13.4227 8.37976 13.4128 8.37976C13.3879 8.37976 13.2707 8.49556 13.2707 8.52046C13.2707 8.53167 13.2657 8.54412 13.2583 8.54786C13.2396 8.55906 13.2433 8.71969 13.2633 8.767C13.2894 8.82926 13.3592 8.8965 13.429 8.92762C13.4763 8.94879 13.5062 8.95377 13.5685 8.95004C13.6159 8.9463 13.6508 8.93883 13.6545 8.93011C13.657 8.9214 13.667 8.91517 13.6782 8.91517C13.7093 8.91517 13.819 8.80186 13.819 8.76949C13.819 8.75455 13.8252 8.74085 13.8314 8.74085C13.8389 8.74085 13.8439 8.7035 13.8439 8.65494C13.8439 8.60638 13.8389 8.56404 13.8314 8.56031C13.8252 8.55657 13.819 8.54039 13.819 8.52544C13.8177 8.49432 13.7081 8.37976 13.6782 8.37976C13.667 8.37976 13.6545 8.37354 13.6508 8.36731C13.647 8.35984 13.5984 8.35486 13.5449 8.35486C13.4913 8.35486 13.4427 8.35984 13.4389 8.36731Z" fill="white"/>
<path d="M13.8749 9.83402C13.8176 9.88632 13.8188 9.84523 13.8188 11.0941C13.8188 12.0653 13.8213 12.277 13.835 12.277C13.8587 12.277 13.9559 12.1911 13.9559 12.1711C13.9559 12.1624 13.9621 12.1525 13.9696 12.15C13.992 12.1425 14.0045 11.6507 14.0058 10.7504V9.9025L13.9771 9.86017C13.9447 9.81161 13.9098 9.80289 13.8749 9.83402Z" fill="white"/>
<path d="M12.8021 9.8888C12.7797 9.92491 12.7585 12.196 12.7772 12.5198C12.7872 12.6816 12.7884 12.6879 12.8208 12.6879C12.8495 12.6879 12.8819 12.6443 12.9055 12.5758C12.9255 12.5198 12.9292 9.94857 12.9093 9.94857C12.903 9.94857 12.8968 9.93985 12.8968 9.92864C12.8968 9.88506 12.8233 9.85394 12.8021 9.8888Z" fill="white"/>
<path d="M3.02566 9.9835L2.997 10.0296L2.99327 11.3009L2.98828 12.5721L3.04186 12.6182C3.11288 12.678 3.13157 12.673 3.14279 12.5896C3.15649 12.4987 3.14777 10.0644 3.13407 10.0171C3.12285 9.97603 3.1079 9.95735 3.0755 9.94614C3.06055 9.93992 3.04684 9.94988 3.02566 9.9835Z" fill="white"/>
<path d="M1.9992 10.0083C1.97303 10.0407 1.97178 10.0644 1.95683 10.4591C1.94188 10.9185 1.92319 11.2995 1.90575 11.5859C1.89079 11.825 1.89079 11.891 1.90575 12.0653C1.91821 12.2197 1.92693 12.262 1.95309 12.2869C1.96182 12.2957 1.96929 12.3106 1.96929 12.3193C1.96929 12.3268 1.98674 12.3442 2.00667 12.3554C2.02786 12.3679 2.04405 12.3865 2.04405 12.3965C2.04405 12.4065 2.05028 12.4139 2.05651 12.4139C2.06399 12.4139 2.06897 12.4077 2.06897 12.4015C2.06897 12.394 2.08019 12.389 2.09265 12.389C2.11258 12.389 2.11757 12.3766 2.12504 12.3106C2.12878 12.2683 2.13127 11.7453 2.12878 11.1489L2.12504 10.0656L2.09389 10.0195C2.05651 9.96476 2.03533 9.96227 1.9992 10.0083Z" fill="white"/>
<path d="M5.65379 10.337C5.62514 10.3931 5.61891 10.4292 5.60769 10.5786C5.59025 10.8239 5.59149 13.1884 5.60894 13.2756C5.62763 13.3652 5.65006 13.3976 5.69367 13.3976C5.72606 13.3976 5.7298 13.3926 5.74226 13.3316C5.75721 13.2619 5.78338 11.7291 5.78213 10.926C5.78213 10.4653 5.77466 10.3906 5.73229 10.3433C5.71859 10.3296 5.70737 10.3072 5.70737 10.2947C5.70737 10.2549 5.68744 10.271 5.65379 10.337Z" fill="white"/>
<path d="M10.1528 10.3059C10.1317 10.3109 10.1304 10.3557 10.1304 11.0318C10.1304 11.4988 10.1254 11.7553 10.1179 11.7602C10.1005 11.7702 10.1017 12.917 10.1192 13.0938C10.1304 13.2183 10.1341 13.232 10.1653 13.2569C10.184 13.2731 10.2039 13.2855 10.2089 13.2855C10.2226 13.2855 10.2625 13.2457 10.2787 13.2145C10.2887 13.1946 10.2924 12.8024 10.2924 11.7677C10.2924 10.4416 10.2911 10.3458 10.2712 10.3221C10.25 10.2984 10.2052 10.2922 10.1528 10.3059Z" fill="white"/>
<path d="M11.7356 10.3184C11.7181 10.3296 11.6982 10.3557 11.6932 10.3769C11.6882 10.3981 11.682 11.0194 11.6795 11.7577C11.6758 13.1012 11.6758 13.1012 11.7019 13.1374C11.7244 13.1697 11.7343 13.1735 11.7929 13.1735C11.8278 13.1735 11.8726 13.166 11.8913 13.1573L11.925 13.1423V11.7279C11.925 10.4479 11.9225 10.3121 11.905 10.3047C11.8677 10.2897 11.7692 10.2984 11.7356 10.3184Z" fill="white"/>
<path d="M4.06358 10.357C3.99754 10.367 4.00003 10.3458 4.00003 11.068C4.00003 11.5088 3.9963 11.7416 3.98757 11.7416C3.96888 11.7416 3.97137 13.0528 3.98882 13.1337C4.00253 13.1922 4.00626 13.196 4.04863 13.2034C4.12214 13.2159 4.13585 13.2121 4.17448 13.1748L4.21186 13.1399V11.7678C4.21186 10.6609 4.20812 10.3919 4.19566 10.3795C4.17821 10.362 4.11217 10.3508 4.06358 10.357Z" fill="white"/>
<path d="M8.19071 12.1737C8.14461 12.1799 8.12094 12.2036 8.13215 12.2322C8.13838 12.2496 8.17701 12.2521 8.4287 12.2546L8.71653 12.2584L8.71529 12.2895C8.71404 12.3069 8.70407 12.4078 8.69161 12.5136C8.66296 12.7651 8.65423 13.0092 8.67168 13.0976C8.67915 13.1362 8.68788 13.1947 8.69161 13.2283C8.6966 13.2619 8.70407 13.2993 8.71155 13.3117C8.71778 13.3242 8.72276 13.3516 8.72276 13.3728C8.72276 13.3952 8.72775 13.4089 8.73522 13.4039C8.7427 13.4002 8.74768 13.369 8.74768 13.3354C8.74768 13.3018 8.75267 13.2719 8.75765 13.2682C8.77136 13.2607 8.79005 12.9905 8.79005 12.8249C8.79005 12.6593 8.77136 12.3891 8.75765 12.3816C8.75267 12.3779 8.74768 12.348 8.74768 12.3131V12.2521H9.2897H9.83172V12.216C9.83172 12.1824 9.82798 12.1799 9.76693 12.1724C9.69715 12.165 8.258 12.165 8.19071 12.1737Z" fill="white"/>
<path d="M6.11865 12.2147V12.2521H6.97217H7.8257V12.2147V12.1774H6.97217H6.11865V12.2147Z" fill="white"/>
<path d="M6.51472 12.3205C6.51098 12.3255 6.42626 12.3342 6.32782 12.3404C6.23063 12.3467 6.11724 12.3554 6.07862 12.3591L6.00635 12.3666V12.8883C6.00635 13.1759 6.01009 13.41 6.01632 13.41C6.0213 13.41 6.03376 13.3913 6.04497 13.3702C6.05494 13.349 6.07488 13.3253 6.08734 13.3179C6.0998 13.3104 6.12347 13.2917 6.13967 13.2768C6.16708 13.2494 6.16833 13.2432 6.16833 13.0103C6.16833 12.7812 6.18079 12.6604 6.21069 12.5845C6.21817 12.5658 6.22938 12.5509 6.23686 12.5509C6.24932 12.5509 6.28546 12.6032 6.31785 12.6692C6.34153 12.7165 6.36146 12.7376 6.38389 12.7376C6.42127 12.7376 6.44121 12.8136 6.44868 12.9929C6.45741 13.2295 6.46862 13.3353 6.48108 13.3353C6.48731 13.3353 6.49229 13.344 6.49229 13.354C6.49229 13.3639 6.49728 13.3727 6.50351 13.3727C6.50974 13.3727 6.51721 13.3839 6.52095 13.3976C6.53092 13.4362 6.56083 13.4274 6.59696 13.3727C6.62811 13.3241 6.62936 13.3191 6.62936 13.1236C6.62936 12.9144 6.6468 12.8522 6.65926 13.0203C6.68294 13.3527 6.69166 13.3888 6.75271 13.4025C6.77016 13.405 6.80131 13.4125 6.82 13.4175C6.83993 13.4225 6.87607 13.4187 6.90348 13.41C6.97077 13.3876 6.9745 13.3627 6.96454 13.0427C6.95955 12.892 6.95457 12.6791 6.95457 12.5683L6.95332 12.3678L6.92217 12.3541C6.86984 12.3305 6.76019 12.3355 6.71035 12.3641C6.65552 12.3952 6.64555 12.3952 6.63559 12.3653C6.63185 12.3529 6.61565 12.3392 6.6007 12.3355C6.58575 12.3317 6.56207 12.3255 6.54837 12.3205C6.53466 12.3168 6.51971 12.3168 6.51472 12.3205Z" fill="white"/>
<path d="M7.19012 12.4102C7.16644 12.5422 7.16644 13.2469 7.19012 13.3503C7.19884 13.3901 7.20881 13.4225 7.21255 13.4225C7.22501 13.4225 7.25117 13.3777 7.25242 13.3565C7.25242 13.3453 7.25865 13.3353 7.26488 13.3353C7.27236 13.3353 7.27734 13.3166 7.27734 13.2942C7.27734 13.2731 7.28232 13.2345 7.28855 13.2108C7.32469 13.0763 7.30351 12.389 7.26363 12.389C7.2574 12.389 7.25242 12.3803 7.25242 12.3703C7.25242 12.3604 7.24744 12.3517 7.23996 12.3517C7.23373 12.3517 7.2275 12.343 7.2275 12.333C7.2275 12.323 7.22252 12.3143 7.21753 12.3143C7.21255 12.3143 7.20009 12.3579 7.19012 12.4102Z" fill="white"/>
<path d="M9.03654 12.3417C8.9867 12.445 8.98546 13.1685 9.0353 13.2631C9.04153 13.2755 9.04651 13.2942 9.04651 13.3042C9.04651 13.3241 9.05773 13.3278 9.07891 13.3129C9.10134 13.2992 9.11006 13.2008 9.11754 12.8746C9.12377 12.5783 9.10757 12.3516 9.0814 12.3516C9.07642 12.3516 9.07143 12.3429 9.07143 12.333C9.07143 12.3056 9.05274 12.3106 9.03654 12.3417Z" fill="white"/>
<path d="M7.49027 12.4015C7.48155 12.4401 7.47656 12.6281 7.47656 12.8883C7.47656 13.2569 7.47905 13.3154 7.4965 13.3416L7.51644 13.3727H7.77685C7.99491 13.3727 8.0435 13.3689 8.08088 13.3515C8.11577 13.3353 8.12449 13.3241 8.12449 13.2955C8.12449 13.2619 8.122 13.2606 8.06717 13.2606C8.03602 13.2606 7.98369 13.2519 7.95005 13.2407C7.89149 13.222 7.89024 13.2208 7.9027 13.1847C7.90893 13.1647 7.92014 13.1486 7.92762 13.1486C7.93385 13.1486 7.9351 13.1423 7.93136 13.1361C7.92762 13.1286 7.91018 13.1237 7.89398 13.1237C7.87778 13.1237 7.86034 13.1174 7.8566 13.1112C7.85286 13.1037 7.82669 13.0988 7.80053 13.0988C7.7619 13.0988 7.74321 13.1075 7.70458 13.1461C7.62484 13.2245 7.62235 13.2258 7.58497 13.1934C7.55631 13.1685 7.55132 13.1548 7.55132 13.1012C7.55132 13.0664 7.55755 13.034 7.56378 13.0303C7.57126 13.0253 7.57624 12.897 7.57624 12.6866C7.57624 12.4065 7.57375 12.3517 7.5588 12.3517C7.54883 12.3517 7.53263 12.3479 7.52267 12.3442C7.50896 12.3392 7.50024 12.3529 7.49027 12.4015Z" fill="white"/>
<path d="M7.75325 12.3542C7.74328 12.3641 7.7383 12.4114 7.7383 12.4837C7.7383 12.5472 7.73332 12.6032 7.72584 12.6069C7.71836 12.6119 7.71338 12.6754 7.71338 12.7563C7.71338 12.8373 7.71836 12.9008 7.72584 12.9058C7.73332 12.9095 7.7383 12.9406 7.7383 12.9755C7.7383 13.0353 7.73955 13.0365 7.77693 13.0365C7.83923 13.0365 7.8467 13.0178 7.85542 12.8485C7.85916 12.7638 7.86664 12.6281 7.87038 12.5484C7.87785 12.404 7.87785 12.4027 7.8467 12.3716C7.81181 12.3367 7.77693 12.3305 7.75325 12.3542Z" fill="white"/>
<path d="M8.15565 12.3679C8.11578 12.4102 8.09584 12.4588 8.10456 12.4911C8.10955 12.5073 8.11827 12.6032 8.1245 12.7065C8.13197 12.8086 8.1407 12.9257 8.14443 12.9643L8.15191 13.0365H8.19926H8.24536L8.25284 12.9518C8.25782 12.9058 8.26156 12.7588 8.26156 12.6256C8.26156 12.3965 8.26031 12.3803 8.23664 12.3604C8.20424 12.333 8.1868 12.3342 8.15565 12.3679Z" fill="white"/>
<path d="M9.18098 12.8198C9.18472 13.3378 9.18472 13.3353 9.24952 13.3353C9.2869 13.3353 9.28814 13.3279 9.30808 13.0116C9.31555 12.8983 9.32677 12.8037 9.33424 12.8024C9.34047 12.7999 9.34546 12.7825 9.34546 12.7626C9.34546 12.7426 9.35418 12.7252 9.36539 12.7202C9.39405 12.709 9.3953 12.7103 9.3953 12.7489C9.3953 12.7987 9.41274 12.8061 9.43393 12.7651C9.44265 12.7464 9.46383 12.7103 9.47878 12.6854C9.49498 12.6592 9.50744 12.6306 9.50744 12.6194C9.50744 12.6094 9.51367 12.6007 9.5199 12.6007C9.52738 12.6007 9.53236 12.5895 9.53236 12.5758C9.53236 12.5621 9.53859 12.5509 9.54482 12.5509C9.5523 12.5509 9.55728 12.5397 9.55728 12.526C9.55728 12.4799 9.5984 12.5086 9.6283 12.5758C9.66444 12.6605 9.66942 12.6841 9.66942 12.7812C9.66942 12.8398 9.67441 12.8871 9.68064 12.8871C9.68562 12.8871 9.69185 12.9294 9.6931 12.9817C9.69434 13.034 9.70057 13.0875 9.7068 13.1C9.71428 13.1124 9.71926 13.1486 9.71926 13.1822C9.71926 13.2307 9.72549 13.2494 9.75415 13.2793C9.78779 13.3179 9.83141 13.3241 9.83141 13.2905C9.83141 13.2805 9.83764 13.2731 9.84387 13.2731C9.85134 13.2731 9.85633 13.1087 9.85633 12.8061V12.3392H9.51741H9.17725L9.18098 12.8198Z" fill="white"/>
<path d="M8.41729 12.3666C8.41355 12.3753 8.41231 12.5733 8.41355 12.8061L8.41729 13.2295H8.44844H8.47959V12.7937V12.3579L8.45093 12.3542C8.43598 12.3517 8.42103 12.3579 8.41729 12.3666Z" fill="white"/>
</g>
<defs>
<clipPath id="clip0_1234_281">
<rect width="16" height="16" fill="white"/>
</clipPath>
</defs>
</svg>
