<svg width="24" height="24" viewBox="0 0 24 24" fill="none" xmlns="http://www.w3.org/2000/svg">
<path d="M20.25 2.75H3.75C3.48478 2.75 3.23043 2.85536 3.04289 3.04289C2.85536 3.23043 2.75 3.48478 2.75 3.75V20.25C2.75 20.5152 2.85536 20.7696 3.04289 20.9571C3.23043 21.1446 3.48478 21.25 3.75 21.25H20.25C20.5152 21.25 20.7696 21.1446 20.9571 20.9571C21.1446 20.7696 21.25 20.5152 21.25 20.25V3.75C21.25 3.48478 21.1446 3.23043 20.9571 3.04289C20.7696 2.85536 20.5152 2.75 20.25 2.75Z" stroke="white" stroke-linecap="round" stroke-linejoin="round"/>
<path d="M12.7892 18.0711C12.7687 15.6766 13.3204 13.6979 16.3299 13.8221C20.623 2.88126 3.11793 3.29831 7.78403 13.7568C9.19903 13.669 11.5446 14.5114 11.144 18.33" stroke="white" stroke-linecap="round" stroke-linejoin="round"/>
<path d="M21.25 16.7393L2.75 19.6511" stroke="white" stroke-linecap="round" stroke-linejoin="round"/>
<path d="M2.75 5.52002L8.9224 6.66502" stroke="white" stroke-linecap="round" stroke-linejoin="round"/>
<path d="M16.1777 7.76514L21.25 8.50584" stroke="white" stroke-linecap="round" stroke-linejoin="round"/>
</svg>
