<svg width="17" height="42" viewBox="0 0 17 42" fill="none" xmlns="http://www.w3.org/2000/svg">
<g clip-path="url(#clip0_1180_644)">
<rect width="17" height="42" fill="black"/>
<path d="M6.98738 -3.42171C6.98738 -3.39637 6.77234 -3.37948 6.42238 -3.37948C6.08929 -3.37948 5.84474 -3.36258 5.82787 -3.33725C5.81522 -3.31613 5.69295 -3.29501 5.56224 -3.29501C5.35142 -3.29501 4.97194 -3.24434 4.28468 -3.12609C4.15818 -3.10075 3.99374 -3.08385 3.92628 -3.08385C3.8546 -3.08385 3.78292 -3.06696 3.75763 -3.04585C3.73655 -3.02473 3.63535 -2.99517 3.52994 -2.9825C3.04084 -2.92337 2.95651 -2.90648 2.8764 -2.8727C2.83002 -2.85158 2.72461 -2.82624 2.6445 -2.80935C2.31562 -2.75444 2.1048 -2.70799 1.88555 -2.6362C1.75906 -2.59819 1.5904 -2.55595 1.51873 -2.54751C1.44283 -2.53484 1.37959 -2.5095 1.37959 -2.48838C1.37959 -2.46727 1.30369 -2.45037 1.21515 -2.45037C1.12239 -2.45037 1.03384 -2.43348 1.02119 -2.40814C1.00854 -2.38703 0.957947 -2.36591 0.911568 -2.36591C0.869404 -2.36591 0.797726 -2.34902 0.755562 -2.3279C0.667017 -2.28567 0.435116 -2.21387 0.253811 -2.17587C0.177917 -2.15897 0.106237 -2.12941 0.0935898 -2.1083C0.0767231 -2.08718 0.0219097 -2.07029 -0.0371189 -2.07029C-0.0919323 -2.07029 -0.138311 -2.05339 -0.138311 -2.02806C-0.138311 -2.00694 -0.184692 -1.98582 -0.243721 -1.98582C-0.302752 -1.98582 -0.391294 -1.96471 -0.446108 -1.93515C-0.644278 -1.83379 -0.686441 -1.81689 -0.749687 -1.81689C-0.783419 -1.81689 -0.846664 -1.8 -0.888828 -1.77889C-1.04483 -1.69442 -1.49599 -1.52127 -1.55502 -1.52127C-1.58875 -1.52127 -1.61405 -1.50438 -1.61405 -1.47904C-1.61405 -1.45792 -1.66043 -1.43681 -1.71946 -1.43681C-1.77849 -1.43681 -1.82487 -1.41991 -1.82487 -1.39458C-1.82487 -1.37346 -1.87125 -1.35234 -1.92606 -1.35234C-1.98509 -1.35234 -2.04412 -1.33545 -2.05677 -1.31011C-2.06942 -1.289 -2.12001 -1.26788 -2.16639 -1.26788C-2.20856 -1.26788 -2.24651 -1.25099 -2.24651 -1.22565C-2.24651 -1.20453 -2.2718 -1.18342 -2.2971 -1.18342C-2.32662 -1.18342 -2.44468 -1.13696 -2.56273 -1.07784C-2.67658 -1.02293 -2.8368 -0.951141 -2.90848 -0.921577C-2.98437 -0.892017 -3.04762 -0.854008 -3.04762 -0.837116C-3.04762 -0.815998 -3.094 -0.803329 -3.15303 -0.803329C-3.21206 -0.803329 -3.25844 -0.790661 -3.25844 -0.773766C-3.25844 -0.752651 -3.38071 -0.685081 -3.5325 -0.613285C-3.68429 -0.545715 -3.80657 -0.473919 -3.80657 -0.457027C-3.80657 -0.435913 -3.83608 -0.423241 -3.86981 -0.423241C-3.92884 -0.423241 -4.01317 -0.381008 -4.46011 -0.119171C-4.57395 -0.0516014 -4.70466 0.0159683 -4.74261 0.0286407C-4.78477 0.0413094 -4.8185 0.0666504 -4.8185 0.0877647C-4.8185 0.108879 -4.85645 0.125774 -4.90283 0.125774C-4.94921 0.125774 -4.98715 0.142666 -4.98715 0.168007C-4.98715 0.189121 -5.01667 0.210236 -5.0504 0.210236C-5.08413 0.210236 -5.11365 0.227131 -5.11365 0.252468C-5.11365 0.273586 -5.13473 0.294701 -5.15581 0.294701C-5.18111 0.294701 -5.3076 0.36227 -5.43409 0.442513C-5.56058 0.522755 -5.68286 0.590324 -5.70394 0.590324C-5.72924 0.590324 -5.7461 0.607216 -5.7461 0.624111C-5.7461 0.645226 -5.85151 0.717022 -5.97801 0.780369C-6.1045 0.847939 -6.20991 0.915512 -6.20991 0.932404C-6.20991 0.949295 -6.24364 0.974636 -6.29002 0.991528C-6.33218 1.0042 -6.42073 1.06332 -6.48819 1.11823C-6.55565 1.17735 -6.62733 1.2238 -6.65263 1.2238C-6.67371 1.2238 -6.7496 1.27448 -6.82128 1.33361C-6.97307 1.46875 -7.2893 1.68835 -7.32725 1.68835C-7.3399 1.68835 -7.41158 1.74326 -7.48747 1.81505C-7.56337 1.88262 -7.63504 1.94175 -7.65191 1.94175C-7.66878 1.94175 -7.72781 1.9882 -7.78683 2.04733C-7.84586 2.10645 -7.91333 2.1529 -7.93862 2.1529C-7.95971 2.1529 -7.98079 2.1698 -7.98079 2.19514C-7.98079 2.21626 -8.00187 2.23737 -8.02717 2.23737C-8.05668 2.23737 -8.10728 2.27116 -8.14523 2.31339C-8.18317 2.35139 -8.28858 2.44431 -8.38134 2.51188C-8.4741 2.57945 -8.57108 2.65547 -8.59638 2.68081C-8.62589 2.70192 -8.73552 2.79905 -8.84515 2.89196C-8.95899 2.98487 -9.0897 3.10313 -9.14451 3.1538C-9.19932 3.20871 -9.25414 3.25093 -9.26678 3.25093C-9.28365 3.25093 -9.41857 3.37341 -9.56615 3.52544C-9.71794 3.67748 -9.86551 3.79995 -9.89924 3.79995C-9.93297 3.79995 -9.96249 3.81684 -9.96249 3.83374C-9.96249 3.85485 -10.051 3.95621 -10.1564 4.05757C-10.5359 4.42076 -11.2063 5.11337 -11.2443 5.18516C-11.2654 5.22317 -11.4045 5.37943 -11.5563 5.53146C-11.8767 5.85665 -12.155 6.18183 -12.155 6.23673C-12.155 6.25363 -12.2056 6.30853 -12.2646 6.35498C-12.3237 6.40144 -12.4333 6.52391 -12.505 6.62949C-12.5766 6.73507 -12.6821 6.86177 -12.7327 6.91667C-12.7875 6.97157 -12.8296 7.03069 -12.8296 7.04759C-12.8296 7.06448 -12.8844 7.1405 -12.9561 7.21229C-13.0236 7.28831 -13.0826 7.3601 -13.0826 7.377C-13.0826 7.39811 -13.1416 7.47835 -13.2133 7.55859C-13.2808 7.63884 -13.3693 7.75708 -13.4115 7.82043C-13.4494 7.888 -13.4958 7.93868 -13.5127 7.93868C-13.5295 7.93868 -13.5464 7.9598 -13.5464 7.98936C-13.5464 8.0147 -13.597 8.10339 -13.6645 8.18785C-13.8837 8.47503 -13.9638 8.59328 -14.0355 8.72842C-14.0735 8.80444 -14.1198 8.86778 -14.1409 8.86778C-14.162 8.86778 -14.1789 8.90579 -14.1789 8.95225C-14.1789 8.9987 -14.1957 9.03671 -14.2126 9.03671C-14.2337 9.03671 -14.2801 9.10428 -14.318 9.18452C-14.356 9.26476 -14.4066 9.33234 -14.4276 9.33234C-14.4487 9.33234 -14.474 9.36612 -14.4867 9.40413C-14.5035 9.44636 -14.571 9.57306 -14.6427 9.69131C-14.7144 9.80533 -14.7818 9.93625 -14.7987 9.97426C-14.8113 10.0165 -14.8366 10.0503 -14.8535 10.0503C-14.8746 10.0503 -14.9041 10.0925 -14.921 10.1432C-14.9378 10.1981 -14.9589 10.2488 -14.9758 10.2614C-14.9884 10.2741 -15.0601 10.3966 -15.1318 10.5359C-15.4311 11.1187 -15.507 11.2539 -15.5365 11.2666C-15.5576 11.275 -15.5703 11.3172 -15.5703 11.3637C-15.5703 11.4059 -15.5871 11.4439 -15.6124 11.4439C-15.6335 11.4439 -15.6546 11.4693 -15.6546 11.4988C-15.6546 11.5242 -15.7389 11.7227 -15.8443 11.9296C-15.9498 12.1408 -16.0341 12.335 -16.0341 12.3604C-16.0341 12.3899 -16.0509 12.4153 -16.0762 12.4153C-16.0973 12.4153 -16.1184 12.4533 -16.1184 12.4997C-16.1184 12.5462 -16.1353 12.5842 -16.1606 12.5842C-16.1817 12.5842 -16.2027 12.6222 -16.2027 12.6644C-16.2027 12.7362 -16.266 12.8883 -16.4389 13.2261C-16.4726 13.2852 -16.4979 13.3655 -16.4979 13.4035C-16.4979 13.4415 -16.5147 13.4711 -16.54 13.4711C-16.5611 13.4711 -16.5822 13.5091 -16.5822 13.5555C-16.5822 13.64 -16.5991 13.678 -16.7003 13.8807C-16.7298 13.9356 -16.7509 14.0074 -16.7509 14.0412C-16.7509 14.075 -16.7677 14.1383 -16.7888 14.1806C-16.8099 14.2186 -16.8774 14.3833 -16.9406 14.548C-17.0038 14.7085 -17.0713 14.8774 -17.0924 14.9154C-17.1135 14.9576 -17.1303 15.0379 -17.1303 15.0928C-17.1303 15.1519 -17.1472 15.211 -17.1725 15.2237C-17.1936 15.2364 -17.2147 15.3166 -17.2147 15.3968C-17.2147 15.4771 -17.2315 15.5404 -17.2568 15.5404C-17.2779 15.5404 -17.299 15.5953 -17.299 15.6587C-17.299 15.7262 -17.3116 15.7938 -17.3285 15.8065C-17.3749 15.8572 -17.5098 16.271 -17.5098 16.3724C-17.5098 16.4231 -17.5267 16.478 -17.552 16.4906C-17.5731 16.5033 -17.5941 16.5709 -17.5941 16.6385C-17.5941 16.706 -17.611 16.7694 -17.6321 16.782C-17.6532 16.7947 -17.6785 16.8665 -17.6911 16.9425C-17.7291 17.1452 -17.7923 17.4747 -17.8471 17.7154C-17.8724 17.8294 -17.9062 18.011 -17.9188 18.1166C-17.9315 18.2222 -17.9568 18.3277 -17.9778 18.3489C-18.02 18.4038 -18.1001 18.8176 -18.1296 19.1301C-18.1423 19.2568 -18.1676 19.3793 -18.1887 19.4004C-18.2097 19.4258 -18.2266 19.5694 -18.2266 19.7256C-18.2266 19.8819 -18.2435 20.0255 -18.2688 20.0381C-18.2898 20.0508 -18.3109 20.2028 -18.3109 20.3675C-18.3109 20.5365 -18.3278 20.7392 -18.3489 20.8194C-18.4838 21.3304 -18.5007 26.1491 -18.3657 26.5207C-18.3531 26.5545 -18.3278 26.753 -18.3067 26.9642C-18.2856 27.1711 -18.2477 27.4752 -18.2224 27.6399C-18.2013 27.8004 -18.1718 28.0411 -18.1591 28.1678C-18.1465 28.2945 -18.117 28.4169 -18.0959 28.4381C-18.0748 28.4634 -18.0579 28.5605 -18.0579 28.6619C-18.0579 28.759 -18.0326 28.9153 -17.9989 28.9997C-17.9652 29.0884 -17.9188 29.3038 -17.8893 29.477C-17.864 29.6501 -17.8218 29.8275 -17.8007 29.8655C-17.7797 29.9077 -17.7628 29.9964 -17.7628 30.064C-17.7628 30.1358 -17.7459 30.1991 -17.7249 30.2118C-17.7038 30.2245 -17.6785 30.3089 -17.6658 30.3934C-17.6321 30.6595 -17.3875 31.5125 -17.3285 31.5717C-17.3116 31.5886 -17.299 31.6646 -17.299 31.7448C-17.299 31.8208 -17.2779 31.8842 -17.2568 31.8842C-17.2315 31.8842 -17.2147 31.9391 -17.2147 32.0067C-17.2147 32.0785 -17.1936 32.146 -17.1725 32.1587C-17.1472 32.1714 -17.1303 32.222 -17.1303 32.2685C-17.1303 32.3107 -17.1135 32.3825 -17.0882 32.4248C-17.0671 32.4628 -17.0207 32.581 -16.987 32.6866C-16.8731 33.0287 -16.8099 33.1934 -16.7804 33.2187C-16.7635 33.2356 -16.7509 33.2863 -16.7509 33.3285C-16.7509 33.3708 -16.734 33.4383 -16.7129 33.4806C-16.6918 33.5186 -16.6539 33.603 -16.6286 33.6664C-16.4979 33.9873 -16.3967 34.2323 -16.2871 34.4815C-16.2323 34.5955 -16.1774 34.7306 -16.1606 34.7771C-16.1437 34.8235 -16.0214 35.0811 -15.8907 35.3472C-15.76 35.6133 -15.6546 35.8582 -15.6546 35.8836C-15.6546 35.9131 -15.6335 35.9385 -15.6124 35.9385C-15.5871 35.9385 -15.5703 35.9765 -15.5703 36.0187C-15.5703 36.0652 -15.5576 36.1074 -15.5365 36.1158C-15.5197 36.1201 -15.4522 36.2341 -15.3848 36.3608C-15.1824 36.7451 -15.039 37.0069 -14.942 37.1632C-14.8914 37.2434 -14.8408 37.3448 -14.8282 37.3828C-14.8113 37.425 -14.7902 37.4588 -14.7734 37.4588C-14.7565 37.4588 -14.7186 37.5264 -14.6848 37.6066C-14.6511 37.6869 -14.6132 37.7544 -14.5921 37.7544C-14.5752 37.7544 -14.5583 37.7755 -14.5583 37.8009C-14.5583 37.8304 -14.4909 37.9445 -14.4108 38.0543C-14.3307 38.1683 -14.2632 38.2823 -14.2632 38.3034C-14.2632 38.3288 -14.2253 38.3879 -14.1789 38.4386C-14.1325 38.4893 -14.0945 38.5568 -14.0945 38.5864C-14.0945 38.616 -14.0777 38.6413 -14.0608 38.6413C-14.0397 38.6413 -13.9891 38.7089 -13.9428 38.7891C-13.9006 38.8694 -13.8542 38.9369 -13.8373 38.9369C-13.8205 38.9369 -13.7867 38.9918 -13.7572 39.0636C-13.7277 39.1354 -13.6898 39.1903 -13.6687 39.1903C-13.6476 39.1903 -13.6307 39.2199 -13.6307 39.2537C-13.6307 39.2874 -13.6139 39.317 -13.597 39.317C-13.5759 39.317 -13.5338 39.3677 -13.5 39.431C-13.4452 39.5408 -13.3398 39.6802 -13.2218 39.8069C-13.1922 39.8365 -13.1669 39.8787 -13.1669 39.904C-13.1669 39.9294 -13.1501 39.9505 -13.1332 39.9505C-13.1121 39.9505 -13.07 40.0012 -13.0362 40.0645C-13.0025 40.1321 -12.9477 40.2123 -12.914 40.2461C-12.876 40.2799 -12.7917 40.3855 -12.7242 40.4784C-12.6525 40.5713 -12.5682 40.6769 -12.5345 40.7107C-12.4965 40.7444 -12.4122 40.85 -12.3405 40.9429C-12.2731 41.0358 -12.1803 41.1499 -12.1339 41.2006C-12.0875 41.2512 -11.9906 41.3653 -11.9189 41.4539C-11.843 41.5469 -11.7249 41.682 -11.6533 41.7538C-11.5816 41.8298 -11.5226 41.9016 -11.5226 41.9143C-11.5226 41.9607 -9.36376 44.0892 -9.31738 44.0892C-9.30473 44.0892 -9.22462 44.1568 -9.13608 44.2413C-9.04332 44.3257 -8.86623 44.4735 -8.73974 44.5664C-8.61325 44.6636 -8.47832 44.7734 -8.44459 44.8072C-8.41086 44.8409 -8.28437 44.9465 -8.17052 45.0394C-8.05247 45.1323 -7.95127 45.221 -7.94706 45.2379C-7.93862 45.259 -7.91333 45.2717 -7.89224 45.2717C-7.85851 45.2717 -7.36941 45.6265 -7.30617 45.694C-7.264 45.7447 -6.59781 46.2008 -6.57252 46.2008C-6.55565 46.2008 -6.50505 46.2388 -6.45446 46.2853C-6.40386 46.3317 -6.3364 46.3697 -6.30688 46.3697C-6.27737 46.3697 -6.25207 46.3866 -6.25207 46.412C-6.25207 46.4331 -6.22256 46.4542 -6.18882 46.4542C-6.15509 46.4542 -6.12558 46.4669 -6.12558 46.488C-6.12558 46.5049 -6.05812 46.5556 -5.97801 46.5978C-5.89789 46.6442 -5.83043 46.6949 -5.83043 46.716C-5.83043 46.7329 -5.79248 46.7498 -5.7461 46.7498C-5.69972 46.7498 -5.66178 46.7667 -5.66178 46.7921C-5.66178 46.8132 -5.64491 46.8343 -5.61961 46.8343C-5.59853 46.8343 -5.48047 46.8976 -5.3582 46.9737C-5.23592 47.0497 -5.08413 47.1384 -5.01667 47.1679C-4.95342 47.2017 -4.90283 47.2439 -4.90283 47.2651C-4.90283 47.282 -4.86488 47.2988 -4.82272 47.2988C-4.77634 47.2988 -4.73417 47.3115 -4.72574 47.3284C-4.71731 47.3495 -4.6372 47.4002 -4.54443 47.4509C-4.16496 47.6536 -4.08063 47.7 -4.06798 47.7296C-4.05955 47.7507 -4.01739 47.7634 -3.97101 47.7634C-3.92884 47.7634 -3.89089 47.7803 -3.89089 47.8056C-3.89089 47.8267 -3.8656 47.8479 -3.83187 47.8479C-3.77705 47.8479 -3.48191 47.9957 -3.07713 48.2237C-2.98859 48.2702 -2.89161 48.3124 -2.85788 48.3124C-2.82415 48.3124 -2.79463 48.3293 -2.79463 48.3546C-2.79463 48.3758 -2.76512 48.3969 -2.72717 48.3969C-2.68923 48.3969 -2.52057 48.4644 -2.3477 48.5447C-2.17904 48.6249 -2.01882 48.6925 -1.99352 48.6925C-1.97244 48.6925 -1.95136 48.7094 -1.95136 48.7347C-1.95136 48.7558 -1.91341 48.777 -1.86703 48.777C-1.82065 48.777 -1.74897 48.7939 -1.70681 48.815C-1.66886 48.8361 -1.5761 48.8741 -1.50864 48.9037C-1.43696 48.9332 -1.34842 48.9712 -1.31047 48.9923C-1.2683 49.0135 -1.19662 49.0304 -1.15024 49.0304C-1.10386 49.0304 -1.06592 49.0472 -1.06592 49.0641C-1.06592 49.0853 -0.952074 49.1359 -0.812933 49.1782C-0.669577 49.2204 -0.547302 49.2711 -0.534653 49.2922C-0.522003 49.3091 -0.458757 49.326 -0.387079 49.326C-0.319616 49.326 -0.264803 49.3429 -0.264803 49.3682C-0.264803 49.3893 -0.209991 49.4104 -0.142529 49.4104C-0.0708504 49.4104 -0.00338745 49.4273 0.00926208 49.4527C0.0219097 49.4738 0.0809402 49.4949 0.135754 49.4949C0.190565 49.4949 0.249596 49.516 0.262245 49.5371C0.274893 49.5625 0.325491 49.5794 0.367653 49.5794C0.439333 49.5794 0.645935 49.6554 0.83989 49.7525C0.882053 49.7736 0.957947 49.7905 1.00854 49.7905C1.09287 49.7905 1.29526 49.8454 1.48499 49.9214C1.53138 49.9383 1.62835 49.9637 1.69581 49.9763C1.76749 49.9848 1.90663 50.0186 2.01204 50.0439C2.11745 50.0693 2.28611 50.1073 2.39152 50.1242C2.49693 50.1411 2.62342 50.1791 2.67402 50.2044C2.72461 50.234 2.83002 50.2551 2.91435 50.2551C2.99446 50.2551 3.07457 50.272 3.08722 50.2973C3.09987 50.3184 3.19263 50.3395 3.29383 50.3395C3.3908 50.3395 3.48778 50.3564 3.50886 50.3776C3.53416 50.3987 3.65643 50.4282 3.78292 50.4409C3.90942 50.4536 4.1371 50.4831 4.28889 50.5042C4.44068 50.5296 4.71475 50.5676 4.90448 50.5887C5.09 50.6141 5.32612 50.6521 5.43153 50.6732C5.53272 50.6985 5.76463 50.7196 5.94171 50.7196C6.1188 50.7196 6.27902 50.7365 6.29167 50.7619C6.32541 50.8168 10.9381 50.8168 10.9719 50.7619C10.9845 50.7365 11.1447 50.7196 11.3218 50.7196C11.4989 50.7196 11.7224 50.6985 11.8151 50.6774C12.0049 50.6267 12.5404 50.5507 12.8903 50.5254C13.0168 50.5127 13.1602 50.4874 13.2065 50.4662C13.2529 50.4451 13.3668 50.4198 13.4595 50.4071C13.9444 50.348 14.054 50.3269 14.092 50.2931C14.1131 50.272 14.1847 50.2551 14.2564 50.2551C14.3239 50.2551 14.4757 50.2255 14.5937 50.1917C14.969 50.0819 15.3527 49.9932 15.5171 49.9721C15.6014 49.9595 15.6858 49.9341 15.6984 49.913C15.7111 49.8919 15.7743 49.875 15.8418 49.875C15.9092 49.875 15.9767 49.8539 15.9894 49.8328C16.002 49.8074 16.0821 49.7905 16.1622 49.7905C16.2423 49.7905 16.3056 49.7736 16.3056 49.7525C16.3056 49.7314 16.3688 49.7061 16.4447 49.6934C16.5797 49.6723 16.8116 49.6005 16.9465 49.5329C16.9886 49.5118 17.0603 49.4949 17.1025 49.4949C17.1489 49.4949 17.1995 49.478 17.2121 49.4527C17.2248 49.4316 17.2922 49.4104 17.3597 49.4104C17.4271 49.4104 17.4946 49.3893 17.5073 49.3682C17.5199 49.3429 17.5789 49.326 17.638 49.326C17.6928 49.326 17.7392 49.3091 17.7392 49.288C17.7392 49.2711 17.8404 49.2246 17.9626 49.1866C18.359 49.0641 18.4981 49.0092 18.4981 48.9797C18.4981 48.9586 18.5445 48.9459 18.6035 48.9459C18.6625 48.9459 18.7089 48.9248 18.7089 48.9037C18.7089 48.8783 18.7469 48.8614 18.7933 48.8614C18.8396 48.8614 18.9113 48.8445 18.9535 48.8234C19.0336 48.7812 19.4805 48.5785 19.6154 48.5236C19.9022 48.4095 21.6182 47.5353 21.6182 47.5058C21.6182 47.4847 21.6562 47.4678 21.7026 47.4678C21.7489 47.4678 21.7869 47.4467 21.7869 47.4255C21.7869 47.4002 21.8206 47.3833 21.8628 47.3833C21.9007 47.3833 21.9808 47.3453 22.0399 47.2988C22.0989 47.2524 22.1706 47.2144 22.2001 47.2144C22.2254 47.2144 22.2507 47.1933 22.2507 47.1721C22.2507 47.1468 22.276 47.1299 22.3097 47.1299C22.3392 47.1299 22.3856 47.1046 22.4109 47.075C22.4362 47.0455 22.5501 46.9737 22.6681 46.9188C22.7862 46.8596 22.8831 46.8005 22.8831 46.7794C22.8831 46.7625 22.9042 46.7498 22.9295 46.7498C22.959 46.7498 23.0729 46.6823 23.1825 46.602C23.2964 46.5218 23.4102 46.4542 23.4313 46.4542C23.4566 46.4542 23.4734 46.4373 23.4734 46.4162C23.4734 46.3951 23.5072 46.3655 23.5536 46.3486C23.5957 46.336 23.6843 46.2768 23.7517 46.2219C23.8192 46.1628 23.8993 46.1164 23.9288 46.1164C23.9541 46.1164 23.9794 46.0995 23.9794 46.0826C23.9794 46.0614 24.0469 46.0108 24.127 45.9643C24.2071 45.9221 24.2746 45.8714 24.2746 45.8545C24.2746 45.8334 24.2999 45.8207 24.3294 45.8207C24.3589 45.8207 24.4601 45.7574 24.5528 45.6856C24.6414 45.6096 24.8016 45.4786 24.907 45.3984C25.0124 45.3182 25.1052 45.2379 25.1094 45.221C25.1178 45.2041 25.1473 45.1872 25.1726 45.1872C25.2022 45.1872 25.316 45.1028 25.4341 44.9972C25.5479 44.8916 25.6575 44.8072 25.6786 44.8072C25.6955 44.8072 25.7714 44.7438 25.8473 44.672C25.9232 44.596 26.0412 44.4946 26.1045 44.4482C26.1719 44.4017 26.3195 44.2708 26.4333 44.161C26.5514 44.047 26.6905 43.9287 26.7454 43.8907C26.8002 43.8569 26.8465 43.7978 26.8465 43.7683C26.8465 43.7345 26.8718 43.7091 26.9056 43.7091C26.9646 43.7091 28.5753 42.1381 28.5753 42.079C28.5753 42.0494 28.6596 41.9565 28.9337 41.6651C29.0264 41.568 29.1782 41.3948 29.271 41.2808C29.3595 41.1625 29.4649 41.0401 29.5029 41.0063C29.5366 40.9725 29.6209 40.8669 29.6926 40.774C29.7601 40.6811 29.8486 40.5755 29.8908 40.5375C29.9329 40.4995 29.9667 40.4573 29.9667 40.4404C29.9667 40.415 30.0552 40.301 30.1775 40.1616C30.2745 40.0561 30.4305 39.8322 30.4305 39.7985C30.4305 39.7816 30.4642 39.7393 30.5106 39.7013C30.5527 39.6633 30.6582 39.5197 30.7467 39.3804C30.8352 39.241 30.9196 39.1185 30.9322 39.1058C30.9449 39.0932 30.9828 39.0341 31.0166 38.9665C31.0503 38.9031 31.0924 38.8525 31.1135 38.8525C31.1304 38.8525 31.1473 38.8356 31.1473 38.8187C31.1473 38.7849 31.5605 38.1387 31.6532 38.0205C31.6785 37.9909 31.6954 37.9571 31.6954 37.9445C31.6954 37.9318 31.7629 37.8136 31.843 37.6869C31.9231 37.5602 31.9905 37.4377 31.9905 37.4166C31.9905 37.3912 32.0074 37.3743 32.0243 37.3743C32.0453 37.3743 32.0833 37.3068 32.117 37.2265C32.1508 37.1463 32.1887 37.0787 32.2098 37.0787C32.2267 37.0787 32.2435 37.0449 32.2435 36.9985C32.2435 36.9562 32.2688 36.9013 32.2983 36.8718C32.3278 36.8464 32.4881 36.5677 32.6483 36.2467C32.8085 35.9258 32.9519 35.6555 32.973 35.6513C32.9898 35.6428 33.0025 35.6175 33.0025 35.5922C33.0025 35.571 33.1079 35.3345 33.2344 35.0685C33.3609 34.8024 33.4663 34.5659 33.4663 34.549C33.4663 34.5279 33.5084 34.4266 33.5548 34.3252C33.6054 34.2281 33.6602 34.1056 33.6771 34.0591C33.6982 34.0127 33.7614 33.8649 33.8204 33.7297C33.8795 33.5946 33.9301 33.4594 33.9301 33.4257C33.9301 33.3961 33.9512 33.3539 33.9722 33.3412C33.9975 33.3285 34.0144 33.261 34.0144 33.1892C34.0144 33.1216 34.0355 33.0667 34.0566 33.0667C34.0819 33.0667 34.0987 33.0202 34.0987 32.9611C34.0987 32.902 34.1156 32.8555 34.1325 32.8555C34.1493 32.8555 34.1873 32.7668 34.221 32.6528C34.2505 32.543 34.3011 32.3867 34.3306 32.3065C34.3644 32.2263 34.415 32.0742 34.4403 31.9687C34.4698 31.8631 34.5077 31.7617 34.5288 31.7364C34.5457 31.7153 34.5625 31.635 34.5625 31.5632C34.5625 31.4872 34.5836 31.4112 34.6047 31.3985C34.6258 31.3859 34.6469 31.3183 34.6469 31.2507C34.6469 31.1831 34.6679 31.1156 34.689 31.1029C34.7143 31.0902 34.7312 31.0227 34.7312 30.9593C34.7312 30.896 34.7438 30.8284 34.7607 30.8115C34.7944 30.7819 34.8619 30.537 34.942 30.1738C34.9631 30.0809 35.001 29.9204 35.0263 29.8148C35.0558 29.7092 35.0854 29.5488 35.0938 29.4559C35.1064 29.3629 35.1317 29.2489 35.1528 29.2025C35.1697 29.156 35.2076 28.9744 35.2372 28.8013C35.2667 28.6281 35.3046 28.4296 35.3257 28.362C35.3468 28.2945 35.3636 28.1593 35.3636 28.0664C35.3636 27.9693 35.3932 27.7792 35.4269 27.6483C35.4606 27.5132 35.4901 27.3105 35.4901 27.1964C35.4901 27.0824 35.5112 26.9768 35.5323 26.9642C35.5576 26.9515 35.5745 26.7572 35.5745 26.525C35.5745 26.3011 35.5913 26.0984 35.6124 26.0773C35.6335 26.052 35.663 25.6254 35.6714 25.1271C35.6841 24.6287 35.7052 24.1853 35.722 24.1431C35.7431 24.0966 35.7431 23.7925 35.7262 23.4674C35.7136 23.138 35.6883 22.534 35.6757 22.1286C35.6588 21.7232 35.6335 21.3684 35.6166 21.3473C35.5998 21.322 35.5829 21.1235 35.5787 20.9039C35.5745 20.6843 35.5534 20.4858 35.5281 20.4604C35.507 20.4393 35.4901 20.3169 35.4901 20.1859C35.4901 20.0592 35.4691 19.8776 35.4438 19.7847C35.4227 19.6918 35.3805 19.4807 35.3594 19.3202C35.3341 19.1555 35.2962 18.9105 35.2751 18.7712C35.254 18.6318 35.2245 18.4418 35.2119 18.3489C35.1992 18.2559 35.1697 18.163 35.1486 18.1377C35.1275 18.1166 35.1107 18.0321 35.1107 17.9477C35.1107 17.8632 35.0938 17.7787 35.0727 17.7576C35.0516 17.7323 35.0263 17.6394 35.0137 17.5464C34.9715 17.2424 34.8324 16.6722 34.7691 16.5456C34.7481 16.5033 34.7312 16.4315 34.7312 16.3893C34.7312 16.3428 34.7143 16.2922 34.689 16.2795C34.6679 16.2668 34.6469 16.2077 34.6469 16.1486C34.6469 16.0303 34.4192 15.2786 34.3306 15.1054C34.2969 15.0379 34.2674 14.9492 34.2674 14.907C34.2674 14.8647 34.2505 14.814 34.2252 14.8014C34.2041 14.7887 34.1831 14.7211 34.1831 14.6493C34.1831 14.5818 34.1662 14.5269 34.1451 14.5269C34.124 14.5269 34.0987 14.4677 34.0819 14.4002C34.0692 14.3284 34.0439 14.2143 34.0313 14.1468C34.0144 14.075 33.9891 14.0201 33.968 14.0201C33.9469 14.0201 33.9301 13.9947 33.9301 13.961C33.9301 13.9272 33.8963 13.8385 33.8584 13.7582C33.7319 13.5048 33.7193 13.4711 33.7193 13.4077C33.7193 13.3739 33.7024 13.3444 33.6771 13.3444C33.656 13.3444 33.6349 13.2852 33.6349 13.2177C33.6349 13.1459 33.6181 13.091 33.5928 13.091C33.5717 13.091 33.5506 13.053 33.5506 13.0065C33.5506 12.9601 33.5337 12.9221 33.5084 12.9221C33.4874 12.9221 33.4663 12.8925 33.4663 12.8587C33.4663 12.8249 33.3988 12.6602 33.3187 12.4955C33.2386 12.3266 33.1711 12.1661 33.1711 12.1323C33.1711 12.1027 33.1543 12.0774 33.129 12.0774C33.1079 12.0774 33.0868 12.0394 33.0868 11.9929C33.0868 11.9465 33.0699 11.9085 33.0446 11.9085C33.0235 11.9085 33.0025 11.8831 33.0025 11.8494C33.0025 11.8156 32.935 11.672 32.8549 11.5284C32.7748 11.3848 32.7073 11.2412 32.7073 11.2074C32.7073 11.1736 32.6905 11.1483 32.6652 11.1483C32.6441 11.1483 32.623 11.1103 32.623 11.0638C32.623 11.0174 32.6061 10.9794 32.5808 10.9794C32.5597 10.9794 32.5387 10.9414 32.5387 10.8949C32.5387 10.8485 32.5218 10.8105 32.4965 10.8105C32.4754 10.8105 32.4543 10.7809 32.4543 10.7471C32.4543 10.7133 32.4375 10.6838 32.4122 10.6838C32.3911 10.6838 32.37 10.6542 32.37 10.6162C32.37 10.5824 32.3236 10.4895 32.2646 10.4135C32.2056 10.3375 32.1592 10.2572 32.1592 10.2361C32.1592 10.215 32.1212 10.1516 32.0749 10.0925C32.0285 10.0334 31.9905 9.95314 31.9905 9.91091C31.9905 9.87291 31.9737 9.83912 31.9484 9.83912C31.9273 9.83912 31.9062 9.818 31.9062 9.78844C31.9062 9.7631 31.8725 9.69975 31.8261 9.6533C31.7839 9.60262 31.6996 9.47593 31.6406 9.37034C31.4635 9.04094 31.4213 8.97336 31.396 8.95225C31.3749 8.93536 31.2527 8.75798 31.084 8.49614C31.0629 8.45813 31.0081 8.39056 30.9702 8.34411C30.928 8.29765 30.8943 8.23431 30.8943 8.20474C30.8943 8.17518 30.8774 8.14984 30.8521 8.14984C30.831 8.14984 30.8099 8.12872 30.8099 8.10339C30.8099 8.07804 30.7846 8.03159 30.7593 8.00203C30.6624 7.89645 30.6202 7.83733 30.4726 7.62194C30.3967 7.50369 30.3208 7.40234 30.304 7.38967C30.2913 7.377 30.2239 7.29253 30.1522 7.19962C30.0847 7.10671 29.9962 6.99269 29.9582 6.95045C29.9161 6.904 29.8823 6.85332 29.8823 6.8322C29.8823 6.81531 29.798 6.71395 29.6926 6.6126C29.5872 6.50702 29.5029 6.40566 29.5029 6.38032C29.5029 6.35498 29.4185 6.2494 29.3131 6.1396C29.2077 6.03402 29.1234 5.92844 29.1234 5.90733C29.1234 5.89043 29.0854 5.85242 29.0391 5.82708C28.9927 5.80175 28.9547 5.76374 28.9547 5.7384C28.9547 5.64971 26.661 3.3354 26.5725 3.3354C26.564 3.3354 26.5092 3.29317 26.4544 3.23827C26.1761 2.97221 25.9527 2.78638 25.9189 2.78638C25.8936 2.78638 25.8768 2.76527 25.8768 2.74415C25.8768 2.71881 25.8557 2.70192 25.8304 2.70192C25.8009 2.70192 25.7503 2.66814 25.7123 2.6259C25.6744 2.58367 25.569 2.49498 25.4762 2.42741C25.3835 2.35562 25.278 2.27116 25.2443 2.23737C25.2106 2.19936 25.0883 2.10223 24.9703 2.02199C24.8564 1.94597 24.7552 1.86573 24.7468 1.84883C24.7384 1.83617 24.5823 1.72214 24.3968 1.60389C24.2155 1.48142 24.0637 1.36739 24.0637 1.34628C24.0637 1.32516 24.0384 1.30827 24.0089 1.30827C23.9794 1.30827 23.9119 1.27026 23.8613 1.2238C23.8107 1.17735 23.7433 1.13934 23.7096 1.13934C23.6758 1.13934 23.6421 1.12667 23.6337 1.10555C23.6168 1.06332 23.3469 0.864834 23.1699 0.7677C23.0897 0.721245 22.9759 0.657894 22.9211 0.624111C22.8663 0.594547 22.8115 0.56076 22.7988 0.548092C22.7567 0.505859 22.6091 0.417175 22.5374 0.396057C22.4952 0.379166 22.4615 0.353825 22.4615 0.33271C22.4615 0.311592 22.432 0.294701 22.3983 0.294701C22.3645 0.294701 22.335 0.273586 22.335 0.252468C22.335 0.227131 22.2971 0.210236 22.2507 0.210236C22.2043 0.210236 22.1664 0.193344 22.1664 0.17223C22.1664 0.151112 22.1326 0.125774 22.0947 0.113102C22.0525 0.0962105 21.9049 0.020195 21.7658 -0.06427C21.6267 -0.148735 21.4454 -0.245869 21.3652 -0.288101C21.2851 -0.326107 21.2135 -0.372562 21.205 -0.393681C21.1966 -0.410572 21.1629 -0.423241 21.1333 -0.423241C21.0743 -0.423241 20.7033 -0.613285 20.6316 -0.680855C20.6063 -0.701973 20.5557 -0.718864 20.5135 -0.718864C20.4714 -0.718864 20.4376 -0.739983 20.4376 -0.761097C20.4376 -0.786438 20.3997 -0.803329 20.3575 -0.803329C20.3111 -0.803329 20.2606 -0.824444 20.2479 -0.845562C20.2353 -0.870899 20.1847 -0.887794 20.1425 -0.887794C20.1003 -0.887794 20.0582 -0.904686 20.0497 -0.921577C20.0329 -0.968033 19.5648 -1.18342 19.489 -1.18342C19.4552 -1.18342 19.4257 -1.20453 19.4257 -1.22565C19.4257 -1.25099 19.3878 -1.26788 19.3456 -1.26788C19.2992 -1.26788 19.2486 -1.289 19.236 -1.31011C19.2233 -1.33545 19.1727 -1.35234 19.1263 -1.35234C19.0842 -1.35234 19.0462 -1.37346 19.0462 -1.39458C19.0462 -1.41991 19.0083 -1.43681 18.9619 -1.43681C18.9155 -1.43681 18.8438 -1.4537 18.8017 -1.47482C18.7637 -1.49593 18.6752 -1.53394 18.6035 -1.5635C18.4011 -1.64797 18.1861 -1.74088 18.1102 -1.77889C18.068 -1.8 17.9964 -1.81689 17.9542 -1.81689C17.9078 -1.81689 17.8572 -1.83801 17.8446 -1.85913C17.8319 -1.88447 17.7729 -1.90136 17.7181 -1.90136C17.6633 -1.90136 17.6042 -1.92247 17.5916 -1.94359C17.5789 -1.96893 17.5199 -1.98582 17.4651 -1.98582C17.4103 -1.98582 17.3512 -2.00694 17.3386 -2.02806C17.326 -2.05339 17.2754 -2.07029 17.2332 -2.07029C17.191 -2.07029 17.1025 -2.09563 17.035 -2.12941C16.9718 -2.1632 16.8326 -2.21387 16.7272 -2.23922C16.6218 -2.26878 16.5038 -2.30679 16.4658 -2.3279C16.4236 -2.34902 16.3351 -2.36591 16.2634 -2.36591C16.196 -2.36591 16.1369 -2.38703 16.1369 -2.40814C16.1369 -2.43348 16.0821 -2.45037 16.0147 -2.45037C15.943 -2.45037 15.8755 -2.47149 15.8629 -2.49261C15.8502 -2.51794 15.7954 -2.53484 15.749 -2.53484C15.6984 -2.53484 15.6014 -2.55173 15.5298 -2.57285C14.9943 -2.72911 14.7835 -2.77979 14.5136 -2.81779C14.4209 -2.83046 14.3281 -2.8558 14.307 -2.87692C14.2817 -2.89803 14.1974 -2.91492 14.1131 -2.91492C14.0287 -2.91492 13.9444 -2.93182 13.9191 -2.95293C13.898 -2.97405 13.7758 -2.99939 13.6493 -3.01206C13.4131 -3.03318 12.8692 -3.11764 12.2115 -3.23167C12.0133 -3.26545 11.7435 -3.29501 11.6128 -3.29501C11.482 -3.29501 11.364 -3.31613 11.3513 -3.33725C11.3345 -3.36258 11.0857 -3.37948 10.7357 -3.37948C10.3731 -3.37948 10.1497 -3.39637 10.1497 -3.42171C10.1497 -3.44705 9.5931 -3.46394 8.56852 -3.46394C7.54394 -3.46394 6.98738 -3.44705 6.98738 -3.42171ZM8.37878 0.674789C8.37878 0.721245 8.36192 0.759251 8.33662 0.759251C8.31554 0.759251 8.29446 0.79726 8.29446 0.843716C8.29446 0.890171 8.30289 0.928181 8.31554 0.928181C8.32397 0.928181 8.39987 0.890171 8.48419 0.843716C8.6655 0.742359 8.70345 0.738136 8.78356 0.822601C8.88897 0.923958 8.93535 0.898617 8.90583 0.759251C8.88053 0.649448 8.88897 0.63678 8.95643 0.662117C9.09557 0.712795 9.15038 0.805706 9.17146 1.0042C9.18833 1.19002 9.17568 1.21958 9.01546 1.41385C8.91848 1.52787 8.84259 1.65034 8.83837 1.68835C8.8215 1.95019 8.85524 3.23827 8.88475 3.63102C8.91005 3.89708 8.92691 4.42921 8.92691 4.81352C8.92691 5.23161 8.95221 5.64549 8.99016 5.8482C9.02389 6.03402 9.04919 6.27052 9.05341 6.36765C9.05341 6.53658 9.17568 6.78997 9.27266 6.8322C9.32325 6.85332 9.31482 7.38122 9.26423 7.41078C9.24314 7.42345 9.22206 7.49102 9.22206 7.55859C9.22206 7.62616 9.20519 7.69374 9.1799 7.70641C9.10822 7.75286 9.13352 7.99358 9.22628 8.14984C9.31482 8.29343 9.3865 8.36522 9.60154 8.53838C9.70273 8.61861 9.70695 8.64396 9.69851 9.00293C9.6943 9.21831 9.669 9.40413 9.6437 9.43792C9.61418 9.47593 9.60154 9.56461 9.6184 9.65752C9.67321 10.0376 9.69851 10.1347 9.73224 10.1347C9.75332 10.1347 9.77019 10.1559 9.77019 10.1812C9.77019 10.2277 9.87138 10.3459 9.91355 10.3459C9.9262 10.3459 9.93885 10.3163 9.93885 10.2826C9.93885 10.2445 9.97258 10.1643 10.0105 10.101C10.175 9.84756 10.234 9.84334 10.234 10.0798C10.234 10.1559 10.2509 10.2192 10.2762 10.2192C10.3015 10.2192 10.3225 10.6542 10.3352 11.3257C10.3605 12.9178 10.4322 13.488 10.6598 13.9441C10.6809 13.9863 10.6978 14.0665 10.6978 14.1214C10.6978 14.1806 10.7189 14.2397 10.74 14.2524C10.7653 14.265 10.7821 14.3242 10.7821 14.3833C10.7821 14.51 10.8369 14.5142 10.896 14.3875C10.9508 14.2777 11.0351 13.792 11.0351 13.6104C11.0351 13.5429 11.0646 13.4499 11.0984 13.4035C11.1321 13.3613 11.1616 13.2895 11.1616 13.2472C11.1616 13.205 11.1827 13.1839 11.2038 13.1966C11.2291 13.2092 11.2459 13.3148 11.2459 13.4288C11.2459 13.5429 11.2628 13.6442 11.2839 13.6569C11.3007 13.6696 11.3218 13.8216 11.326 13.9947C11.3303 14.1679 11.3513 14.3748 11.3766 14.4508C11.3977 14.5269 11.4146 14.6958 11.4146 14.8309C11.4146 14.9619 11.4357 15.1223 11.461 15.1899C11.4905 15.2659 11.5116 16.195 11.52 17.9265C11.5284 19.3666 11.5453 20.6252 11.5622 20.7223C11.5959 20.9081 11.7097 20.9799 11.7097 20.8152C11.7097 20.7687 11.7266 20.6969 11.7519 20.6547C11.773 20.6125 11.7941 20.4689 11.7983 20.338C11.8025 20.2071 11.8236 20.1015 11.8447 20.1015C11.8615 20.1015 11.8784 19.9875 11.8784 19.8523C11.8784 19.7129 11.8995 19.5862 11.9205 19.5736C11.9458 19.5609 11.9627 19.5102 11.9627 19.468C11.9627 19.3751 12.1356 19.0372 12.2283 18.9401C12.2663 18.9063 12.3169 18.8768 12.3464 18.8768C12.4181 18.8768 12.591 19.0879 12.6247 19.2146C12.6373 19.2737 12.6626 19.3371 12.6795 19.3624C12.7132 19.4047 12.7427 19.5862 12.7891 19.9832C12.8018 20.0973 12.8313 20.1859 12.8524 20.1859C12.8734 20.1859 12.8903 20.2789 12.8903 20.3929C12.8903 20.5111 12.9072 20.6125 12.9283 20.6252C12.9493 20.6378 12.9746 20.7223 12.9873 20.8068C13.0463 21.2248 13.2023 21.4613 13.4131 21.4613C13.5186 21.4613 13.5228 21.474 13.5228 21.7316C13.5228 21.8752 13.5439 22.0104 13.5649 22.023C13.5902 22.0357 13.6071 22.0273 13.6071 22.0019C13.6071 21.9766 13.6366 21.9259 13.6703 21.8921C13.7041 21.8541 13.7336 21.7739 13.7336 21.7063C13.7336 21.6387 13.7547 21.5711 13.7758 21.5585C13.8011 21.5458 13.8179 21.4107 13.8179 21.2586C13.8179 21.1066 13.8348 20.9883 13.8601 20.9883C13.8854 20.9883 13.9022 20.9503 13.9022 20.9039C13.9022 20.8574 13.9149 20.8194 13.9275 20.8194C13.9992 20.8194 14.0667 20.9883 14.0709 21.1699C14.0709 21.4698 14.189 21.9386 14.2859 22.0273C14.345 22.0822 14.3661 22.1539 14.3661 22.3398C14.3661 22.4707 14.345 22.5974 14.3155 22.6269C14.2733 22.6692 14.2564 23.4758 14.248 26.3011C14.2396 28.2903 14.248 29.9838 14.2606 30.0555L14.2859 30.1949H14.7076C15.1166 30.1949 15.1376 30.1907 15.2515 30.0767C15.3611 29.9669 15.3695 29.9289 15.3948 29.4939C15.4244 28.9744 15.4539 28.7675 15.5087 28.7337C15.5298 28.721 15.5466 28.6746 15.5466 28.6281C15.5466 28.5859 15.5677 28.5479 15.5888 28.5479C15.6141 28.5479 15.631 28.5141 15.631 28.4718C15.631 28.4296 15.6478 28.3789 15.6689 28.3536C15.749 28.2691 15.9261 27.9059 15.9261 27.8299C15.9261 27.7835 15.9472 27.7455 15.9683 27.7455C15.9936 27.7455 16.0104 27.7159 16.0104 27.6821C16.0104 27.6483 16.0442 27.6188 16.0863 27.6188C16.158 27.6188 16.3056 27.9059 16.3056 28.0495C16.3056 28.0875 16.3267 28.134 16.3478 28.1467C16.373 28.1593 16.3899 28.2058 16.3899 28.2438C16.3899 28.286 16.4279 28.3452 16.4742 28.3789C16.5206 28.4127 16.5586 28.455 16.5586 28.4761C16.5586 28.493 16.5965 28.5479 16.6429 28.5985C16.7314 28.6957 16.7483 28.8055 16.7947 29.4559C16.8116 29.6881 16.8284 29.9246 16.8326 29.9838L16.8411 30.0893H19.4088H21.9766L22.0061 29.5403C22.0188 29.2362 22.0525 28.8688 22.082 28.7168C22.1073 28.5648 22.1368 28.3578 22.1495 28.2522C22.1621 28.1467 22.1917 28.0453 22.2127 28.0242C22.2338 27.9988 22.2507 27.9397 22.2507 27.8848C22.2507 27.8299 22.2676 27.7539 22.2886 27.7117C22.3392 27.6103 22.5079 27.1162 22.5416 26.9642L22.5711 26.8375L22.6428 26.9726C22.6808 27.0486 22.7145 27.1669 22.7145 27.2387C22.7145 27.3062 22.7314 27.3654 22.7524 27.3654C22.803 27.3654 22.841 27.1922 22.8831 26.7615C22.9 26.5714 22.9548 26.3222 23.0054 26.2124C23.0518 26.0984 23.094 25.9422 23.094 25.8661C23.094 25.7859 23.115 25.7099 23.1361 25.6972C23.1614 25.6845 23.1783 25.6339 23.1783 25.5874C23.1783 25.5114 23.2036 25.5029 23.4439 25.5156C23.7011 25.5283 23.7053 25.5325 23.718 25.655C23.7264 25.7225 23.7517 25.7986 23.7728 25.8197C23.7939 25.845 23.8107 25.9126 23.8107 25.9717C23.8107 26.0308 23.8276 26.0984 23.8445 26.1195C23.8866 26.166 23.9541 26.4827 24.0216 26.9431C24.0469 27.1162 24.0764 27.302 24.089 27.3569C24.1228 27.5132 24.1902 27.4203 24.1902 27.2176C24.1902 27.1162 24.2113 27.0191 24.2324 27.0064C24.2577 26.9937 24.2746 26.9431 24.2746 26.8966C24.2746 26.8544 24.2872 26.8164 24.3083 26.8164C24.3631 26.8164 24.4432 27.0402 24.4432 27.1922C24.4474 27.2767 24.4727 27.4203 24.5065 27.5132C24.5402 27.6061 24.5697 27.7581 24.5697 27.851C24.5697 27.9693 24.5992 28.058 24.6709 28.1382L24.7721 28.2565L24.8817 28.1636C25.0082 28.0538 25.0588 27.889 25.101 27.4498C25.1263 27.1458 25.1684 27.0275 25.2485 27.0275C25.2696 27.0275 25.2865 27.1035 25.2865 27.1964C25.2865 27.2894 25.3076 27.3654 25.3286 27.3654C25.3539 27.3654 25.3708 27.4667 25.3708 27.5892C25.3708 27.8046 25.4847 28.134 25.5606 28.134C25.6154 28.134 25.666 28.0284 25.666 27.9017C25.666 27.8341 25.6828 27.7497 25.7039 27.7117C25.725 27.6737 25.7545 27.1078 25.7672 26.4574C25.8135 24.2867 25.9316 22.9057 26.0707 22.8592C26.096 22.8508 26.134 22.8846 26.1466 22.9395C26.1846 23.0619 26.2563 23.5814 26.2858 23.9657C26.3069 24.2318 26.3448 24.3204 26.4333 24.3247C26.4502 24.3247 26.4713 23.8812 26.4755 23.3407L26.4882 22.3609L26.7201 22.3144L26.952 22.2722L26.973 21.7232L26.9941 21.1784H27.4158H27.8374L27.829 21.4107C27.829 21.5374 27.8121 21.7485 27.7952 21.8794C27.7657 22.1075 27.7699 22.1202 27.8922 22.2089C27.9639 22.2553 28.0651 22.2975 28.1241 22.2975H28.2253L28.2506 23.1717C28.2759 24.0586 28.3012 24.2824 28.3687 24.2824C28.3897 24.2824 28.4066 24.2191 28.4066 24.1431C28.4066 24.0671 28.4235 23.9868 28.4446 23.9615C28.4656 23.9404 28.4952 23.8179 28.5078 23.6912C28.5668 23.0662 28.6006 22.8846 28.668 22.817C28.7271 22.7579 28.7439 22.7579 28.7566 22.8085C28.765 22.8423 28.7945 22.9352 28.824 23.0197C28.8493 23.0999 28.8704 23.2562 28.8704 23.366C28.8704 23.4716 28.8915 23.5729 28.9126 23.5856C28.9379 23.5983 28.9547 23.6954 28.9547 23.7968C28.9547 23.8981 28.9716 23.991 28.9927 24.0037C29.0306 24.029 29.0517 24.1389 29.1234 24.7048C29.2246 25.5156 29.2457 25.8915 29.2499 26.8121C29.2499 27.8384 29.2836 28.0833 29.4185 28.0833C29.5239 28.0833 29.5788 27.9313 29.6083 27.5765C29.6673 26.829 29.6884 26.7108 29.7727 26.6981C29.8149 26.6897 29.8697 26.7023 29.895 26.7277C29.9582 26.791 30.0088 29.1898 30.0341 33.5101C30.0468 35.6808 30.0679 36.9858 30.0932 37.0111C30.148 37.066 30.148 37.9529 30.0932 37.9867C30.0679 37.9994 30.051 38.0501 30.051 38.0965C30.051 38.1387 30.0341 38.1767 30.0088 38.1767C29.9878 38.1767 29.9667 38.2063 29.9667 38.2401C29.9667 38.2739 29.9498 38.3034 29.9245 38.3034C29.9034 38.3034 29.8823 38.3288 29.8823 38.3583C29.8823 38.3879 29.8486 38.4513 29.8107 38.4977C29.7685 38.5399 29.68 38.654 29.6083 38.7469C29.5408 38.8398 29.4607 38.9411 29.4312 38.9707C29.4017 39.0003 29.3764 39.0425 29.3764 39.0636C29.3764 39.0847 29.3511 39.127 29.3216 39.1565C29.292 39.1861 29.2119 39.2874 29.1445 39.3804C29.0728 39.4733 28.9969 39.5746 28.9674 39.6126C28.9421 39.6464 28.8409 39.7773 28.7439 39.8956C28.6512 40.0181 28.5542 40.1194 28.5331 40.1194C28.5078 40.1194 28.4909 40.149 28.4909 40.1828C28.4909 40.2165 28.4741 40.2461 28.4488 40.2461C28.4277 40.2461 28.4066 40.263 28.4066 40.2883C28.4066 40.339 28.3223 40.4362 28.0187 40.7529C27.8838 40.888 27.7742 41.0147 27.7742 41.0358C27.7742 41.0823 26.3996 42.4717 26.1171 42.7167C26.0075 42.8096 25.8473 42.9532 25.7587 43.0334C25.6702 43.1137 25.5057 43.2572 25.3961 43.3502C25.2823 43.4431 25.1642 43.5444 25.1347 43.5698C25.1052 43.5993 25.0714 43.6247 25.0588 43.6247C25.0462 43.6247 24.9787 43.6838 24.9154 43.7514C24.848 43.8232 24.7763 43.8781 24.7552 43.8781C24.7341 43.8823 24.6245 43.9667 24.5107 44.0681C24.3926 44.1737 24.2788 44.2581 24.2535 44.2581C24.2282 44.2581 24.1818 44.2962 24.1481 44.3468C24.1143 44.3933 24.03 44.4609 23.9668 44.4989C23.8993 44.5327 23.7897 44.6171 23.718 44.6847C23.6463 44.7523 23.5662 44.8072 23.5367 44.8072C23.5114 44.8072 23.4524 44.8409 23.406 44.8832C23.3638 44.9212 23.2373 45.0141 23.1277 45.0817C23.0139 45.1535 22.9253 45.221 22.9253 45.2379C22.9253 45.259 22.9042 45.2717 22.8831 45.2717C22.8368 45.2717 22.394 45.5547 22.3013 45.6391C22.2718 45.6687 22.1748 45.7236 22.0905 45.7658C22.0061 45.8038 21.926 45.8503 21.9134 45.863C21.8796 45.9094 21.3652 46.2008 21.3189 46.2008C21.2978 46.2008 21.2388 46.2388 21.1882 46.2853C21.1376 46.3317 21.0617 46.3697 21.0195 46.3697C20.9773 46.3697 20.9436 46.3824 20.9436 46.4035C20.9436 46.4204 20.9057 46.4542 20.8593 46.4753C20.0244 46.8934 19.3414 47.2313 19.2571 47.2651C19.198 47.2904 19.1179 47.3242 19.08 47.3453C19.0378 47.3664 18.9746 47.3833 18.9408 47.3833C18.9071 47.3833 18.8776 47.4002 18.8776 47.4255C18.8776 47.4467 18.8481 47.4678 18.8143 47.4678C18.7511 47.4678 18.7174 47.4804 18.4644 47.6071C18.3843 47.6451 18.2957 47.6789 18.262 47.6789C18.2283 47.6789 18.203 47.6958 18.203 47.7212C18.203 47.7423 18.1481 47.7634 18.0765 47.7634C18.009 47.7634 17.95 47.7803 17.95 47.8056C17.95 47.8267 17.912 47.8479 17.8656 47.8479C17.8193 47.8479 17.7476 47.8648 17.7054 47.8859C17.6675 47.907 17.5789 47.945 17.5073 47.9746C17.4398 48.0041 17.326 48.0506 17.2543 48.0801C17.1868 48.1139 17.0519 48.1604 16.9591 48.1899C16.8664 48.2153 16.7567 48.2533 16.7188 48.2744C16.6766 48.2955 16.5965 48.3124 16.5375 48.3124C16.4785 48.3124 16.4321 48.3293 16.4321 48.3546C16.4321 48.3758 16.373 48.3969 16.3056 48.3969C16.2339 48.3969 16.1454 48.4138 16.1032 48.4349C16.0653 48.456 15.9177 48.5067 15.7785 48.5447C15.6394 48.5869 15.4918 48.6334 15.4539 48.6545C15.4117 48.6756 15.3316 48.6925 15.2768 48.6925C15.2178 48.6925 15.1587 48.7094 15.1461 48.7347C15.1334 48.7558 15.0449 48.777 14.9563 48.777C14.8678 48.777 14.7793 48.7939 14.7666 48.8192C14.754 48.8403 14.657 48.8614 14.5516 48.8614C14.4504 48.8614 14.3661 48.8783 14.3661 48.9037C14.3661 48.9248 14.307 48.9459 14.2311 48.9459C14.1594 48.9459 14.0414 48.9628 13.9697 48.9839C13.7547 49.0472 13.2656 49.1528 12.9536 49.1951C12.7933 49.2204 12.591 49.25 12.5108 49.2669C12.4307 49.2795 12.241 49.3006 12.0892 49.3133C11.9374 49.326 11.7983 49.3471 11.773 49.3682C11.7519 49.3851 11.5411 49.402 11.3092 49.4062C11.0773 49.4104 10.8707 49.4316 10.8454 49.4485C10.7906 49.4949 9.55515 49.5498 8.63177 49.554C7.77584 49.554 6.48563 49.4949 6.39287 49.4485C6.35492 49.4316 6.1441 49.4104 5.91642 49.4062C5.69295 49.402 5.49899 49.3851 5.48634 49.364C5.4737 49.3429 5.33455 49.326 5.17433 49.326C5.01411 49.326 4.87075 49.3049 4.8581 49.2837C4.84545 49.2584 4.74848 49.2415 4.64728 49.2415C4.48706 49.2415 4.24673 49.1993 3.44561 49.0219C3.3402 49.0008 3.17998 48.9712 3.08722 48.9628C2.99446 48.9501 2.88062 48.9248 2.83424 48.9037C2.74991 48.8656 2.59812 48.8361 2.29454 48.7896C2.21021 48.777 2.12589 48.7516 2.11324 48.7305C2.10059 48.7094 2.03734 48.6925 1.96988 48.6925C1.90242 48.6925 1.83917 48.6756 1.82652 48.6545C1.81387 48.6334 1.7422 48.608 1.6663 48.5954C1.41753 48.5531 1.1266 48.4644 1.1266 48.4307C1.1266 48.4095 1.06757 48.3969 1.00011 48.3969C0.928432 48.3969 0.83989 48.38 0.797726 48.3589C0.759777 48.3378 0.595339 48.2828 0.430899 48.2322C0.165268 48.1477 -0.00338745 48.0801 -0.231073 47.9703C-0.273237 47.9492 -0.344915 47.9323 -0.387079 47.9323C-0.433458 47.9323 -0.484056 47.9154 -0.496704 47.8901C-0.509354 47.869 -0.55995 47.8479 -0.606331 47.8479C-0.648495 47.8479 -0.720173 47.831 -0.762337 47.8099C-0.800285 47.7887 -0.880396 47.7549 -0.939425 47.7338C-0.998455 47.7085 -1.15025 47.6409 -1.27674 47.5776C-1.40323 47.5185 -1.53394 47.4678 -1.55923 47.4678C-1.58875 47.4678 -1.61405 47.4467 -1.61405 47.4255C-1.61405 47.4002 -1.65199 47.3833 -1.69838 47.3833C-1.74475 47.3833 -1.84595 47.3453 -1.93028 47.2988C-2.0146 47.2524 -2.1158 47.2144 -2.15796 47.2144C-2.20434 47.2144 -2.24651 47.2017 -2.25494 47.1806C-2.2718 47.1426 -2.89161 46.8343 -2.95486 46.8343C-2.98437 46.8343 -3.00545 46.8132 -3.00545 46.7921C-3.00545 46.7667 -3.0434 46.7498 -3.08978 46.7498C-3.13616 46.7498 -3.17411 46.7287 -3.17411 46.7076C-3.17411 46.6823 -3.20362 46.6654 -3.24579 46.6654C-3.28374 46.6654 -3.3765 46.6189 -3.45239 46.5598C-3.52829 46.5007 -3.62105 46.4542 -3.65478 46.4542C-3.69273 46.4542 -3.72224 46.4373 -3.72224 46.4204C-3.72224 46.3993 -3.7897 46.3613 -3.86981 46.3275C-3.94992 46.2937 -4.01739 46.2557 -4.01739 46.2346C-4.01739 46.2177 -4.0469 46.2008 -4.08063 46.2008C-4.11858 46.2008 -4.16918 46.1797 -4.19869 46.1586C-4.28302 46.0868 -4.74261 45.8207 -4.78055 45.8207C-4.80163 45.8207 -4.8185 45.8081 -4.8185 45.7869C-4.8185 45.77 -4.88175 45.7278 -4.95342 45.694C-5.02932 45.6645 -5.13051 45.6011 -5.17689 45.5547C-5.22327 45.5124 -5.34976 45.428 -5.45939 45.3688C-5.57323 45.3055 -5.66178 45.2421 -5.66178 45.221C-5.66178 45.2041 -5.69972 45.1872 -5.7461 45.1872C-5.79248 45.1872 -5.83043 45.1746 -5.83043 45.1535C-5.83043 45.1366 -5.91476 45.0648 -6.02017 44.9972C-6.12136 44.9254 -6.20991 44.8578 -6.20991 44.8367C-6.20991 44.8198 -6.2352 44.8072 -6.26472 44.8072C-6.29423 44.8072 -6.35748 44.7734 -6.40386 44.7311C-6.44602 44.6889 -6.5683 44.596 -6.67371 44.52C-6.77912 44.444 -6.93934 44.3257 -7.0321 44.2539C-7.12486 44.1821 -7.24292 44.0934 -7.29773 44.0554C-7.50434 43.9034 -7.61818 43.8105 -7.7784 43.6585C-7.87116 43.5698 -7.95971 43.498 -7.97657 43.498C-7.99344 43.498 -8.11993 43.3882 -8.25907 43.253C-8.39821 43.1221 -8.58795 42.9574 -8.67649 42.8856C-8.87888 42.7378 -10.4432 41.171 -10.5992 40.9641C-10.6624 40.8838 -10.7847 40.7402 -10.8732 40.6473C-10.966 40.5544 -11.0925 40.4024 -11.1642 40.3095C-11.2316 40.2165 -11.3286 40.1025 -11.375 40.0518C-11.4214 40.0054 -11.5057 39.8998 -11.5647 39.8238C-11.6237 39.7436 -11.7123 39.6337 -11.7629 39.5788C-11.8177 39.5197 -11.8599 39.4606 -11.8599 39.4437C-11.8599 39.4268 -11.8936 39.3761 -11.9358 39.3255C-11.9779 39.279 -12.0496 39.1861 -12.096 39.127C-12.1381 39.0636 -12.2267 38.9496 -12.2857 38.8736C-12.3447 38.7933 -12.4755 38.6075 -12.5766 38.4555C-12.6736 38.3034 -12.7706 38.1767 -12.7875 38.1767C-12.8128 38.1767 -12.8676 33.4172 -12.8844 29.8993C-12.8844 29.4559 -12.8507 29.1687 -12.7622 28.8942C-12.7284 28.797 -12.7031 28.6408 -12.7031 28.5563C-12.7031 28.4676 -12.6863 28.3789 -12.6652 28.3536C-12.6399 28.3325 -12.6188 28.1382 -12.6146 27.9186C-12.6062 27.5259 -12.5387 27.2809 -12.4375 27.2809C-12.3785 27.2809 -12.2393 27.9651 -12.2393 28.2311C-12.2393 28.5225 -12.1424 28.7548 -12.0243 28.759C-11.9864 28.759 -11.9442 28.0157 -11.8978 26.4996C-11.8177 23.7757 -11.7502 23.2815 -11.4677 23.4336C-11.3876 23.4758 -11.3623 23.5434 -11.3202 23.8094C-11.2696 24.1304 -11.1979 24.4809 -11.1557 24.6372C-11.1431 24.6794 -11.1178 24.6963 -11.1009 24.6794C-11.0672 24.6414 -11.0461 24.4091 -10.9786 23.3745C-10.9449 22.8508 -10.928 22.7917 -10.7805 22.7283C-10.6835 22.6819 -10.6793 22.665 -10.6793 22.268C-10.6751 21.719 -10.6498 21.6852 -10.245 21.6852C-10.0763 21.6852 -9.89081 21.6978 -9.82756 21.719C-9.72215 21.7443 -9.71794 21.757 -9.75589 21.8837C-9.77697 21.9597 -9.79383 22.1582 -9.79383 22.3229C-9.79383 22.6101 -9.78962 22.6227 -9.64626 22.7452C-9.51977 22.8508 -9.49869 22.893 -9.49869 23.045C-9.49869 23.1464 -9.4776 23.2266 -9.45652 23.2266C-9.43122 23.2266 -9.41436 23.4716 -9.41436 23.877C-9.41436 24.236 -9.40171 24.5569 -9.38906 24.595C-9.30052 24.823 -9.11921 24.3754 -9.11921 23.9319C-9.11921 23.7376 -9.0897 23.5941 -9.02645 23.442C-8.92104 23.2055 -8.86623 23.1675 -8.86623 23.3322C-8.86623 23.3913 -8.84936 23.4716 -8.82828 23.5138C-8.8072 23.5518 -8.76925 23.7545 -8.74395 23.9657C-8.71865 24.1726 -8.67649 24.4767 -8.64698 24.6414C-8.57951 25.0848 -8.52892 25.9802 -8.50362 27.3443C-8.48254 28.5056 -8.45724 28.759 -8.35183 28.759C-8.33496 28.759 -8.3181 28.7295 -8.3181 28.6957C-8.3181 28.6619 -8.30123 28.6323 -8.28437 28.6323C-8.2675 28.6323 -8.21691 28.4085 -8.17474 28.134C-8.13258 27.8637 -8.08198 27.6061 -8.05668 27.5639C-7.985 27.4245 -7.93862 27.4921 -7.93862 27.737C-7.93862 27.8722 -7.92597 27.9988 -7.90911 28.0157C-7.89224 28.0326 -7.87116 28.1593 -7.86695 28.3029C-7.85851 28.5479 -7.78262 28.8013 -7.71516 28.8013C-7.67721 28.8013 -7.51699 28.7126 -7.44952 28.6534C-7.39893 28.6028 -7.35676 28.4592 -7.30617 28.1255C-7.22606 27.6019 -7.20497 27.509 -7.14594 27.416C-7.11221 27.3654 -7.07427 27.3316 -7.06162 27.3443C-7.02367 27.3823 -6.92669 27.6737 -6.92669 27.7539C-6.92669 27.7961 -6.90561 27.8299 -6.88453 27.8299C-6.85923 27.8299 -6.84236 27.7919 -6.84236 27.7497C-6.84236 27.7032 -6.82128 27.6525 -6.8002 27.6399C-6.7749 27.6272 -6.75804 27.4245 -6.75804 27.1753C-6.75804 26.7277 -6.73695 26.5883 -6.66949 26.6305C-6.64841 26.639 -6.5936 26.6305 -6.54722 26.6052C-6.47554 26.5672 -6.46289 26.5165 -6.46289 26.2547C-6.46289 26.0689 -6.44181 25.9253 -6.41229 25.8957C-6.38278 25.8661 -6.27315 25.845 -6.15931 25.845C-5.90633 25.845 -5.85573 25.921 -5.89789 26.2589C-5.92741 26.525 -5.89368 26.5841 -5.70816 26.6136C-5.57323 26.6305 -5.49734 26.8586 -5.54793 27.0951C-5.59431 27.3189 -5.56902 27.8975 -5.5142 27.8848C-5.4889 27.8806 -5.46782 27.8215 -5.45939 27.7581C-5.45096 27.6948 -5.42566 27.623 -5.40458 27.5976C-5.3835 27.5765 -5.36663 27.4836 -5.36663 27.3907C-5.36663 27.2302 -5.36663 27.226 -5.2823 27.302C-5.23592 27.3443 -5.19797 27.4329 -5.19797 27.5005C-5.19797 27.5639 -5.17689 27.6188 -5.15581 27.6188C-5.13051 27.6188 -5.11365 27.6483 -5.11365 27.6821C-5.11365 27.7201 -5.07148 27.8679 -5.02089 28.0115C-4.88175 28.4169 -4.85223 28.6408 -4.83115 29.3925C-4.82272 29.7979 -4.79742 30.1062 -4.7679 30.14C-4.73417 30.1822 -4.19869 30.1949 -2.12001 30.1949H0.485712L0.511011 29.8233C0.565825 29.0842 0.582689 29.004 0.730263 28.7717C0.810373 28.645 0.873619 28.5099 0.873619 28.4634C0.873619 28.4169 0.894701 28.3789 0.915783 28.3789C0.941082 28.3789 0.957947 28.3409 0.957947 28.2945C0.957947 28.2058 1.02541 28.0622 1.11817 27.9651C1.16455 27.9144 1.18142 27.9144 1.24466 27.9651C1.36694 28.058 1.41753 28.1424 1.42175 28.2396C1.42175 28.2945 1.44283 28.3367 1.46391 28.3367C1.48921 28.3367 1.50608 28.362 1.50608 28.3958C1.50608 28.4254 1.57354 28.5817 1.65365 28.7421C1.73376 28.8984 1.80122 29.0631 1.80122 29.1011C1.80122 29.1433 1.82231 29.1898 1.84339 29.2025C1.86869 29.2151 1.88555 29.4136 1.88555 29.6374C1.88977 29.8908 1.90663 30.0724 1.94036 30.1147C1.98675 30.178 2.1301 30.2118 2.56017 30.2667C2.72883 30.2836 2.76256 30.2752 2.86797 30.1738L2.98181 30.0555L2.99024 28.721C3.01976 23.5814 3.01554 23.3745 2.89327 22.8043C2.82581 22.4791 2.83846 22.3187 2.98181 21.7485C3.01133 21.6429 3.04506 21.4529 3.05771 21.3262C3.09987 20.9715 3.19685 20.9968 3.28961 21.3811C3.32755 21.55 3.36129 21.7485 3.36129 21.8161C3.36129 22.0357 3.52151 22.2764 3.61005 22.1877C3.6227 22.1751 3.63114 22.0061 3.6227 21.8161L3.61005 21.4698L3.82509 21.4656C4.04856 21.4613 4.15818 21.3853 4.1624 21.2291C4.1624 21.1615 4.1877 21.0982 4.29311 20.9039C4.3437 20.8152 4.45755 20.566 4.50814 20.4393C4.53344 20.3802 4.56717 20.3 4.58825 20.262C4.63885 20.1606 4.63463 19.903 4.58404 19.8692C4.56296 19.8565 4.54187 19.789 4.54187 19.7214C4.54187 19.6538 4.56296 19.5862 4.58404 19.5736C4.60934 19.5609 4.6262 19.5018 4.6262 19.4427C4.6262 19.3413 4.76956 19.0964 4.95508 18.8852C5.05627 18.7712 5.09 18.7669 5.09 18.8768C5.09 18.9232 5.11109 18.9612 5.13217 18.9612C5.15747 18.9612 5.17433 18.9866 5.17433 19.0203C5.17433 19.0541 5.18698 19.0879 5.20806 19.0964C5.26288 19.1175 5.37672 19.3962 5.40623 19.5736C5.41888 19.6665 5.43996 19.9114 5.45261 20.1226C5.46526 20.3295 5.49056 20.5196 5.51586 20.5449C5.53694 20.566 5.55381 20.6083 5.55381 20.6378C5.55381 20.7012 5.72246 20.9039 5.77306 20.9039C5.78992 20.9039 5.81101 19.5989 5.81944 17.9983C5.83209 15.3293 5.84052 15.0801 5.90798 14.8647C6.01339 14.548 6.06399 14.2397 6.08929 13.7751C6.10615 13.4373 6.1188 13.3866 6.18205 13.3866C6.24529 13.3866 6.26637 13.4288 6.28324 13.5851C6.35492 14.2059 6.41395 14.5269 6.44346 14.4762C6.46455 14.4466 6.48141 14.3706 6.48141 14.303C6.48141 14.2397 6.50249 14.189 6.52357 14.189C6.54887 14.189 6.56574 14.113 6.56574 14.0201C6.56574 13.9272 6.58682 13.8512 6.6079 13.8512C6.6332 13.8512 6.65007 13.7962 6.65007 13.7287C6.65007 13.6569 6.67115 13.5893 6.69223 13.5766C6.71753 13.564 6.73439 13.5091 6.73439 13.4542C6.73439 13.4035 6.74704 13.3444 6.76391 13.3275C6.86089 13.2346 6.9157 12.7785 6.94943 11.8663C6.98738 10.7724 7.02111 10.3543 7.07592 10.3206C7.097 10.3079 7.11387 10.253 7.11387 10.1939C7.11387 10.139 7.13495 10.0925 7.15603 10.0925C7.18133 10.0925 7.1982 10.0629 7.1982 10.0292C7.1982 9.91513 7.26144 9.96159 7.33734 10.1347C7.4048 10.2994 7.49334 10.329 7.49334 10.1939C7.49334 10.1601 7.50599 10.1347 7.52707 10.1347C7.6367 10.1347 7.72524 9.37457 7.61983 9.31122C7.59875 9.29855 7.57767 9.20986 7.57767 9.12117C7.57767 9.03249 7.59875 8.9438 7.61983 8.93113C7.64513 8.91846 7.662 8.86778 7.662 8.82133C7.662 8.72842 7.83909 8.45813 8.01617 8.26809C8.10472 8.17518 8.1258 8.11183 8.1258 7.93868C8.1258 7.82043 8.10893 7.69374 8.08785 7.6515C8.03726 7.55437 7.95715 7.19962 7.95715 7.08137C7.95715 7.02647 8.01196 6.90822 8.07942 6.81531C8.26494 6.56192 8.24386 6.76463 8.37457 3.65214C8.39987 3.09468 8.43781 2.44431 8.45889 2.20358C8.50949 1.72214 8.48841 1.65457 8.18061 1.32938C8.1511 1.2956 8.1258 1.1689 8.1258 1.04643C8.1258 0.877502 8.1511 0.793037 8.22278 0.708572C8.3324 0.56921 8.37878 0.56076 8.37878 0.674789Z" fill="white"/>
<path d="M9.11665 11.2412C9.104 11.3891 9.08292 11.9887 9.07027 12.5715C9.04919 13.5851 9.0534 13.64 9.12508 13.64C9.20098 13.64 9.30639 13.4711 9.30639 13.3444C9.30639 13.3064 9.33168 13.2515 9.3612 13.2219C9.43288 13.1501 9.43288 11.3426 9.35698 11.2666C9.33168 11.2412 9.30639 11.161 9.30639 11.0977C9.30639 11.009 9.2853 10.9794 9.22628 10.9794C9.15881 10.9794 9.14195 11.0216 9.11665 11.2412Z" fill="white"/>
<path d="M8.46311 12.3688C8.46311 13.0867 8.45046 13.7118 8.4336 13.754C8.4083 13.8258 8.4083 13.8258 8.47154 13.7625C8.56852 13.6695 8.67393 13.3993 8.67393 13.2557C8.67393 13.1923 8.69501 13.1248 8.71609 13.1121C8.74139 13.0952 8.75826 12.7658 8.75826 12.2674C8.75826 11.7691 8.74139 11.4397 8.71609 11.4228C8.69501 11.4101 8.67393 11.3552 8.67393 11.3003C8.67393 11.2116 8.56009 11.0638 8.49263 11.0638C8.47576 11.0638 8.46311 11.6509 8.46311 12.3688Z" fill="white"/>
<path d="M7.95718 11.1567C7.95296 11.1652 7.95296 11.6804 7.95296 12.3097C7.94874 13.4373 7.94874 13.4499 8.03729 13.4626C8.12583 13.4753 8.12583 13.471 8.12583 12.3139C8.12583 11.1779 8.12583 11.1483 8.04151 11.1483C7.99512 11.1483 7.95718 11.1525 7.95718 11.1567Z" fill="white"/>
<path d="M7.49335 16.8876C7.49335 16.9088 7.59454 16.9721 7.71681 17.0355C7.93607 17.141 7.97401 17.1453 8.66972 17.1453C9.3612 17.1453 9.40337 17.141 9.60575 17.0397C9.7196 16.9806 9.80392 16.913 9.79127 16.8919C9.75754 16.837 7.49335 16.837 7.49335 16.8876Z" fill="white"/>
<path d="M9.42445 17.3268C9.40336 17.3691 9.39071 17.5633 9.39071 17.7576C9.39071 17.9519 9.37385 18.125 9.34855 18.1377C9.32325 18.1546 9.30639 18.6783 9.30639 19.5778V20.9883H9.44974C9.57624 20.9883 9.59732 20.9714 9.62262 20.849C9.67743 20.6209 9.69429 19.1217 9.6437 19.071C9.62262 19.0499 9.60153 18.8387 9.60153 18.5938C9.60153 18.3531 9.57202 18.0194 9.53829 17.8505C9.50456 17.6816 9.47504 17.4789 9.46661 17.3986C9.45818 17.2846 9.44553 17.2677 9.42445 17.3268Z" fill="white"/>
<path d="M8.1258 19.4469C8.1258 20.5872 8.13845 21.1995 8.16796 21.1995C8.19326 21.1995 8.21013 21.1826 8.21013 21.1657C8.21013 21.1446 8.24386 21.0939 8.28602 21.0475C8.47154 20.8406 8.56852 19.3371 8.44203 18.4967C8.40408 18.2306 8.35349 17.9941 8.3324 17.9688C8.31132 17.9477 8.29446 17.9054 8.29446 17.8716C8.29446 17.8167 8.19748 17.6943 8.1511 17.6943C8.13845 17.6943 8.1258 18.484 8.1258 19.4469Z" fill="white"/>
<path d="M8.74983 17.7872C8.74139 17.8167 8.73296 18.5431 8.73718 19.4046L8.74561 20.9672H8.88897H9.03232L9.04497 20.5027C9.04919 20.2493 9.07449 20.0212 9.09557 20.0001C9.15038 19.9452 9.15038 18.7374 9.09557 18.6825C9.07449 18.6614 9.04919 18.446 9.04497 18.201L9.03232 17.7576L8.90162 17.7449C8.8215 17.7365 8.76248 17.7534 8.74983 17.7872Z" fill="white"/>
<path d="M7.62827 17.8294C7.59032 17.8674 7.57767 18.2813 7.57767 19.4342V20.9883H7.70416H7.83065V19.3835C7.83065 17.8674 7.82644 17.7787 7.75476 17.7787C7.7126 17.7787 7.65778 17.7998 7.62827 17.8294Z" fill="white"/>
<path d="M6.80607 21.6556C6.73018 21.6725 6.70909 21.7696 6.77234 21.8077C6.79342 21.8203 6.90305 21.833 7.01267 21.8372C7.12652 21.8414 7.24458 21.8626 7.27409 21.8879C7.3542 21.9512 10.1792 21.947 10.2424 21.8837C10.2719 21.8541 10.3352 21.833 10.39 21.833C10.5713 21.833 10.487 21.7654 10.2466 21.7147C10.0274 21.6683 7.00846 21.6176 6.80607 21.6556Z" fill="white"/>
<path d="M4.17927 23.4505C4.13289 23.4758 4.07386 23.5434 4.04856 23.6025C4.01483 23.6785 3.99375 24.8737 3.97688 27.3443C3.96423 29.3418 3.93893 32.3318 3.92628 33.9831L3.89677 36.9943H3.6733C3.55103 36.9943 3.43718 37.0111 3.42453 37.0365C3.40767 37.0618 3.12517 37.0787 2.71618 37.0787C2.34092 37.0787 2.00783 37.0956 1.97831 37.1167C1.94037 37.1378 1.93193 37.197 1.9488 37.2983L1.97831 37.4461L2.38309 37.501C3.01976 37.5855 4.63885 37.5095 4.68523 37.3912C4.7021 37.349 4.7274 23.9235 4.71053 23.5392C4.70632 23.4209 4.35636 23.3618 4.17927 23.4505Z" fill="white"/>
<path d="M5.46948 23.4251C5.46948 23.4462 5.45683 24.4556 5.44418 25.6761C5.42731 26.8966 5.43153 29.8275 5.4484 32.1882C5.47791 36.1285 5.48634 36.479 5.54959 36.4537C5.63392 36.4199 5.76462 36.2932 5.8616 36.1369C5.93328 36.0271 5.9375 35.7188 5.92063 29.9077C5.90377 23.0661 5.92063 23.3955 5.6297 23.3955C5.54116 23.3955 5.46948 23.4082 5.46948 23.4251Z" fill="white"/>
<path d="M11.482 24.4387C11.423 27.3316 11.3809 32.788 11.3977 34.397C11.423 36.1243 11.4272 36.2172 11.5031 36.289C11.617 36.3946 11.7224 36.365 11.773 36.213C11.7941 36.1412 11.8278 36.0778 11.8404 36.0652C11.9079 36.0145 11.9669 30.6764 11.9248 28.8646C11.8995 27.8637 11.8784 26.3265 11.8784 25.4438C11.8784 24.3289 11.8615 23.7757 11.8278 23.6194C11.7772 23.404 11.7688 23.3956 11.638 23.3956H11.5031L11.482 24.4387Z" fill="white"/>
<path d="M12.5825 23.5434C12.5151 23.6828 12.5108 24.1684 12.5108 30.3301C12.5108 33.9789 12.4982 36.9563 12.4855 36.9394C12.4729 36.9267 12.456 36.8507 12.4476 36.7704C12.4392 36.6902 12.4096 36.5846 12.3759 36.5339C12.3211 36.4452 12.3085 36.441 11.0225 36.4495C10.3057 36.4495 9.71116 36.441 9.6943 36.4241C9.68165 36.4115 9.68586 36.3861 9.70694 36.3692C9.78284 36.3143 10.234 35.6977 10.234 35.6471C10.234 35.6217 10.2509 35.6006 10.2719 35.6006C10.2888 35.6006 10.3183 35.5204 10.331 35.419C10.3436 35.3177 10.3689 35.2079 10.3816 35.1698C10.3984 35.1318 10.3816 35.0938 10.3394 35.0769C10.2677 35.0516 9.86717 35.1614 9.79127 35.2247C9.77019 35.2459 9.71959 35.2628 9.67743 35.2628C9.63527 35.2628 9.56359 35.2839 9.52142 35.3134C9.37807 35.4021 8.93535 35.2079 8.71188 34.9587C8.63598 34.8742 8.31132 34.8531 8.1764 34.9207C8.13845 34.9418 8.05412 34.9798 7.99088 35.0094C7.93185 35.0389 7.818 35.1192 7.74633 35.1867C7.63248 35.2881 7.5861 35.305 7.47648 35.2796C7.4048 35.267 7.3289 35.2374 7.30361 35.2163C7.28252 35.1952 7.23614 35.1783 7.1982 35.1783C7.16446 35.1783 7.08014 35.1487 7.01267 35.1149C6.78077 34.9925 6.73439 35.022 6.73439 35.305C6.73439 35.5668 6.85245 35.8456 7.04641 36.044C7.18133 36.1834 7.36685 36.3988 7.36685 36.4199C7.36685 36.4833 6.56995 36.5255 5.31347 36.5297C4.98881 36.5297 4.9593 36.5382 4.89605 36.6353C4.78642 36.8 4.77377 37.0492 4.86232 37.2645C4.92556 37.4208 4.97616 37.4673 5.14482 37.5433C5.36407 37.6446 5.51164 37.6446 6.10194 37.5391C6.27481 37.5095 6.52357 37.4842 6.65007 37.4842C6.90727 37.4884 7.5608 37.5644 7.66621 37.6066C7.75897 37.6404 8.25229 37.5517 8.31132 37.4884C8.383 37.4081 8.49684 37.1547 8.52214 37.0154C8.59804 36.5719 8.66971 36.4199 8.77512 36.4579C8.81307 36.4748 8.84259 36.517 8.84259 36.5593C8.84259 36.6015 8.89318 36.7282 8.948 36.8464C9.00702 36.9605 9.0534 37.0914 9.0534 37.1294C9.0534 37.1674 9.07449 37.2139 9.09557 37.2265C9.12087 37.2392 9.13773 37.2899 9.13773 37.3363C9.13773 37.3828 9.17146 37.4546 9.20941 37.4926C9.27266 37.5559 9.4118 37.5644 10.6093 37.5517C11.3766 37.5433 12.0344 37.5179 12.1651 37.4926C12.3717 37.4461 12.3886 37.4377 12.4349 37.273L12.4898 37.0998L12.5193 37.2899C12.5361 37.3912 12.5741 37.4884 12.6036 37.5095C12.6626 37.5475 14.1552 37.5222 14.5263 37.4799C14.6443 37.463 14.7455 37.4335 14.7455 37.4124C14.7455 37.3912 14.7793 37.3743 14.8214 37.3743C14.9057 37.3743 15.0744 37.2477 15.0913 37.1716C15.0997 37.1252 14.931 37.1125 14.2396 37.1083L13.3752 37.0998L13.3541 30.2583L13.333 23.4167L12.9957 23.404L12.6542 23.3914L12.5825 23.5434Z" fill="white"/>
<path d="M8.95221 23.6997C8.91848 23.8095 8.8974 29.9964 8.9227 32.3488L8.94799 34.7771L9.08713 34.7898L9.22206 34.8024V29.2278V23.649H9.09557C9.02389 23.649 8.96064 23.6743 8.95221 23.6997Z" fill="white"/>
<path d="M7.65357 23.763C7.58189 23.7799 7.57767 24.0755 7.57767 29.2067C7.57767 33.5143 7.59032 34.6293 7.63248 34.6293C7.65778 34.6293 7.72524 34.6419 7.78006 34.6546L7.87282 34.6799L7.86439 29.2193C7.85174 23.3364 7.86439 23.7038 7.65357 23.763Z" fill="white"/>
<path d="M0.776607 31.597C0.67963 31.787 0.658548 31.9095 0.620601 32.4163C0.561571 33.2483 0.565788 41.2681 0.624817 41.5637C0.688063 41.8678 0.763958 41.9776 0.911531 41.9776C1.02116 41.9776 1.03381 41.9607 1.07597 41.7538C1.12657 41.5173 1.21511 36.3185 1.21089 33.5946C1.21089 32.032 1.1856 31.7786 1.04224 31.6181C0.995859 31.5717 0.957912 31.4956 0.957912 31.4534C0.957912 31.3183 0.890449 31.3732 0.776607 31.597Z" fill="white"/>
<path d="M16.002 31.4914C15.9303 31.5083 15.9261 31.6604 15.9261 33.9536C15.9261 35.5373 15.9092 36.4072 15.8839 36.4241C15.8249 36.4579 15.8291 40.3475 15.8882 40.9472C15.9261 41.3695 15.9388 41.4159 16.0442 41.5004C16.1074 41.5553 16.1749 41.5975 16.1917 41.5975C16.2381 41.5975 16.373 41.4624 16.4279 41.3568C16.4616 41.2892 16.4742 39.9589 16.4742 36.4495C16.4742 31.9518 16.47 31.6266 16.4026 31.5463C16.3309 31.4661 16.1791 31.445 16.002 31.4914Z" fill="white"/>
<path d="M9.3612 37.8262C9.20519 37.8473 9.12508 37.9276 9.16303 38.0247C9.18411 38.0838 9.31482 38.0923 10.1665 38.1007L11.1405 38.1134L11.1363 38.219C11.1321 38.2781 11.0984 38.6202 11.0562 38.9792C10.9592 39.8322 10.9297 40.66 10.9887 40.9598C11.014 41.0907 11.0435 41.2892 11.0562 41.4033C11.0731 41.5173 11.0984 41.644 11.1236 41.6862C11.1447 41.7284 11.1616 41.8214 11.1616 41.8932C11.1616 41.9692 11.1785 42.0156 11.2038 41.9987C11.2291 41.9861 11.2459 41.8805 11.2459 41.7665C11.2459 41.6524 11.2628 41.5511 11.2797 41.5384C11.326 41.5131 11.3893 40.5966 11.3893 40.0349C11.3893 39.4733 11.326 38.5568 11.2797 38.5315C11.2628 38.5188 11.2459 38.4175 11.2459 38.2992V38.0923H13.0801H14.9142V37.9698C14.9142 37.8558 14.9015 37.8473 14.6949 37.822C14.4588 37.7967 9.58889 37.7967 9.3612 37.8262Z" fill="white"/>
<path d="M2.34935 37.9656V38.0923H5.23758H8.1258V37.9656V37.8389H5.23758H2.34935V37.9656Z" fill="white"/>
<path d="M3.69016 38.3245C3.67751 38.3414 3.3908 38.371 3.0577 38.3921C2.72883 38.4132 2.34514 38.4428 2.21443 38.4554L1.96988 38.4808V40.2503C1.96988 41.2259 1.98253 42.0198 2.00361 42.0198C2.02047 42.0198 2.06264 41.9565 2.10059 41.8847C2.13432 41.8129 2.20178 41.7326 2.24394 41.7073C2.28611 41.682 2.36622 41.6186 2.42103 41.5679C2.51379 41.475 2.51801 41.4539 2.51801 40.6642C2.51801 39.8871 2.56017 39.4775 2.66136 39.2198C2.68666 39.1565 2.72461 39.1058 2.74991 39.1058C2.79207 39.1058 2.91435 39.2832 3.02397 39.507C3.10408 39.6675 3.17155 39.7393 3.24744 39.7393C3.37393 39.7393 3.4414 39.9969 3.46669 40.6051C3.49621 41.4075 3.53416 41.7664 3.57632 41.7664C3.5974 41.7664 3.61427 41.796 3.61427 41.8298C3.61427 41.8636 3.63113 41.8931 3.65221 41.8931C3.6733 41.8931 3.69859 41.9311 3.71124 41.9776C3.74497 42.1085 3.84617 42.0789 3.96844 41.8931C4.07385 41.7284 4.07807 41.7115 4.07807 41.0485C4.07807 40.339 4.1371 40.1278 4.17926 40.698C4.25937 41.8256 4.28889 41.948 4.49549 41.9945C4.55452 42.0029 4.65993 42.0283 4.72318 42.0452C4.79064 42.0621 4.91291 42.0494 5.00567 42.0198C5.23336 41.9438 5.24601 41.8593 5.21228 40.774C5.19541 40.263 5.17855 39.5408 5.17855 39.1649L5.17433 38.485L5.06892 38.4386C4.89183 38.3583 4.52079 38.3752 4.35213 38.4723C4.16661 38.5779 4.13288 38.5779 4.09915 38.4766C4.0865 38.4343 4.03169 38.3879 3.98109 38.3752C3.9305 38.3625 3.85038 38.3414 3.804 38.3245C3.75762 38.3119 3.70703 38.3119 3.69016 38.3245Z" fill="white"/>
<path d="M5.97544 38.6286C5.89533 39.0763 5.89533 41.4666 5.97544 41.8171C6.00496 41.9523 6.03869 42.0621 6.05134 42.0621C6.0935 42.0621 6.18205 41.91 6.18626 41.8382C6.18626 41.8002 6.20735 41.7664 6.22843 41.7664C6.25373 41.7664 6.27059 41.7031 6.27059 41.6271C6.27059 41.5553 6.28746 41.4244 6.30854 41.3441C6.43081 40.888 6.35914 38.5568 6.22421 38.5568C6.20313 38.5568 6.18626 38.5273 6.18626 38.4935C6.18626 38.4597 6.1694 38.4301 6.1441 38.4301C6.12302 38.4301 6.10194 38.4006 6.10194 38.3668C6.10194 38.333 6.08507 38.3034 6.06821 38.3034C6.05134 38.3034 6.00918 38.4512 5.97544 38.6286Z" fill="white"/>
<path d="M12.2241 38.3964C12.0555 38.7469 12.0513 41.2006 12.2199 41.5215C12.241 41.5638 12.2579 41.6271 12.2579 41.6609C12.2579 41.7285 12.2958 41.7411 12.3675 41.6905C12.4434 41.644 12.4729 41.3104 12.4982 40.2039C12.5193 39.1988 12.4645 38.4302 12.3759 38.4302C12.3591 38.4302 12.3422 38.4006 12.3422 38.3668C12.3422 38.2739 12.2789 38.2908 12.2241 38.3964Z" fill="white"/>
<path d="M6.99159 38.5991C6.96208 38.73 6.94521 39.3677 6.94521 40.2504C6.94521 41.5004 6.95364 41.6989 7.01267 41.7876L7.08014 41.8932H7.96136C8.69923 41.8932 8.86367 41.8805 8.99016 41.8214C9.10822 41.7665 9.13773 41.7285 9.13773 41.6314C9.13773 41.5173 9.1293 41.5131 8.94378 41.5131C8.83837 41.5131 8.66128 41.4835 8.54744 41.4455C8.34927 41.3822 8.34505 41.378 8.38721 41.2555C8.4083 41.1879 8.44624 41.133 8.47154 41.133C8.49262 41.133 8.49684 41.1119 8.48419 41.0908C8.47154 41.0654 8.41251 41.0485 8.3577 41.0485C8.30289 41.0485 8.24386 41.0274 8.23121 41.0063C8.21856 40.981 8.13002 40.9641 8.04147 40.9641C7.91076 40.9641 7.84752 40.9936 7.71681 41.1246C7.44696 41.3906 7.43853 41.3949 7.31204 41.285C7.21506 41.2006 7.19819 41.1541 7.19819 40.9725C7.19819 40.8543 7.21928 40.7445 7.24036 40.7318C7.26566 40.7149 7.28252 40.2799 7.28252 39.5662C7.28252 38.616 7.27409 38.4302 7.22349 38.4302C7.18976 38.4302 7.13495 38.4175 7.10122 38.4048C7.05484 38.3879 7.02532 38.4344 6.99159 38.5991Z" fill="white"/>
<path d="M7.88125 38.4386C7.84752 38.4723 7.83065 38.6328 7.83065 38.8778C7.83065 39.0932 7.81379 39.2832 7.78849 39.2959C7.76319 39.3128 7.74633 39.5281 7.74633 39.8027C7.74633 40.0772 7.76319 40.2925 7.78849 40.3094C7.81379 40.3221 7.83065 40.4277 7.83065 40.5459C7.83065 40.7486 7.83487 40.7529 7.96136 40.7529C8.17218 40.7529 8.19748 40.6895 8.22699 40.1152C8.23964 39.828 8.26494 39.3677 8.27759 39.0974C8.30289 38.6075 8.30289 38.6033 8.19748 38.4977C8.07942 38.3794 7.96136 38.3583 7.88125 38.4386Z" fill="white"/>
<path d="M9.24314 38.485C9.10822 38.6286 9.04076 38.7933 9.07027 38.9031C9.08714 38.958 9.11665 39.2832 9.13773 39.6337C9.16303 39.98 9.19255 40.377 9.20519 40.5079L9.23049 40.7529H9.39072H9.54672L9.57202 40.4657C9.58889 40.3094 9.60153 39.8111 9.60153 39.3592C9.60153 38.5821 9.59732 38.5272 9.51721 38.4597C9.40758 38.3668 9.34855 38.371 9.24314 38.485Z" fill="white"/>
<path d="M12.7132 40.0181C12.7259 41.7749 12.7259 41.7665 12.9451 41.7665C13.0716 41.7665 13.0758 41.7411 13.1433 40.6684C13.1686 40.2841 13.2065 39.9632 13.2318 39.959C13.2529 39.9505 13.2698 39.8914 13.2698 39.8238C13.2698 39.7562 13.2993 39.6971 13.3373 39.6802C13.4342 39.6422 13.4384 39.6464 13.4384 39.7774C13.4384 39.9463 13.4975 39.9716 13.5692 39.8323C13.5987 39.7689 13.6703 39.6464 13.7209 39.562C13.7758 39.4733 13.8179 39.3762 13.8179 39.3381C13.8179 39.3044 13.839 39.2748 13.8601 39.2748C13.8854 39.2748 13.9022 39.2368 13.9022 39.1903C13.9022 39.1439 13.9233 39.1059 13.9444 39.1059C13.9697 39.1059 13.9866 39.0679 13.9866 39.0214C13.9866 38.8651 14.1257 38.9623 14.2269 39.1903C14.3492 39.4775 14.3661 39.5577 14.3661 39.8872C14.3661 40.0856 14.3829 40.2461 14.404 40.2461C14.4209 40.2461 14.4419 40.3897 14.4462 40.5671C14.4504 40.7445 14.4715 40.9261 14.4925 40.9683C14.5178 41.0105 14.5347 41.133 14.5347 41.247C14.5347 41.4117 14.5558 41.4751 14.6528 41.5764C14.7666 41.7074 14.9142 41.7285 14.9142 41.6144C14.9142 41.5807 14.9353 41.5553 14.9563 41.5553C14.9816 41.5553 14.9985 40.9979 14.9985 39.9716V38.3879H13.8517H12.7006L12.7132 40.0181Z" fill="white"/>
<path d="M10.1286 38.4808C10.1159 38.5104 10.1117 39.1818 10.1159 39.9716L10.1286 41.4075H10.234H10.3394V39.9294V38.4512L10.2424 38.4386C10.1918 38.4301 10.1412 38.4512 10.1286 38.4808Z" fill="white"/>
</g>
<defs>
<clipPath id="clip0_1180_644">
<rect width="17" height="42" fill="white"/>
</clipPath>
</defs>
</svg>
