<svg width="257" height="209" viewBox="0 0 257 209" fill="none" xmlns="http://www.w3.org/2000/svg">
<path d="M120.327 0.199207C120.327 0.31874 119.311 0.398429 117.656 0.398429C116.082 0.398429 114.925 0.478118 114.846 0.597651C114.786 0.697262 114.208 0.796872 113.59 0.796872C112.593 0.796872 110.799 1.03594 107.55 1.59376C106.952 1.71329 106.175 1.79298 105.856 1.79298C105.517 1.79298 105.178 1.87267 105.058 1.97228C104.959 2.07189 104.48 2.21135 103.982 2.27111C101.67 2.55002 101.271 2.62971 100.892 2.78909C100.673 2.8887 100.175 3.00823 99.796 3.08792C98.2412 3.34691 97.2445 3.56606 96.208 3.90473C95.61 4.08403 94.8127 4.28325 94.4738 4.3231C94.115 4.38286 93.816 4.5024 93.816 4.60201C93.816 4.70162 93.4572 4.78131 93.0386 4.78131C92.6001 4.78131 92.1815 4.861 92.1217 4.98053C92.0619 5.08014 91.8227 5.17975 91.6034 5.17975C91.4041 5.17975 91.0652 5.25944 90.8659 5.35905C90.4473 5.55827 89.3509 5.89695 88.4938 6.07625C88.135 6.15594 87.7961 6.29539 87.7363 6.395C87.6566 6.49462 87.3975 6.5743 87.1184 6.5743C86.8593 6.5743 86.64 6.65399 86.64 6.77353C86.64 6.87314 86.4207 6.97275 86.1417 6.97275C85.8626 6.97275 85.444 7.07236 85.1849 7.21181C84.248 7.68995 84.0487 7.76963 83.7497 7.76963C83.5902 7.76963 83.2912 7.84932 83.0919 7.94893C82.3543 8.34738 80.2215 9.16419 79.9424 9.16419C79.7829 9.16419 79.6633 9.24388 79.6633 9.36341C79.6633 9.46302 79.4441 9.56263 79.165 9.56263C78.8859 9.56263 78.6667 9.64232 78.6667 9.76185C78.6667 9.86146 78.4474 9.96107 78.1883 9.96107C77.9092 9.96107 77.6301 10.0408 77.5703 10.1603C77.5105 10.2599 77.2713 10.3595 77.0521 10.3595C76.8527 10.3595 76.6733 10.4392 76.6733 10.5587C76.6733 10.6584 76.5537 10.758 76.4341 10.758C76.2946 10.758 75.7365 10.9771 75.1783 11.256C74.6401 11.515 73.8827 11.8537 73.5438 11.9931C73.185 12.1326 72.886 12.3119 72.886 12.3916C72.886 12.4912 72.6667 12.551 72.3877 12.551C72.1086 12.551 71.8893 12.6107 71.8893 12.6904C71.8893 12.79 71.3113 13.1088 70.5937 13.4475C69.8761 13.7662 69.298 14.1049 69.298 14.1846C69.298 14.2842 69.1585 14.344 68.999 14.344C68.7199 14.344 68.3213 14.5432 66.2083 15.7784C65.6701 16.0971 65.0522 16.4159 64.8728 16.4756C64.6735 16.5354 64.514 16.6549 64.514 16.7545C64.514 16.8541 64.3346 16.9338 64.1153 16.9338C63.8961 16.9338 63.7167 17.0135 63.7167 17.1331C63.7167 17.2327 63.5771 17.3323 63.4177 17.3323C63.2582 17.3323 63.1187 17.412 63.1187 17.5315C63.1187 17.6311 63.019 17.7307 62.9193 17.7307C62.7997 17.7307 62.2017 18.0495 61.6037 18.428C61.0057 18.8065 60.4277 19.1253 60.328 19.1253C60.2084 19.1253 60.1287 19.205 60.1287 19.2847C60.1287 19.3843 59.6303 19.7229 59.0323 20.0218C58.4343 20.3405 57.936 20.6593 57.936 20.739C57.936 20.8187 57.7765 20.9382 57.5573 21.0179C57.3579 21.0776 56.9393 21.3566 56.6204 21.6155C56.3015 21.8945 55.9626 22.1136 55.843 22.1136C55.7433 22.1136 55.3845 22.3527 55.0457 22.6316C54.3281 23.2691 52.8331 24.305 52.6537 24.305C52.5939 24.305 52.255 24.564 51.8962 24.9027C51.5374 25.2215 51.1985 25.5004 51.1188 25.5004C51.0391 25.5004 50.76 25.7195 50.4809 25.9984C50.2019 26.2773 49.8829 26.4965 49.7633 26.4965C49.6637 26.4965 49.564 26.5762 49.564 26.6957C49.564 26.7953 49.4643 26.8949 49.3447 26.8949C49.2052 26.8949 48.966 27.0543 48.7866 27.2535C48.6072 27.4328 48.1089 27.8711 47.6703 28.1899C47.2318 28.5086 46.7733 28.8672 46.6537 28.9868C46.5142 29.0864 45.9959 29.5446 45.4777 29.9829C44.9395 30.4212 44.3215 30.979 44.0624 31.218C43.8033 31.477 43.5441 31.6762 43.4843 31.6762C43.4046 31.6762 42.7667 32.254 42.0691 32.9712C41.3515 33.6884 40.6538 34.2661 40.4943 34.2661C40.3349 34.2661 40.1953 34.3458 40.1953 34.4255C40.1953 34.5251 39.7767 35.0033 39.2784 35.4814C37.4844 37.1947 34.315 40.4619 34.1356 40.8006C34.0359 40.9799 33.3781 41.717 32.6605 42.4342C31.1456 43.9682 29.83 45.5022 29.83 45.7612C29.83 45.8409 29.5908 46.0999 29.3117 46.319C29.0327 46.5382 28.5144 47.1159 28.1755 47.614C27.8367 48.112 27.3383 48.7097 27.0991 48.9687C26.84 49.2277 26.6407 49.5066 26.6407 49.5863C26.6407 49.666 26.3815 50.0246 26.0427 50.3633C25.7237 50.7219 25.4447 51.0605 25.4447 51.1402C25.4447 51.2398 25.1656 51.6183 24.8267 51.9969C24.5078 52.3754 24.0892 52.9332 23.8899 53.232C23.7105 53.5508 23.4912 53.7899 23.4115 53.7899C23.3317 53.7899 23.252 53.8895 23.252 54.0289C23.252 54.1485 23.0128 54.5668 22.6939 54.9653C21.6573 56.32 21.2786 56.8778 20.9397 57.5153C20.7603 57.8739 20.5411 58.1727 20.4414 58.1727C20.3417 58.1727 20.262 58.352 20.262 58.5712C20.262 58.7903 20.1823 58.9696 20.1025 58.9696C20.0029 58.9696 19.7836 59.2884 19.6042 59.6669C19.4248 60.0454 19.1856 60.3642 19.0859 60.3642C18.9863 60.3642 18.8667 60.5236 18.8069 60.7029C18.7271 60.9021 18.4082 61.4997 18.0693 62.0576C17.7305 62.5955 17.4115 63.2131 17.3318 63.3924C17.272 63.5916 17.1524 63.751 17.0727 63.751C16.973 63.751 16.8335 63.9502 16.7537 64.1892C16.674 64.4482 16.5743 64.6873 16.4946 64.7471C16.4348 64.8068 16.0959 65.3846 15.7571 66.042C14.3418 68.7913 13.983 69.4288 13.8435 69.4885C13.7438 69.5284 13.684 69.7276 13.684 69.9468C13.684 70.146 13.6043 70.3253 13.4847 70.3253C13.385 70.3253 13.2853 70.4448 13.2853 70.5843C13.2853 70.7038 12.8867 71.6401 12.3883 72.6163C11.89 73.6124 11.4913 74.5289 11.4913 74.6484C11.4913 74.7878 11.4116 74.9074 11.292 74.9074C11.1923 74.9074 11.0927 75.0867 11.0927 75.3058C11.0927 75.525 11.0129 75.7043 10.8933 75.7043C10.7937 75.7043 10.694 75.8836 10.694 76.0828C10.694 76.4215 10.395 77.1387 9.57773 78.7324C9.41826 79.0113 9.29866 79.3899 9.29866 79.5692C9.29866 79.7485 9.21893 79.8879 9.09933 79.8879C8.99966 79.8879 8.9 80.0672 8.9 80.2864C8.9 80.6848 8.82026 80.8641 8.34186 81.8204C8.20233 82.0794 8.10266 82.418 8.10266 82.5774C8.10266 82.7368 8.02293 83.0356 7.92326 83.2348C7.8236 83.4141 7.50466 84.1911 7.20566 84.9681C6.90666 85.7251 6.58773 86.522 6.48806 86.7013C6.3884 86.9005 6.30866 87.279 6.30866 87.538C6.30866 87.8169 6.22893 88.0959 6.10933 88.1556C6.00966 88.2154 5.91 88.5939 5.91 88.9724C5.91 89.351 5.83026 89.6498 5.71066 89.6498C5.611 89.6498 5.51133 89.9088 5.51133 90.2076C5.51133 90.5264 5.45153 90.8451 5.3718 90.9049C5.15253 91.144 4.51467 93.0963 4.51467 93.5745C4.51467 93.8135 4.43493 94.0725 4.31533 94.1323C4.21567 94.192 4.116 94.5108 4.116 94.8296C4.116 95.1483 4.03627 95.4471 3.9366 95.5069C3.83693 95.5667 3.71733 95.9054 3.65753 96.264C3.47813 97.2202 3.17913 98.7741 2.92 99.9097C2.8004 100.448 2.64093 101.304 2.58113 101.802C2.52133 102.3 2.40173 102.798 2.30207 102.898C2.10273 103.157 1.724 105.109 1.58447 106.584C1.52467 107.181 1.40507 107.759 1.3054 107.859C1.20573 107.978 1.126 108.656 1.126 109.393C1.126 110.13 1.04627 110.807 0.926665 110.867C0.826999 110.927 0.727332 111.644 0.727332 112.421C0.727332 113.218 0.647599 114.174 0.547932 114.553C-0.0899346 116.963 -0.169668 139.694 0.468199 141.447C0.527999 141.607 0.647599 142.543 0.747265 143.539C0.846932 144.515 1.02633 145.95 1.14593 146.727C1.2456 147.484 1.38513 148.619 1.44493 149.217C1.50473 149.815 1.64427 150.393 1.74393 150.492C1.8436 150.612 1.92333 151.07 1.92333 151.548C1.92333 152.006 2.04293 152.743 2.2024 153.142C2.36187 153.56 2.58113 154.576 2.72067 155.393C2.84027 156.21 3.0396 157.047 3.13927 157.226C3.23893 157.425 3.31867 157.843 3.31867 158.162C3.31867 158.501 3.3984 158.8 3.49807 158.859C3.59773 158.919 3.71733 159.318 3.77713 159.716C3.9366 160.971 5.09273 164.995 5.3718 165.274C5.45153 165.354 5.51133 165.713 5.51133 166.091C5.51133 166.45 5.611 166.749 5.71066 166.749C5.83026 166.749 5.91 167.008 5.91 167.326C5.91 167.665 6.00966 167.984 6.10933 168.044C6.22893 168.103 6.30866 168.342 6.30866 168.562C6.30866 168.761 6.3884 169.099 6.508 169.299C6.60766 169.478 6.82693 170.036 6.9864 170.534C7.5246 172.148 7.8236 172.924 7.96313 173.044C8.04286 173.124 8.10266 173.363 8.10266 173.562C8.10266 173.761 8.1824 174.08 8.28206 174.279C8.38173 174.459 8.56113 174.857 8.68073 175.156C9.29866 176.67 9.77706 177.825 10.2953 179.001C10.5545 179.539 10.8136 180.176 10.8933 180.395C10.9731 180.614 11.5511 181.83 12.1691 183.085C12.787 184.34 13.2853 185.495 13.2853 185.615C13.2853 185.754 13.385 185.874 13.4847 185.874C13.6043 185.874 13.684 186.053 13.684 186.252C13.684 186.472 13.7438 186.671 13.8435 186.711C13.9232 186.731 14.2421 187.268 14.5611 187.866C15.5179 189.679 16.1956 190.914 16.6541 191.651C16.8933 192.03 17.1325 192.508 17.1923 192.687C17.272 192.887 17.3717 193.046 17.4514 193.046C17.5311 193.046 17.7105 193.365 17.87 193.743C18.0295 194.122 18.2089 194.44 18.3085 194.44C18.3883 194.44 18.468 194.54 18.468 194.66C18.468 194.799 18.7869 195.337 19.1657 195.855C19.5444 196.393 19.8633 196.931 19.8633 197.03C19.8633 197.15 20.0427 197.429 20.262 197.668C20.4813 197.907 20.6607 198.226 20.6607 198.365C20.6607 198.505 20.7404 198.624 20.8201 198.624C20.9198 198.624 21.159 198.943 21.3783 199.321C21.5776 199.7 21.7969 200.019 21.8766 200.019C21.9563 200.019 22.1158 200.278 22.2553 200.616C22.3949 200.955 22.5743 201.214 22.6739 201.214C22.7736 201.214 22.8533 201.353 22.8533 201.513C22.8533 201.672 22.9331 201.812 23.0128 201.812C23.1125 201.812 23.3118 202.051 23.4713 202.35C23.7304 202.868 24.2287 203.525 24.7869 204.123C24.9264 204.262 25.046 204.461 25.046 204.581C25.046 204.7 25.1257 204.8 25.2055 204.8C25.3051 204.8 25.5045 205.039 25.6639 205.338C25.8234 205.657 26.0825 206.035 26.242 206.195C26.4214 206.354 26.8201 206.852 27.139 207.29C27.4779 207.729 27.8765 208.227 28.036 208.386C28.2154 208.545 28.6141 209.043 28.9529 209.482C29.2719 209.92 29.7104 210.458 29.9297 210.697C30.1489 210.936 30.6074 211.474 30.9463 211.892C31.3051 212.331 31.8632 212.968 32.2021 213.307C32.5409 213.665 32.82 214.004 32.82 214.064C32.82 214.283 43.0259 224.324 43.2451 224.324C43.3049 224.324 43.6837 224.642 44.1023 225.041C44.5408 225.439 45.378 226.137 45.976 226.575C46.574 227.033 47.2119 227.551 47.3713 227.71C47.5308 227.87 48.1288 228.368 48.667 228.806C49.2251 229.244 49.7035 229.663 49.7235 229.743C49.7633 229.842 49.8829 229.902 49.9826 229.902C50.1421 229.902 52.4543 231.575 52.7533 231.894C52.9527 232.133 56.1021 234.285 56.2217 234.285C56.3015 234.285 56.5407 234.464 56.7799 234.683C57.0191 234.902 57.338 235.082 57.4775 235.082C57.6171 235.082 57.7367 235.161 57.7367 235.281C57.7367 235.381 57.8762 235.48 58.0357 235.48C58.1951 235.48 58.3347 235.54 58.3347 235.64C58.3347 235.719 58.6536 235.958 59.0323 236.157C59.4111 236.377 59.73 236.616 59.73 236.715C59.73 236.795 59.9094 236.875 60.1287 236.875C60.3479 236.875 60.5273 236.954 60.5273 237.074C60.5273 237.174 60.6071 237.273 60.7267 237.273C60.8263 237.273 61.3845 237.572 61.9625 237.931C62.5406 238.289 63.2582 238.708 63.5771 238.847C63.8761 239.006 64.1153 239.206 64.1153 239.305C64.1153 239.385 64.2947 239.465 64.4941 239.465C64.7133 239.465 64.9127 239.524 64.9525 239.604C64.9924 239.704 65.3711 239.943 65.8097 240.182C67.6037 241.138 68.0023 241.357 68.0621 241.497C68.102 241.596 68.3013 241.656 68.5206 241.656C68.7199 241.656 68.8993 241.736 68.8993 241.855C68.8993 241.955 69.0189 242.054 69.1784 242.054C69.4375 242.054 70.8329 242.752 72.7465 243.828C73.1651 244.047 73.6235 244.246 73.783 244.246C73.9425 244.246 74.082 244.326 74.082 244.445C74.082 244.545 74.2215 244.644 74.4009 244.644C74.5803 244.644 75.3777 244.963 76.1949 245.342C76.9923 245.72 77.7497 246.039 77.8693 246.039C77.969 246.039 78.0687 246.119 78.0687 246.238C78.0687 246.338 78.2481 246.437 78.4673 246.437C78.6866 246.437 79.0255 246.517 79.2248 246.617C79.4042 246.716 79.8427 246.896 80.1617 247.035C80.5005 247.174 80.9191 247.354 81.0985 247.453C81.2979 247.553 81.6367 247.633 81.856 247.633C82.0753 247.633 82.2547 247.712 82.2547 247.792C82.2547 247.892 82.7929 248.131 83.4507 248.33C84.1284 248.529 84.7065 248.768 84.7663 248.868C84.8261 248.948 85.1251 249.027 85.4639 249.027C85.7829 249.027 86.042 249.107 86.042 249.226C86.042 249.326 86.3011 249.426 86.6201 249.426C86.9589 249.426 87.2779 249.505 87.3377 249.625C87.3975 249.724 87.6765 249.824 87.9357 249.824C88.1948 249.824 88.4739 249.924 88.5337 250.023C88.5935 250.143 88.8327 250.223 89.032 250.223C89.3709 250.223 90.3476 250.581 91.2645 251.039C91.4639 251.139 91.8227 251.219 92.0619 251.219C92.4605 251.219 93.4173 251.478 94.3143 251.836C94.5336 251.916 94.9921 252.035 95.311 252.095C95.6499 252.135 96.3077 252.294 96.806 252.414C97.3043 252.534 98.1017 252.713 98.6 252.793C99.0983 252.872 99.6963 253.051 99.9355 253.171C100.175 253.31 100.673 253.41 101.072 253.41C101.45 253.41 101.829 253.49 101.889 253.609C101.949 253.709 102.387 253.809 102.866 253.809C103.324 253.809 103.783 253.888 103.882 253.988C104.002 254.087 104.58 254.227 105.178 254.287C105.776 254.346 106.852 254.486 107.57 254.586C108.288 254.705 109.583 254.884 110.48 254.984C111.357 255.103 112.474 255.283 112.972 255.382C113.45 255.502 114.547 255.602 115.384 255.602C116.221 255.602 116.979 255.681 117.038 255.801C117.198 256.06 139.005 256.06 139.164 255.801C139.224 255.681 139.982 255.602 140.819 255.602C141.656 255.602 142.712 255.502 143.151 255.402C144.048 255.163 146.58 254.805 148.234 254.685C148.832 254.625 149.51 254.506 149.729 254.406C149.948 254.307 150.486 254.187 150.925 254.127C153.217 253.848 153.736 253.749 153.915 253.589C154.015 253.49 154.354 253.41 154.692 253.41C155.011 253.41 155.729 253.271 156.287 253.111C158.061 252.593 159.875 252.175 160.652 252.075C161.051 252.016 161.45 251.896 161.51 251.796C161.569 251.697 161.868 251.617 162.187 251.617C162.506 251.617 162.825 251.517 162.885 251.418C162.945 251.298 163.324 251.219 163.702 251.219C164.081 251.219 164.38 251.139 164.38 251.039C164.38 250.94 164.679 250.82 165.038 250.76C165.676 250.661 166.772 250.322 167.41 250.003C167.609 249.904 167.948 249.824 168.147 249.824C168.367 249.824 168.606 249.744 168.666 249.625C168.725 249.525 169.044 249.426 169.363 249.426C169.682 249.426 170.001 249.326 170.061 249.226C170.121 249.107 170.4 249.027 170.679 249.027C170.938 249.027 171.157 248.948 171.157 248.848C171.157 248.768 171.636 248.549 172.214 248.37C174.088 247.792 174.745 247.533 174.745 247.394C174.745 247.294 174.965 247.234 175.244 247.234C175.523 247.234 175.742 247.135 175.742 247.035C175.742 246.915 175.921 246.836 176.141 246.836C176.36 246.836 176.699 246.756 176.898 246.656C177.277 246.457 179.39 245.501 180.028 245.242C181.383 244.704 189.496 240.58 189.496 240.441C189.496 240.341 189.675 240.261 189.895 240.261C190.114 240.261 190.293 240.162 190.293 240.062C190.293 239.943 190.453 239.863 190.652 239.863C190.832 239.863 191.21 239.684 191.489 239.465C191.768 239.245 192.107 239.066 192.247 239.066C192.366 239.066 192.486 238.967 192.486 238.867C192.486 238.747 192.606 238.668 192.765 238.668C192.905 238.668 193.124 238.548 193.243 238.409C193.363 238.269 193.901 237.931 194.459 237.672C195.018 237.393 195.476 237.114 195.476 237.014C195.476 236.934 195.576 236.875 195.695 236.875C195.835 236.875 196.373 236.556 196.891 236.177C197.429 235.799 197.968 235.48 198.067 235.48C198.187 235.48 198.267 235.4 198.267 235.301C198.267 235.201 198.426 235.062 198.645 234.982C198.845 234.922 199.263 234.643 199.582 234.384C199.901 234.106 200.28 233.886 200.419 233.886C200.539 233.886 200.659 233.807 200.659 233.727C200.659 233.627 200.978 233.388 201.356 233.169C201.735 232.97 202.054 232.731 202.054 232.651C202.054 232.552 202.174 232.492 202.313 232.492C202.453 232.492 202.931 232.193 203.37 231.854C203.788 231.496 204.546 230.878 205.044 230.5C205.542 230.121 205.981 229.743 206.001 229.663C206.041 229.583 206.18 229.503 206.3 229.503C206.439 229.503 206.978 229.105 207.536 228.607C208.074 228.109 208.592 227.71 208.692 227.71C208.772 227.71 209.13 227.412 209.489 227.073C209.848 226.714 210.406 226.236 210.705 226.017C211.024 225.798 211.722 225.18 212.26 224.662C212.818 224.124 213.476 223.567 213.735 223.387C213.994 223.228 214.213 222.949 214.213 222.81C214.213 222.65 214.333 222.531 214.492 222.531C214.771 222.531 222.386 215.12 222.386 214.841C222.386 214.701 222.785 214.263 224.08 212.888C224.519 212.43 225.236 211.613 225.675 211.075C226.094 210.518 226.592 209.94 226.771 209.781C226.931 209.621 227.329 209.123 227.668 208.685C227.987 208.247 228.406 207.748 228.605 207.569C228.805 207.39 228.964 207.191 228.964 207.111C228.964 206.991 229.383 206.454 229.961 205.796C230.419 205.298 231.157 204.242 231.157 204.083C231.157 204.003 231.316 203.804 231.535 203.625C231.735 203.445 232.233 202.768 232.652 202.11C233.07 201.453 233.469 200.875 233.529 200.816C233.589 200.756 233.768 200.477 233.927 200.158C234.087 199.859 234.286 199.62 234.386 199.62C234.466 199.62 234.545 199.541 234.545 199.461C234.545 199.301 236.499 196.253 236.937 195.696C237.057 195.556 237.137 195.397 237.137 195.337C237.137 195.277 237.456 194.719 237.834 194.122C238.213 193.524 238.532 192.946 238.532 192.847C238.532 192.727 238.612 192.647 238.691 192.647C238.791 192.647 238.971 192.329 239.13 191.95C239.289 191.572 239.469 191.253 239.569 191.253C239.648 191.253 239.728 191.094 239.728 190.874C239.728 190.675 239.848 190.416 239.987 190.277C240.127 190.157 240.884 188.842 241.642 187.328C242.399 185.814 243.077 184.539 243.176 184.519C243.256 184.479 243.316 184.36 243.316 184.24C243.316 184.141 243.814 183.025 244.412 181.77C245.01 180.515 245.509 179.399 245.509 179.32C245.509 179.22 245.708 178.742 245.927 178.264C246.166 177.805 246.426 177.228 246.505 177.009C246.605 176.789 246.904 176.092 247.183 175.455C247.462 174.817 247.701 174.18 247.701 174.02C247.701 173.881 247.801 173.682 247.901 173.622C248.02 173.562 248.1 173.243 248.1 172.905C248.1 172.586 248.2 172.327 248.299 172.327C248.419 172.327 248.499 172.108 248.499 171.829C248.499 171.55 248.578 171.331 248.658 171.331C248.738 171.331 248.917 170.912 249.077 170.374C249.216 169.856 249.455 169.119 249.595 168.741C249.754 168.362 249.994 167.645 250.113 167.147C250.253 166.649 250.432 166.171 250.532 166.051C250.612 165.952 250.691 165.573 250.691 165.235C250.691 164.876 250.791 164.517 250.891 164.458C250.99 164.398 251.09 164.079 251.09 163.76C251.09 163.442 251.19 163.123 251.289 163.063C251.409 163.003 251.489 162.684 251.489 162.386C251.489 162.087 251.548 161.768 251.628 161.688C251.788 161.549 252.107 160.393 252.485 158.68C252.585 158.242 252.764 157.485 252.884 156.987C253.024 156.489 253.163 155.732 253.203 155.293C253.263 154.855 253.382 154.317 253.482 154.098C253.562 153.879 253.741 153.022 253.881 152.205C254.02 151.389 254.2 150.452 254.299 150.134C254.399 149.815 254.479 149.177 254.479 148.739C254.479 148.281 254.618 147.384 254.778 146.767C254.937 146.129 255.077 145.173 255.077 144.635C255.077 144.097 255.176 143.599 255.276 143.539C255.396 143.48 255.475 142.563 255.475 141.467C255.475 140.411 255.555 139.455 255.655 139.356C255.754 139.236 255.894 137.224 255.934 134.873C255.994 132.522 256.093 130.43 256.173 130.231C256.273 130.012 256.273 128.578 256.193 127.044C256.133 125.49 256.014 122.641 255.954 120.728C255.874 118.816 255.754 117.142 255.675 117.043C255.595 116.923 255.515 115.987 255.495 114.951C255.475 113.915 255.376 112.979 255.256 112.859C255.156 112.76 255.077 112.182 255.077 111.564C255.077 110.967 254.977 110.11 254.857 109.672C254.758 109.233 254.558 108.237 254.459 107.48C254.339 106.703 254.16 105.548 254.06 104.89C253.96 104.233 253.821 103.336 253.761 102.898C253.701 102.46 253.562 102.021 253.462 101.902C253.362 101.802 253.283 101.404 253.283 101.005C253.283 100.607 253.203 100.209 253.103 100.109C253.004 99.9894 252.884 99.5511 252.824 99.1128C252.625 97.6784 251.967 94.9889 251.668 94.3913C251.568 94.192 251.489 93.8534 251.489 93.6541C251.489 93.435 251.409 93.1959 251.289 93.1362C251.19 93.0764 251.09 92.7975 251.09 92.5186C251.09 91.9608 250.014 88.4146 249.595 87.5978C249.436 87.279 249.296 86.8607 249.296 86.6615C249.296 86.4622 249.216 86.2232 249.097 86.1634C248.997 86.1036 248.897 85.7849 248.897 85.4462C248.897 85.1275 248.818 84.8685 248.718 84.8685C248.618 84.8685 248.499 84.5896 248.419 84.2708C248.359 83.9321 248.24 83.3942 248.18 83.0755C248.1 82.7368 247.98 82.4778 247.881 82.4778C247.781 82.4778 247.701 82.3583 247.701 82.1989C247.701 82.0395 247.542 81.6211 247.362 81.2426C246.764 80.0473 246.705 79.8879 246.705 79.5891C246.705 79.4297 246.625 79.2903 246.505 79.2903C246.406 79.2903 246.306 79.0113 246.306 78.6926C246.306 78.3539 246.226 78.0949 246.107 78.0949C246.007 78.0949 245.907 77.9156 245.907 77.6965C245.907 77.4773 245.828 77.298 245.708 77.298C245.608 77.298 245.509 77.1586 245.509 76.9992C245.509 76.8398 245.19 76.0629 244.811 75.2859C244.432 74.489 244.113 73.732 244.113 73.5726C244.113 73.4331 244.034 73.3136 243.914 73.3136C243.814 73.3136 243.715 73.1343 243.715 72.9152C243.715 72.696 243.635 72.5167 243.515 72.5167C243.416 72.5167 243.316 72.3972 243.316 72.2378C243.316 72.0784 242.997 71.4011 242.618 70.7237C242.24 70.0464 241.921 69.369 241.921 69.2096C241.921 69.0503 241.841 68.9307 241.721 68.9307C241.622 68.9307 241.522 68.7514 241.522 68.5323C241.522 68.3131 241.442 68.1338 241.323 68.1338C241.223 68.1338 241.123 67.9545 241.123 67.7354C241.123 67.5162 241.044 67.3369 240.924 67.3369C240.824 67.3369 240.725 67.1975 240.725 67.0381C240.725 66.8787 240.645 66.7393 240.525 66.7393C240.426 66.7393 240.326 66.5998 240.326 66.4205C240.326 66.2612 240.107 65.8229 239.828 65.4643C239.549 65.1057 239.329 64.7271 239.329 64.6275C239.329 64.5279 239.15 64.2291 238.931 63.9502C238.711 63.6713 238.532 63.2927 238.532 63.0935C238.532 62.9142 238.452 62.7548 238.333 62.7548C238.233 62.7548 238.133 62.6552 238.133 62.5158C238.133 62.3962 237.974 62.0974 237.755 61.8783C237.555 61.6392 237.157 61.0415 236.878 60.5435C236.04 58.9896 235.841 58.6708 235.721 58.5712C235.622 58.4915 235.044 57.6548 234.246 56.4196C234.147 56.2403 233.888 55.9215 233.708 55.7024C233.509 55.4833 233.349 55.1844 233.349 55.045C233.349 54.9055 233.27 54.786 233.15 54.786C233.05 54.786 232.951 54.6864 232.951 54.5668C232.951 54.4473 232.831 54.2282 232.711 54.0887C232.253 53.5906 232.054 53.3117 231.356 52.2957C230.997 51.7379 230.638 51.2597 230.559 51.2C230.499 51.1402 230.18 50.7418 229.841 50.3035C229.522 49.8652 229.104 49.3273 228.924 49.1281C228.725 48.9089 228.565 48.6699 228.565 48.5703C228.565 48.4906 228.167 48.0124 227.668 47.5343C227.17 47.0362 226.771 46.5581 226.771 46.4386C226.771 46.319 226.373 45.821 225.874 45.303C225.376 44.805 224.977 44.3069 224.977 44.2073C224.977 44.1276 224.798 43.9483 224.579 43.8288C224.359 43.7092 224.18 43.5299 224.18 43.4104C224.18 42.992 213.336 32.0747 212.918 32.0747C212.878 32.0747 212.619 31.8755 212.36 31.6165C211.044 30.3614 209.987 29.4848 209.828 29.4848C209.708 29.4848 209.629 29.3852 209.629 29.2856C209.629 29.1661 209.529 29.0864 209.409 29.0864C209.27 29.0864 209.031 28.927 208.851 28.7278C208.672 28.5285 208.174 28.1102 207.735 27.7914C207.296 27.4527 206.798 27.0543 206.639 26.8949C206.479 26.7156 205.901 26.2574 205.343 25.8789C204.805 25.5203 204.326 25.1418 204.287 25.0621C204.247 25.0023 203.509 24.4644 202.632 23.9066C201.775 23.3289 201.057 22.791 201.057 22.6913C201.057 22.5917 200.938 22.512 200.798 22.512C200.659 22.512 200.34 22.3327 200.101 22.1136C199.861 21.8945 199.542 21.7152 199.383 21.7152C199.223 21.7152 199.064 21.6554 199.024 21.5558C198.944 21.3566 197.669 20.4202 196.831 19.962C196.453 19.7429 195.915 19.444 195.655 19.2847C195.396 19.1452 195.137 18.9858 195.077 18.9261C194.878 18.7268 194.18 18.3085 193.841 18.2089C193.642 18.1292 193.483 18.0096 193.483 17.91C193.483 17.8104 193.343 17.7307 193.184 17.7307C193.024 17.7307 192.885 17.6311 192.885 17.5315C192.885 17.412 192.705 17.3323 192.486 17.3323C192.267 17.3323 192.087 17.2526 192.087 17.153C192.087 17.0534 191.928 16.9338 191.748 16.8741C191.549 16.7944 190.851 16.4358 190.194 16.0373C189.536 15.6389 188.679 15.1807 188.3 14.9815C187.921 14.8022 187.582 14.583 187.543 14.4834C187.503 14.4037 187.343 14.344 187.204 14.344C186.925 14.344 185.17 13.4475 184.832 13.1287C184.712 13.0291 184.473 12.9494 184.273 12.9494C184.074 12.9494 183.915 12.8498 183.915 12.7502C183.915 12.6306 183.735 12.551 183.536 12.551C183.317 12.551 183.077 12.4513 183.018 12.3517C182.958 12.2322 182.719 12.1525 182.519 12.1525C182.32 12.1525 182.121 12.0728 182.081 11.9931C182.001 11.774 179.788 10.758 179.43 10.758C179.27 10.758 179.131 10.6584 179.131 10.5587C179.131 10.4392 178.951 10.3595 178.752 10.3595C178.533 10.3595 178.293 10.2599 178.234 10.1603C178.174 10.0408 177.935 9.96107 177.715 9.96107C177.516 9.96107 177.337 9.86146 177.337 9.76185C177.337 9.64232 177.157 9.56263 176.938 9.56263C176.719 9.56263 176.38 9.48294 176.181 9.38333C176.001 9.28372 175.583 9.10442 175.244 8.96497C174.287 8.56652 173.27 8.12823 172.911 7.94893C172.712 7.84932 172.373 7.76963 172.174 7.76963C171.955 7.76963 171.715 7.67002 171.656 7.57041C171.596 7.45088 171.317 7.37119 171.058 7.37119C170.799 7.37119 170.519 7.27158 170.46 7.17197C170.4 7.05244 170.121 6.97275 169.862 6.97275C169.603 6.97275 169.323 6.87314 169.264 6.77353C169.204 6.65399 168.965 6.5743 168.765 6.5743C168.566 6.5743 168.147 6.45477 167.828 6.29539C167.529 6.13602 166.872 5.89695 166.373 5.77742C165.875 5.63796 165.317 5.45866 165.137 5.35905C164.938 5.25944 164.52 5.17975 164.181 5.17975C163.862 5.17975 163.583 5.08014 163.583 4.98053C163.583 4.861 163.324 4.78131 163.005 4.78131C162.666 4.78131 162.347 4.6817 162.287 4.58209C162.227 4.46255 161.968 4.38286 161.749 4.38286C161.51 4.38286 161.051 4.30318 160.712 4.20356C158.181 3.46644 157.184 3.22738 155.908 3.04808C155.47 2.98831 155.031 2.86878 154.932 2.76917C154.812 2.66956 154.413 2.58987 154.015 2.58987C153.616 2.58987 153.217 2.51018 153.098 2.41057C152.998 2.31096 152.42 2.19142 151.822 2.13166C150.706 2.03205 148.134 1.6336 145.025 1.09571C144.088 0.936328 142.812 0.796872 142.194 0.796872C141.576 0.796872 141.018 0.697262 140.958 0.597651C140.879 0.478118 139.703 0.398429 138.048 0.398429C136.334 0.398429 135.277 0.31874 135.277 0.199207C135.277 0.079674 132.646 -1.47047e-05 127.802 -1.47047e-05C122.959 -1.47047e-05 120.327 0.079674 120.327 0.199207ZM126.905 19.5237C126.905 19.7429 126.826 19.9222 126.706 19.9222C126.606 19.9222 126.507 20.1015 126.507 20.3206C126.507 20.5398 126.547 20.7191 126.606 20.7191C126.646 20.7191 127.005 20.5398 127.404 20.3206C128.261 19.8425 128.44 19.8226 128.819 20.221C129.317 20.6991 129.537 20.5796 129.397 19.9222C129.277 19.4042 129.317 19.3444 129.636 19.464C130.294 19.703 130.553 20.1413 130.653 21.0776C130.733 21.9542 130.673 22.0937 129.915 23.0101C129.457 23.548 129.098 24.1257 129.078 24.305C128.998 25.5402 129.158 31.6165 129.297 33.4692C129.417 34.7243 129.497 37.2345 129.497 39.0475C129.497 41.0198 129.616 42.9721 129.796 43.9284C129.955 44.805 130.075 45.9206 130.095 46.3788C130.095 47.1757 130.673 48.371 131.131 48.5703C131.37 48.6699 131.331 51.1601 131.091 51.2996C130.992 51.3594 130.892 51.6781 130.892 51.9969C130.892 52.3156 130.812 52.6344 130.693 52.6941C130.354 52.9133 130.473 54.0489 130.912 54.786C131.331 55.4633 131.669 55.802 132.686 56.6188C133.164 56.9973 133.184 57.1169 133.144 58.8103C133.125 59.8263 133.005 60.7029 132.885 60.8622C132.746 61.0415 132.686 61.4599 132.766 61.8982C133.025 63.6912 133.144 64.1494 133.304 64.1494C133.404 64.1494 133.483 64.249 133.483 64.3685C133.483 64.5877 133.962 65.1455 134.161 65.1455C134.221 65.1455 134.281 65.0061 134.281 64.8467C134.281 64.6674 134.44 64.2889 134.62 63.99C135.397 62.7947 135.676 62.7748 135.676 63.8904C135.676 64.249 135.756 64.5478 135.875 64.5478C135.995 64.5478 136.095 66.5998 136.154 69.7675C136.274 77.2781 136.613 79.9676 137.689 82.1192C137.789 82.3184 137.869 82.6969 137.869 82.9559C137.869 83.2348 137.968 83.5138 138.068 83.5735C138.188 83.6333 138.267 83.9122 138.267 84.1911C138.267 84.7888 138.526 84.8087 138.806 84.211C139.065 83.6931 139.463 81.402 139.463 80.5454C139.463 80.2266 139.603 79.7883 139.762 79.5692C139.922 79.3699 140.061 79.0313 140.061 78.832C140.061 78.6328 140.161 78.5332 140.261 78.593C140.38 78.6527 140.46 79.1508 140.46 79.6887C140.46 80.2266 140.54 80.7047 140.639 80.7645C140.719 80.8243 140.819 81.5415 140.839 82.3583C140.859 83.1751 140.958 84.1513 141.078 84.5099C141.178 84.8685 141.257 85.6654 141.257 86.3029C141.257 86.9204 141.357 87.6775 141.477 87.9962C141.616 88.3548 141.716 92.7377 141.756 100.906C141.796 107.699 141.875 113.636 141.955 114.094C142.114 114.971 142.653 115.31 142.653 114.533C142.653 114.313 142.732 113.975 142.852 113.776C142.952 113.576 143.051 112.899 143.071 112.281C143.091 111.664 143.191 111.166 143.291 111.166C143.37 111.166 143.45 110.628 143.45 109.99C143.45 109.333 143.55 108.735 143.649 108.675C143.769 108.616 143.849 108.377 143.849 108.177C143.849 107.739 144.666 106.145 145.104 105.687C145.284 105.528 145.523 105.388 145.663 105.388C146.001 105.388 146.819 106.384 146.978 106.982C147.038 107.261 147.158 107.56 147.237 107.679C147.397 107.879 147.536 108.735 147.756 110.608C147.815 111.146 147.955 111.564 148.055 111.564C148.154 111.564 148.234 112.002 148.234 112.54C148.234 113.098 148.314 113.576 148.413 113.636C148.513 113.696 148.633 114.094 148.692 114.493C148.972 116.465 149.709 117.581 150.706 117.581C151.204 117.581 151.224 117.64 151.224 118.856C151.224 119.533 151.324 120.171 151.423 120.23C151.543 120.29 151.623 120.25 151.623 120.131C151.623 120.011 151.762 119.772 151.922 119.613C152.081 119.433 152.221 119.055 152.221 118.736C152.221 118.417 152.32 118.099 152.42 118.039C152.54 117.979 152.619 117.342 152.619 116.624C152.619 115.907 152.699 115.349 152.819 115.349C152.938 115.349 153.018 115.17 153.018 114.951C153.018 114.732 153.078 114.553 153.138 114.553C153.476 114.553 153.795 115.349 153.815 116.206C153.815 117.621 154.373 119.832 154.832 120.25C155.111 120.509 155.211 120.848 155.211 121.724C155.211 122.342 155.111 122.94 154.971 123.079C154.772 123.278 154.692 127.084 154.653 140.411C154.613 149.795 154.653 157.784 154.712 158.122L154.832 158.78H156.825C158.759 158.78 158.858 158.76 159.397 158.222C159.915 157.704 159.955 157.525 160.074 155.473C160.214 153.022 160.353 152.046 160.613 151.887C160.712 151.827 160.792 151.608 160.792 151.389C160.792 151.189 160.892 151.01 160.991 151.01C161.111 151.01 161.191 150.851 161.191 150.651C161.191 150.452 161.27 150.213 161.37 150.094C161.749 149.695 162.586 147.982 162.586 147.623C162.586 147.404 162.686 147.225 162.785 147.225C162.905 147.225 162.985 147.085 162.985 146.926C162.985 146.767 163.144 146.627 163.343 146.627C163.682 146.627 164.38 147.982 164.38 148.659C164.38 148.839 164.48 149.058 164.579 149.117C164.699 149.177 164.779 149.396 164.779 149.576C164.779 149.775 164.958 150.054 165.177 150.213C165.397 150.373 165.576 150.572 165.576 150.671C165.576 150.751 165.755 151.01 165.975 151.249C166.393 151.707 166.473 152.225 166.692 155.293C166.772 156.389 166.852 157.505 166.872 157.784L166.912 158.282H179.051H191.19L191.33 155.692C191.39 154.257 191.549 152.524 191.689 151.807C191.808 151.09 191.948 150.114 192.008 149.616C192.067 149.117 192.207 148.639 192.307 148.54C192.406 148.42 192.486 148.141 192.486 147.882C192.486 147.623 192.566 147.265 192.665 147.066C192.905 146.587 193.702 144.256 193.861 143.539L194.001 142.942L194.34 143.579C194.519 143.938 194.679 144.496 194.679 144.834C194.679 145.153 194.758 145.432 194.858 145.432C195.097 145.432 195.277 144.615 195.476 142.583C195.556 141.687 195.815 140.511 196.054 139.993C196.273 139.455 196.473 138.718 196.473 138.36C196.473 137.981 196.572 137.622 196.672 137.563C196.792 137.503 196.871 137.264 196.871 137.045C196.871 136.686 196.991 136.646 198.127 136.706C199.343 136.766 199.363 136.786 199.423 137.363C199.463 137.682 199.582 138.041 199.682 138.14C199.782 138.26 199.861 138.579 199.861 138.858C199.861 139.136 199.941 139.455 200.021 139.555C200.22 139.774 200.539 141.268 200.858 143.44C200.978 144.256 201.117 145.133 201.177 145.392C201.336 146.129 201.655 145.691 201.655 144.735C201.655 144.256 201.755 143.798 201.855 143.739C201.974 143.679 202.054 143.44 202.054 143.221C202.054 143.021 202.114 142.842 202.213 142.842C202.473 142.842 202.851 143.898 202.851 144.615C202.871 145.014 202.991 145.691 203.15 146.129C203.31 146.567 203.449 147.285 203.449 147.723C203.449 148.281 203.589 148.699 203.928 149.078L204.406 149.635L204.924 149.197C205.522 148.679 205.762 147.902 205.961 145.83C206.081 144.396 206.28 143.838 206.659 143.838C206.758 143.838 206.838 144.197 206.838 144.635C206.838 145.073 206.938 145.432 207.037 145.432C207.157 145.432 207.237 145.91 207.237 146.488C207.237 147.504 207.775 149.058 208.134 149.058C208.393 149.058 208.632 148.56 208.632 147.962C208.632 147.643 208.712 147.245 208.811 147.066C208.911 146.886 209.051 144.217 209.11 141.149C209.33 130.909 209.888 124.394 210.546 124.175C210.665 124.135 210.845 124.294 210.904 124.553C211.084 125.131 211.423 127.582 211.562 129.395C211.662 130.65 211.841 131.068 212.26 131.088C212.34 131.088 212.439 128.996 212.459 126.446L212.519 121.824L213.615 121.605L214.712 121.406L214.811 118.816L214.911 116.246H216.904H218.898L218.858 117.342C218.858 117.939 218.778 118.935 218.698 119.553C218.559 120.629 218.579 120.689 219.157 121.107C219.496 121.326 219.974 121.525 220.253 121.525H220.732L220.851 125.649C220.971 129.833 221.09 130.889 221.409 130.889C221.509 130.889 221.589 130.59 221.589 130.231C221.589 129.873 221.668 129.494 221.768 129.375C221.868 129.275 222.007 128.697 222.067 128.1C222.346 125.151 222.506 124.294 222.825 123.976C223.104 123.697 223.183 123.697 223.243 123.936C223.283 124.095 223.423 124.534 223.562 124.932C223.682 125.31 223.781 126.048 223.781 126.566C223.781 127.064 223.881 127.542 223.981 127.602C224.1 127.661 224.18 128.12 224.18 128.598C224.18 129.076 224.26 129.514 224.359 129.574C224.539 129.693 224.638 130.211 224.977 132.881C225.456 136.706 225.555 138.479 225.575 142.822C225.575 147.663 225.735 148.819 226.373 148.819C226.871 148.819 227.13 148.101 227.27 146.428C227.549 142.902 227.648 142.344 228.047 142.284C228.246 142.244 228.506 142.304 228.625 142.424C228.924 142.722 229.163 154.038 229.283 174.419C229.343 184.659 229.442 190.815 229.562 190.934C229.821 191.193 229.821 195.377 229.562 195.536C229.442 195.596 229.363 195.835 229.363 196.054C229.363 196.253 229.283 196.433 229.163 196.433C229.064 196.433 228.964 196.572 228.964 196.731C228.964 196.891 228.884 197.03 228.765 197.03C228.665 197.03 228.565 197.15 228.565 197.289C228.565 197.429 228.406 197.728 228.226 197.947C228.027 198.146 227.609 198.684 227.27 199.122C226.951 199.56 226.572 200.039 226.432 200.178C226.293 200.317 226.173 200.517 226.173 200.616C226.173 200.716 226.054 200.915 225.914 201.055C225.775 201.194 225.396 201.672 225.077 202.11C224.738 202.549 224.379 203.027 224.24 203.206C224.12 203.366 223.642 203.983 223.183 204.541C222.745 205.119 222.286 205.597 222.187 205.597C222.067 205.597 221.987 205.736 221.987 205.896C221.987 206.055 221.908 206.195 221.788 206.195C221.688 206.195 221.589 206.274 221.589 206.394C221.589 206.633 221.19 207.091 219.755 208.585C219.117 209.223 218.599 209.82 218.599 209.92C218.599 210.139 212.1 216.694 210.765 217.849C210.247 218.287 209.489 218.965 209.071 219.343C208.652 219.722 207.875 220.399 207.356 220.837C206.818 221.276 206.26 221.754 206.12 221.873C205.981 222.013 205.821 222.132 205.762 222.132C205.702 222.132 205.383 222.411 205.084 222.73C204.765 223.069 204.426 223.328 204.326 223.328C204.227 223.348 203.708 223.746 203.17 224.224C202.612 224.722 202.074 225.121 201.954 225.121C201.835 225.121 201.615 225.3 201.456 225.539C201.297 225.758 200.898 226.077 200.599 226.256C200.28 226.416 199.762 226.814 199.423 227.133C199.084 227.451 198.705 227.71 198.566 227.71C198.446 227.71 198.167 227.87 197.948 228.069C197.748 228.248 197.15 228.687 196.632 229.005C196.094 229.344 195.675 229.663 195.675 229.743C195.675 229.842 195.576 229.902 195.476 229.902C195.257 229.902 193.164 231.237 192.725 231.635C192.586 231.775 192.127 232.034 191.729 232.233C191.33 232.412 190.951 232.631 190.891 232.691C190.732 232.91 188.3 234.285 188.081 234.285C187.981 234.285 187.702 234.464 187.463 234.683C187.224 234.902 186.865 235.082 186.665 235.082C186.466 235.082 186.307 235.141 186.307 235.241C186.307 235.321 186.127 235.48 185.908 235.58C181.961 237.552 178.732 239.146 178.333 239.305C178.054 239.425 177.676 239.584 177.496 239.684C177.297 239.783 176.998 239.863 176.838 239.863C176.679 239.863 176.539 239.943 176.539 240.062C176.539 240.162 176.4 240.261 176.24 240.261C175.941 240.261 175.782 240.321 174.586 240.919C174.207 241.098 173.789 241.258 173.629 241.258C173.47 241.258 173.35 241.337 173.35 241.457C173.35 241.556 173.091 241.656 172.752 241.656C172.433 241.656 172.154 241.736 172.154 241.855C172.154 241.955 171.975 242.054 171.755 242.054C171.536 242.054 171.197 242.134 170.998 242.234C170.818 242.333 170.4 242.513 170.061 242.652C169.742 242.792 169.204 243.011 168.865 243.15C168.546 243.31 167.908 243.529 167.47 243.668C167.031 243.788 166.513 243.967 166.333 244.067C166.134 244.166 165.755 244.246 165.476 244.246C165.197 244.246 164.978 244.326 164.978 244.445C164.978 244.545 164.699 244.644 164.38 244.644C164.041 244.644 163.623 244.724 163.423 244.824C163.244 244.923 162.546 245.162 161.888 245.342C161.231 245.541 160.533 245.76 160.353 245.86C160.154 245.959 159.775 246.039 159.516 246.039C159.237 246.039 158.958 246.119 158.898 246.238C158.839 246.338 158.42 246.437 158.001 246.437C157.583 246.437 157.164 246.517 157.104 246.637C157.045 246.736 156.586 246.836 156.088 246.836C155.609 246.836 155.211 246.915 155.211 247.035C155.211 247.135 154.932 247.234 154.573 247.234C154.234 247.234 153.676 247.314 153.337 247.414C152.32 247.712 150.008 248.21 148.533 248.41C147.776 248.529 146.819 248.669 146.44 248.748C146.061 248.808 145.164 248.908 144.447 248.967C143.729 249.027 143.071 249.127 142.952 249.226C142.852 249.306 141.855 249.386 140.759 249.406C139.663 249.426 138.686 249.525 138.566 249.605C138.307 249.824 132.467 250.083 128.101 250.103C124.055 250.103 117.955 249.824 117.517 249.605C117.337 249.525 116.341 249.426 115.264 249.406C114.208 249.386 113.291 249.306 113.231 249.207C113.171 249.107 112.513 249.027 111.756 249.027C110.999 249.027 110.321 248.928 110.261 248.828C110.201 248.708 109.743 248.629 109.264 248.629C108.507 248.629 107.371 248.43 103.583 247.593C103.085 247.493 102.328 247.354 101.889 247.314C101.45 247.254 100.912 247.135 100.693 247.035C100.294 246.856 99.5767 246.716 98.1415 246.497C97.7429 246.437 97.3442 246.318 97.2844 246.218C97.2246 246.119 96.9256 246.039 96.6067 246.039C96.2877 246.039 95.9887 245.959 95.9289 245.86C95.8691 245.76 95.5303 245.64 95.1715 245.581C93.9954 245.381 92.62 244.963 92.62 244.804C92.62 244.704 92.3409 244.644 92.022 244.644C91.6831 244.644 91.2645 244.565 91.0652 244.465C90.8858 244.365 90.1084 244.106 89.331 243.867C88.0752 243.469 87.2779 243.15 86.2015 242.632C86.0021 242.533 85.6633 242.453 85.4639 242.453C85.2447 242.453 85.0055 242.373 84.9457 242.254C84.8859 242.154 84.6467 242.054 84.4274 242.054C84.2281 242.054 83.8892 241.975 83.6899 241.875C83.5105 241.776 83.1317 241.616 82.8527 241.517C82.5736 241.397 81.856 241.078 81.258 240.779C80.66 240.501 80.0421 240.261 79.9225 240.261C79.7829 240.261 79.6633 240.162 79.6633 240.062C79.6633 239.943 79.4839 239.863 79.2647 239.863C79.0454 239.863 78.567 239.684 78.1683 239.465C77.7697 239.245 77.2913 239.066 77.0919 239.066C76.8727 239.066 76.6733 239.006 76.6335 238.907C76.5537 238.727 73.6235 237.273 73.3245 237.273C73.185 237.273 73.0853 237.174 73.0853 237.074C73.0853 236.954 72.9059 236.875 72.6867 236.875C72.4674 236.875 72.288 236.775 72.288 236.675C72.288 236.556 72.1485 236.476 71.9491 236.476C71.7697 236.476 71.3312 236.257 70.9724 235.978C70.6136 235.699 70.1751 235.48 70.0156 235.48C69.8362 235.48 69.6967 235.4 69.6967 235.321C69.6967 235.221 69.3777 235.042 68.999 234.882C68.6203 234.723 68.3013 234.544 68.3013 234.444C68.3013 234.364 68.1618 234.285 68.0023 234.285C67.8229 234.285 67.5837 234.185 67.4442 234.086C67.0455 233.747 64.8728 232.492 64.6934 232.492C64.5937 232.492 64.514 232.432 64.514 232.332C64.514 232.253 64.215 232.054 63.8761 231.894C63.5173 231.755 63.0389 231.456 62.8197 231.237C62.6004 231.037 62.0024 230.639 61.4841 230.36C60.9459 230.061 60.5273 229.762 60.5273 229.663C60.5273 229.583 60.3479 229.503 60.1287 229.503C59.9094 229.503 59.73 229.444 59.73 229.344C59.73 229.264 59.3313 228.926 58.833 228.607C58.3546 228.268 57.936 227.95 57.936 227.85C57.936 227.77 57.8164 227.71 57.6769 227.71C57.5373 227.71 57.2383 227.551 57.0191 227.352C56.8197 227.153 56.2417 226.714 55.7433 226.356C55.245 225.997 54.4875 225.439 54.049 225.101C53.6105 224.762 53.0523 224.344 52.7932 224.164C51.8165 223.447 51.2783 223.009 50.5208 222.292C50.0823 221.873 49.6637 221.535 49.5839 221.535C49.5042 221.535 48.9062 221.017 48.2484 220.379C47.5906 219.762 46.6936 218.985 46.275 218.646C45.3182 217.949 37.9229 210.557 37.1854 209.581C36.8864 209.203 36.3083 208.525 35.8897 208.087C35.4512 207.649 34.8532 206.932 34.5143 206.493C34.1954 206.055 33.7369 205.517 33.5177 205.278C33.2984 205.059 32.8997 204.561 32.6207 204.202C32.3416 203.824 31.923 203.306 31.6838 203.047C31.4247 202.768 31.2253 202.489 31.2253 202.409C31.2253 202.33 31.0659 202.091 30.8665 201.851C30.6672 201.632 30.3283 201.194 30.1091 200.915C29.9097 200.616 29.4911 200.078 29.2121 199.72C28.933 199.341 28.3151 198.465 27.8367 197.748C27.3782 197.03 26.9197 196.433 26.84 196.433C26.7204 196.433 26.4613 173.98 26.3815 157.385C26.3815 155.293 26.541 153.939 26.9596 152.644C27.1191 152.186 27.2387 151.448 27.2387 151.05C27.2387 150.632 27.3184 150.213 27.4181 150.094C27.5377 149.994 27.6373 149.078 27.6573 148.042C27.6971 146.189 28.0161 145.033 28.4945 145.033C28.7735 145.033 29.4313 148.261 29.4313 149.516C29.4313 150.891 29.8898 151.986 30.4479 152.006C30.6273 152.006 30.8267 148.5 31.0459 141.348C31.4247 128.498 31.7436 126.167 33.0791 126.884C33.4579 127.084 33.5775 127.402 33.7768 128.657C34.016 130.171 34.3549 131.825 34.5542 132.562C34.614 132.761 34.7336 132.841 34.8133 132.761C34.9728 132.582 35.0725 131.486 35.3914 126.605C35.5509 124.135 35.6306 123.856 36.3283 123.557C36.7867 123.338 36.8067 123.259 36.8067 121.386C36.8266 118.796 36.9462 118.637 38.8598 118.637C39.6571 118.637 40.5342 118.696 40.8332 118.796C41.3315 118.915 41.3515 118.975 41.1721 119.573C41.0724 119.931 40.9927 120.868 40.9927 121.645C40.9927 123 41.0126 123.059 41.6903 123.637C42.2883 124.135 42.388 124.334 42.388 125.051C42.388 125.53 42.4877 125.908 42.5873 125.908C42.7069 125.908 42.7867 127.064 42.7867 128.976C42.7867 130.67 42.8465 132.184 42.9063 132.363C43.3249 133.439 44.182 131.327 44.182 129.235C44.182 128.319 44.3215 127.641 44.6205 126.924C45.1189 125.809 45.378 125.629 45.378 126.406C45.378 126.685 45.4577 127.064 45.5574 127.263C45.6571 127.442 45.8365 128.398 45.9561 129.395C46.0757 130.371 46.275 131.805 46.4145 132.582C46.7335 134.674 46.9727 138.897 47.0923 145.332C47.1919 150.811 47.3115 152.006 47.8099 152.006C47.8896 152.006 47.9693 151.867 47.9693 151.707C47.9693 151.548 48.0491 151.409 48.1288 151.409C48.2085 151.409 48.4477 150.353 48.6471 149.058C48.8464 147.783 49.0856 146.567 49.2052 146.368C49.5441 145.711 49.7633 146.03 49.7633 147.185C49.7633 147.823 49.8231 148.42 49.9029 148.5C49.9826 148.58 50.0823 149.177 50.1022 149.855C50.1421 151.01 50.5009 152.205 50.8198 152.205C50.9992 152.205 51.7567 151.787 52.0756 151.508C52.3148 151.269 52.5141 150.592 52.7533 149.018C53.1321 146.548 53.2317 146.109 53.5108 145.671C53.6703 145.432 53.8497 145.273 53.9095 145.332C54.0889 145.512 54.5473 146.886 54.5473 147.265C54.5473 147.464 54.647 147.623 54.7467 147.623C54.8663 147.623 54.946 147.444 54.946 147.245C54.946 147.026 55.0457 146.787 55.1453 146.727C55.2649 146.667 55.3447 145.711 55.3447 144.535C55.3447 142.424 55.4443 141.766 55.7633 141.965C55.8629 142.005 56.1221 141.965 56.3413 141.846C56.6802 141.667 56.74 141.428 56.74 140.192C56.74 139.316 56.8397 138.638 56.9792 138.499C57.1187 138.36 57.637 138.26 58.1752 138.26C59.3712 138.26 59.6104 138.619 59.4111 140.212C59.2715 141.467 59.431 141.746 60.3081 141.886C60.9459 141.965 61.3047 143.041 61.0655 144.157C60.8463 145.213 60.9659 147.942 61.225 147.882C61.3446 147.862 61.4443 147.583 61.4841 147.285C61.524 146.986 61.6436 146.647 61.7433 146.528C61.8429 146.428 61.9227 145.99 61.9227 145.551C61.9227 144.794 61.9227 144.774 62.3213 145.133C62.5406 145.332 62.72 145.751 62.72 146.069C62.72 146.368 62.8197 146.627 62.9193 146.627C63.0389 146.627 63.1187 146.767 63.1187 146.926C63.1187 147.105 63.318 147.803 63.5572 148.48C64.215 150.393 64.3545 151.448 64.4542 154.995C64.4941 156.907 64.6137 158.361 64.7532 158.521C64.9127 158.72 67.4442 158.78 77.2713 158.78H89.5901L89.7097 157.027C89.9689 153.54 90.0486 153.162 90.7463 152.066C91.125 151.468 91.424 150.831 91.424 150.612C91.424 150.393 91.5237 150.213 91.6233 150.213C91.7429 150.213 91.8227 150.034 91.8227 149.815C91.8227 149.396 92.1416 148.719 92.5801 148.261C92.7994 148.022 92.8791 148.022 93.1781 148.261C93.7562 148.699 93.9954 149.098 94.0153 149.556C94.0153 149.815 94.115 150.014 94.2147 150.014C94.3343 150.014 94.414 150.134 94.414 150.293C94.414 150.432 94.7329 151.169 95.1117 151.927C95.4904 152.664 95.8093 153.441 95.8093 153.62C95.8093 153.819 95.909 154.038 96.0087 154.098C96.1283 154.158 96.208 155.094 96.208 156.15C96.2279 157.345 96.3077 158.202 96.4671 158.401C96.6864 158.7 97.3641 158.859 99.3973 159.118C100.195 159.198 100.354 159.158 100.852 158.68L101.391 158.122L101.431 151.827C101.57 127.582 101.55 126.605 100.972 123.916C100.653 122.382 100.713 121.625 101.391 118.935C101.53 118.437 101.69 117.541 101.749 116.943C101.949 115.27 102.407 115.389 102.846 117.202C103.025 117.999 103.185 118.935 103.185 119.254C103.185 120.29 103.942 121.426 104.361 121.007C104.421 120.948 104.46 120.151 104.421 119.254L104.361 117.621L105.377 117.601C106.434 117.581 106.952 117.222 106.972 116.485C106.972 116.166 107.092 115.867 107.59 114.951C107.829 114.533 108.367 113.357 108.607 112.76C108.726 112.481 108.886 112.102 108.985 111.923C109.224 111.445 109.205 110.229 108.965 110.07C108.866 110.01 108.766 109.691 108.766 109.373C108.766 109.054 108.866 108.735 108.965 108.675C109.085 108.616 109.165 108.337 109.165 108.058C109.165 107.58 109.842 106.424 110.719 105.428C111.198 104.89 111.357 104.87 111.357 105.388C111.357 105.607 111.457 105.787 111.557 105.787C111.676 105.787 111.756 105.906 111.756 106.066C111.756 106.225 111.816 106.384 111.915 106.424C112.175 106.524 112.713 107.839 112.852 108.675C112.912 109.114 113.012 110.269 113.072 111.265C113.131 112.242 113.251 113.138 113.371 113.258C113.47 113.357 113.55 113.556 113.55 113.696C113.55 113.995 114.347 114.951 114.587 114.951C114.666 114.951 114.766 108.795 114.806 101.244C114.866 88.6537 114.905 87.4783 115.224 86.4622C115.723 84.9681 115.962 83.5138 116.082 81.3223C116.161 79.7285 116.221 79.4895 116.52 79.4895C116.819 79.4895 116.919 79.6887 116.998 80.4258C117.337 83.3544 117.616 84.8685 117.756 84.6294C117.856 84.4899 117.935 84.1313 117.935 83.8126C117.935 83.5138 118.035 83.2747 118.135 83.2747C118.254 83.2747 118.334 82.9161 118.334 82.4778C118.334 82.0395 118.434 81.6809 118.533 81.6809C118.653 81.6809 118.733 81.4219 118.733 81.1032C118.733 80.7645 118.832 80.4457 118.932 80.386C119.052 80.3262 119.131 80.0672 119.131 79.8082C119.131 79.5692 119.191 79.2903 119.271 79.2106C119.729 78.7723 119.988 76.6207 120.148 72.3175C120.327 67.1576 120.487 65.1854 120.746 65.026C120.846 64.9662 120.925 64.7072 120.925 64.4283C120.925 64.1693 121.025 63.9502 121.125 63.9502C121.244 63.9502 121.324 63.8107 121.324 63.6513C121.324 63.1134 121.623 63.3326 121.982 64.1494C122.301 64.9264 122.719 65.0658 122.719 64.4283C122.719 64.2689 122.779 64.1494 122.879 64.1494C123.397 64.1494 123.816 60.5634 123.317 60.2646C123.218 60.2048 123.118 59.7864 123.118 59.3681C123.118 58.9497 123.218 58.5313 123.317 58.4716C123.437 58.4118 123.517 58.1727 123.517 57.9536C123.517 57.5153 124.354 56.2403 125.191 55.3438C125.61 54.9055 125.709 54.6067 125.709 53.7899C125.709 53.232 125.63 52.6344 125.53 52.4352C125.291 51.9769 124.912 50.3035 124.912 49.7457C124.912 49.4867 125.171 48.9289 125.49 48.4906C126.367 47.2952 126.267 48.2515 126.885 33.5689C127.005 30.9391 127.184 27.8711 127.284 26.7355C127.523 24.4644 127.424 24.1457 125.968 22.6117C125.829 22.4523 125.709 21.8546 125.709 21.2769C125.709 20.48 125.829 20.0815 126.168 19.6831C126.686 19.0257 126.905 18.9858 126.905 19.5237Z" fill="white"/>
<path d="M130.394 69.369C130.334 70.0663 130.234 72.8952 130.174 75.6445C130.075 80.4258 130.095 80.6848 130.434 80.6848C130.792 80.6848 131.291 79.8879 131.291 79.2903C131.291 79.111 131.41 78.852 131.55 78.7125C131.889 78.3738 131.889 69.8471 131.53 69.4886C131.41 69.369 131.291 68.9905 131.291 68.6917C131.291 68.2733 131.191 68.1338 130.912 68.1338C130.593 68.1338 130.513 68.3331 130.394 69.369Z" fill="white"/>
<path d="M127.304 74.6882C127.304 78.075 127.244 81.0235 127.164 81.2227C127.045 81.5614 127.045 81.5614 127.344 81.2626C127.802 80.8243 128.301 79.5492 128.301 78.8719C128.301 78.5731 128.4 78.2543 128.5 78.1945C128.62 78.1149 128.699 76.5609 128.699 74.2101C128.699 71.8593 128.62 70.3054 128.5 70.2257C128.4 70.1659 128.301 69.9069 128.301 69.6479C128.301 69.2296 127.762 68.5323 127.444 68.5323C127.364 68.5323 127.304 71.3015 127.304 74.6882Z" fill="white"/>
<path d="M124.912 68.9706C124.892 69.0104 124.892 71.4409 124.892 74.4093C124.872 79.7286 124.872 79.7883 125.291 79.8481C125.709 79.9079 125.709 79.8879 125.709 74.4293C125.709 69.0702 125.709 68.9307 125.311 68.9307C125.091 68.9307 124.912 68.9507 124.912 68.9706Z" fill="white"/>
<path d="M122.719 96.005C122.719 96.1046 123.198 96.4034 123.776 96.7022C124.812 97.2003 124.992 97.2202 128.281 97.2202C131.55 97.2202 131.749 97.2003 132.706 96.7222C133.244 96.4432 133.643 96.1245 133.583 96.0249C133.424 95.7659 122.719 95.7659 122.719 96.005Z" fill="white"/>
<path d="M131.849 98.0768C131.749 98.2761 131.689 99.1925 131.689 100.109C131.689 101.025 131.61 101.842 131.49 101.902C131.37 101.982 131.291 104.452 131.291 108.695V115.349H131.968C132.566 115.349 132.666 115.27 132.786 114.692C133.045 113.616 133.125 106.544 132.885 106.305C132.786 106.205 132.686 105.209 132.686 104.053C132.686 102.918 132.546 101.344 132.387 100.547C132.228 99.7503 132.088 98.794 132.048 98.4155C132.008 97.8776 131.948 97.7979 131.849 98.0768Z" fill="white"/>
<path d="M125.709 108.078C125.709 113.457 125.769 116.345 125.909 116.345C126.028 116.345 126.108 116.266 126.108 116.186C126.108 116.086 126.267 115.847 126.467 115.628C127.344 114.652 127.802 107.56 127.204 103.595C127.025 102.34 126.786 101.225 126.686 101.105C126.586 101.005 126.507 100.806 126.507 100.647C126.507 100.388 126.048 99.81 125.829 99.81C125.769 99.81 125.709 103.535 125.709 108.078Z" fill="white"/>
<path d="M128.659 100.248C128.62 100.388 128.58 103.814 128.6 107.879L128.64 115.25H129.317H129.995L130.055 113.058C130.075 111.863 130.194 110.787 130.294 110.688C130.553 110.429 130.553 104.731 130.294 104.472C130.194 104.372 130.075 103.356 130.055 102.201L129.995 100.109L129.377 100.049C128.998 100.009 128.719 100.089 128.659 100.248Z" fill="white"/>
<path d="M123.357 100.448C123.178 100.627 123.118 102.579 123.118 108.018V115.349H123.716H124.314V107.779C124.314 100.627 124.294 100.209 123.955 100.209C123.756 100.209 123.497 100.308 123.357 100.448Z" fill="white"/>
<path d="M119.47 118.497C119.111 118.577 119.012 119.035 119.311 119.214C119.41 119.274 119.929 119.334 120.447 119.354C120.985 119.374 121.543 119.473 121.683 119.593C122.062 119.892 135.417 119.872 135.716 119.573C135.855 119.433 136.154 119.334 136.414 119.334C137.271 119.334 136.872 119.015 135.736 118.776C134.699 118.557 120.427 118.318 119.47 118.497Z" fill="white"/>
<path d="M107.052 126.964C106.832 127.084 106.553 127.402 106.434 127.681C106.274 128.04 106.175 133.678 106.095 145.332C106.035 154.755 105.916 168.86 105.856 176.65L105.716 190.854H104.66C104.082 190.854 103.543 190.934 103.484 191.054C103.404 191.173 102.068 191.253 100.135 191.253C98.3608 191.253 96.7861 191.333 96.6466 191.432C96.4672 191.532 96.4273 191.811 96.507 192.289L96.6466 192.986L98.5602 193.245C101.57 193.644 109.224 193.285 109.444 192.727C109.523 192.528 109.643 129.195 109.563 127.382C109.543 126.825 107.889 126.546 107.052 126.964Z" fill="white"/>
<path d="M113.151 126.844C113.151 126.944 113.092 131.705 113.032 137.463C112.952 143.22 112.972 157.046 113.052 168.183C113.191 186.77 113.231 188.424 113.53 188.304C113.929 188.145 114.547 187.547 115.005 186.81C115.344 186.292 115.364 184.838 115.284 157.425C115.204 125.151 115.284 126.705 113.909 126.705C113.49 126.705 113.151 126.765 113.151 126.844Z" fill="white"/>
<path d="M141.576 131.626C141.297 145.273 141.098 171.012 141.178 178.602C141.297 186.751 141.317 187.189 141.676 187.528C142.214 188.026 142.712 187.886 142.952 187.169C143.051 186.83 143.211 186.531 143.271 186.472C143.59 186.233 143.869 161.051 143.669 152.504C143.55 147.783 143.45 140.531 143.45 136.367C143.45 131.108 143.37 128.498 143.211 127.761C142.972 126.745 142.932 126.705 142.314 126.705H141.676L141.576 131.626Z" fill="white"/>
<path d="M146.779 127.402C146.46 128.06 146.44 130.351 146.44 159.417C146.44 176.63 146.38 190.675 146.32 190.596C146.261 190.536 146.181 190.177 146.141 189.799C146.101 189.42 145.962 188.922 145.802 188.683C145.543 188.265 145.483 188.245 139.404 188.285C136.015 188.285 133.204 188.245 133.125 188.165C133.065 188.105 133.085 187.986 133.184 187.906C133.543 187.647 135.676 184.738 135.676 184.499C135.676 184.38 135.756 184.28 135.855 184.28C135.935 184.28 136.075 183.902 136.134 183.424C136.194 182.945 136.314 182.427 136.374 182.248C136.453 182.069 136.374 181.89 136.174 181.81C135.835 181.69 133.942 182.208 133.583 182.507C133.483 182.607 133.244 182.686 133.045 182.686C132.845 182.686 132.507 182.786 132.307 182.925C131.63 183.344 129.537 182.427 128.48 181.252C128.121 180.854 126.586 180.754 125.949 181.073C125.769 181.172 125.37 181.352 125.071 181.491C124.792 181.631 124.254 182.009 123.915 182.328C123.377 182.806 123.158 182.886 122.64 182.766C122.301 182.706 121.942 182.567 121.822 182.467C121.723 182.368 121.503 182.288 121.324 182.288C121.165 182.288 120.766 182.149 120.447 181.989C119.351 181.411 119.131 181.551 119.131 182.886C119.131 184.121 119.689 185.436 120.606 186.372C121.244 187.029 122.121 188.045 122.121 188.145C122.121 188.444 118.354 188.643 112.414 188.663C110.879 188.663 110.739 188.703 110.44 189.161C109.922 189.938 109.862 191.113 110.281 192.13C110.58 192.867 110.819 193.086 111.616 193.444C112.653 193.923 113.351 193.923 116.141 193.424C116.959 193.285 118.135 193.165 118.733 193.165C119.949 193.185 123.038 193.544 123.537 193.743C123.975 193.903 126.307 193.484 126.586 193.185C126.925 192.807 127.463 191.612 127.583 190.954C127.942 188.862 128.281 188.145 128.779 188.324C128.958 188.404 129.098 188.603 129.098 188.803C129.098 189.002 129.337 189.599 129.596 190.157C129.875 190.695 130.095 191.313 130.095 191.492C130.095 191.671 130.194 191.89 130.294 191.95C130.414 192.01 130.493 192.249 130.493 192.468C130.493 192.687 130.653 193.026 130.832 193.205C131.131 193.504 131.789 193.544 137.45 193.484C141.078 193.444 144.188 193.325 144.805 193.205C145.782 192.986 145.862 192.946 146.081 192.169L146.34 191.353L146.48 192.249C146.56 192.727 146.739 193.185 146.879 193.285C147.158 193.464 154.214 193.345 155.968 193.146C156.526 193.066 157.005 192.926 157.005 192.827C157.005 192.727 157.164 192.648 157.363 192.648C157.762 192.648 158.559 192.05 158.639 191.691C158.679 191.472 157.882 191.412 154.613 191.392L150.526 191.353L150.427 159.079L150.327 126.805L148.732 126.745L147.118 126.685L146.779 127.402Z" fill="white"/>
<path d="M129.616 128.139C129.457 128.657 129.357 157.843 129.477 168.94L129.596 180.395L130.254 180.455L130.892 180.515V154.218V127.9H130.294C129.955 127.9 129.656 128.02 129.616 128.139Z" fill="white"/>
<path d="M123.477 128.438C123.138 128.518 123.118 129.913 123.118 154.118C123.118 174.439 123.178 179.698 123.377 179.698C123.497 179.698 123.816 179.758 124.075 179.818L124.513 179.937L124.473 154.178C124.414 126.426 124.473 128.159 123.477 128.438Z" fill="white"/>
<path d="M36.6273 134.116C35.8299 134.574 34.614 135.829 34.614 136.188C34.614 136.308 34.4745 136.527 34.315 136.666C34.0957 136.845 34.016 137.304 34.016 138.3C34.016 139.953 34.7535 141.687 35.6705 142.085C35.9695 142.224 36.2087 142.404 36.2087 142.464C36.2087 142.762 37.8831 143.24 38.9196 143.24C39.7369 143.24 40.2551 143.101 40.9528 142.723C42.0093 142.125 43.1853 140.93 43.1853 140.431C43.1853 140.232 43.285 140.013 43.3847 139.953C43.7634 139.714 43.6039 137.324 43.1455 136.308C42.687 135.351 41.8897 134.495 41.4511 134.475C41.3116 134.475 41.192 134.395 41.192 134.315C41.192 133.997 39.8365 133.678 38.5807 133.698C37.6837 133.698 37.1057 133.817 36.6273 134.116Z" fill="white"/>
<path d="M215.509 133.877C215.449 133.977 215.25 134.076 215.09 134.076C214.692 134.076 212.818 135.929 212.818 136.327C212.818 136.507 212.738 136.706 212.619 136.766C212.32 136.945 212.379 139.515 212.698 140.272C213.117 141.268 214.233 142.344 215.35 142.842C216.107 143.181 216.585 143.26 217.582 143.201C218.34 143.141 218.898 143.021 218.957 142.882C218.997 142.742 219.157 142.643 219.336 142.643C219.835 142.643 221.589 140.83 221.589 140.312C221.589 140.073 221.688 139.854 221.788 139.854C221.908 139.854 221.987 139.256 221.987 138.479C221.987 137.702 221.908 137.025 221.788 136.965C221.688 136.905 221.589 136.646 221.589 136.407C221.569 135.909 219.815 134.076 219.336 134.076C219.157 134.076 218.957 133.977 218.898 133.877C218.838 133.757 218.06 133.678 217.203 133.678C216.346 133.678 215.569 133.757 215.509 133.877Z" fill="white"/>
<path d="M222.486 157.345C221.569 158.182 221.589 157.525 221.589 177.507C221.589 193.046 221.629 196.433 221.848 196.433C222.227 196.433 223.781 195.058 223.781 194.739C223.781 194.6 223.881 194.44 224.001 194.401C224.359 194.281 224.559 186.412 224.579 172.008V158.441L224.12 157.764C223.602 156.987 223.044 156.847 222.486 157.345Z" fill="white"/>
<path d="M205.323 158.222C204.964 158.8 204.625 195.138 204.924 200.317C205.084 202.907 205.104 203.007 205.622 203.007C206.081 203.007 206.599 202.31 206.978 201.214C207.296 200.317 207.356 159.178 207.037 159.178C206.938 159.178 206.838 159.039 206.838 158.859C206.838 158.162 205.662 157.664 205.323 158.222Z" fill="white"/>
<path d="M48.9261 159.736L48.4677 160.473L48.4079 180.814L48.3281 201.154L49.1853 201.891C50.3215 202.848 50.6205 202.768 50.7999 201.433C51.0191 199.979 50.8796 161.031 50.6603 160.274C50.4809 159.617 50.2417 159.318 49.7235 159.138C49.4843 159.039 49.265 159.198 48.9261 159.736Z" fill="white"/>
<path d="M32.5011 160.134C32.0825 160.652 32.0625 161.031 31.8233 167.346C31.5841 174.698 31.2851 180.794 31.0061 185.376C30.7669 189.201 30.7669 190.257 31.0061 193.046C31.2054 195.516 31.3449 196.194 31.7635 196.592C31.9031 196.732 32.0227 196.971 32.0227 197.11C32.0227 197.23 32.3017 197.509 32.6207 197.688C32.9595 197.887 33.2187 198.186 33.2187 198.345C33.2187 198.505 33.3183 198.624 33.418 198.624C33.5376 198.624 33.6173 198.525 33.6173 198.425C33.6173 198.305 33.7967 198.226 33.9961 198.226C34.315 198.226 34.3947 198.026 34.5143 196.971C34.5741 196.293 34.614 187.926 34.5741 178.383L34.5143 161.051L34.016 160.314C33.418 159.437 33.0791 159.397 32.5011 160.134Z" fill="white"/>
<path d="M90.9655 165.394C90.5071 166.29 90.4074 166.868 90.228 169.259C89.9489 173.184 89.9689 211.016 90.2479 212.41C90.5469 213.845 90.9057 214.363 91.6034 214.363C92.1217 214.363 92.1815 214.283 92.3808 213.307C92.62 212.191 93.0386 187.667 93.0187 174.817C93.0187 167.446 92.8991 166.251 92.2213 165.494C92.0021 165.274 91.8227 164.916 91.8227 164.717C91.8227 164.079 91.5037 164.338 90.9655 165.394Z" fill="white"/>
<path d="M162.945 164.896C162.606 164.975 162.586 165.693 162.586 176.51C162.586 183.981 162.506 188.085 162.387 188.165C162.108 188.324 162.128 206.673 162.407 209.502C162.586 211.494 162.646 211.713 163.144 212.111C163.443 212.37 163.762 212.57 163.842 212.57C164.061 212.57 164.699 211.932 164.958 211.434C165.118 211.115 165.177 204.84 165.177 188.284C165.177 167.067 165.157 165.533 164.838 165.155C164.5 164.776 163.782 164.677 162.945 164.896Z" fill="white"/>
<path d="M188.26 165.095C187.981 165.274 187.662 165.693 187.582 166.031C187.503 166.37 187.403 176.311 187.363 188.125C187.303 209.621 187.303 209.621 187.722 210.199C188.081 210.717 188.24 210.777 189.177 210.777C189.735 210.777 190.453 210.657 190.752 210.518L191.29 210.279V187.647C191.29 167.167 191.25 164.995 190.971 164.876C190.373 164.637 188.798 164.776 188.26 165.095Z" fill="white"/>
<path d="M65.5306 165.713C64.4742 165.872 64.514 165.533 64.514 177.088C64.514 184.141 64.4542 187.866 64.3147 187.866C64.0157 187.866 64.0556 208.844 64.3346 210.139C64.5539 211.076 64.6137 211.135 65.2914 211.255C66.4675 211.454 66.6868 211.394 67.3047 210.797L67.9027 210.239V188.285C67.9027 170.574 67.8429 166.271 67.6436 166.071C67.3645 165.792 66.308 165.613 65.5306 165.713Z" fill="white"/>
<path d="M131.55 194.779C130.812 194.879 130.434 195.257 130.613 195.716C130.713 195.994 131.331 196.034 135.357 196.074L139.962 196.134L139.942 196.632C139.922 196.911 139.762 198.525 139.563 200.218C139.105 204.242 138.965 208.147 139.244 209.561C139.364 210.179 139.503 211.115 139.563 211.653C139.643 212.191 139.762 212.789 139.882 212.988C139.982 213.187 140.061 213.626 140.061 213.964C140.061 214.323 140.141 214.542 140.261 214.462C140.38 214.403 140.46 213.904 140.46 213.367C140.46 212.829 140.54 212.351 140.619 212.291C140.839 212.171 141.138 207.848 141.138 205.198C141.138 202.549 140.839 198.226 140.619 198.106C140.54 198.046 140.46 197.568 140.46 197.01V196.034H149.131H157.802V195.457C157.802 194.919 157.742 194.879 156.765 194.759C155.649 194.64 132.626 194.64 131.55 194.779Z" fill="white"/>
<path d="M98.4007 195.437V196.034H112.055H125.709V195.437V194.839H112.055H98.4007V195.437Z" fill="white"/>
<path d="M104.739 197.13C104.68 197.21 103.324 197.349 101.749 197.449C100.195 197.548 98.3807 197.688 97.7628 197.747L96.6067 197.867V206.214C96.6067 210.816 96.6665 214.562 96.7661 214.562C96.8459 214.562 97.0452 214.263 97.2246 213.924C97.3841 213.586 97.703 213.207 97.9023 213.088C98.1017 212.968 98.4804 212.669 98.7395 212.43C99.1781 211.992 99.198 211.892 99.198 208.167C99.198 204.501 99.3973 202.569 99.8757 201.353C99.9953 201.055 100.175 200.816 100.294 200.816C100.494 200.816 101.072 201.652 101.59 202.708C101.969 203.465 102.288 203.804 102.646 203.804C103.244 203.804 103.563 205.019 103.683 207.888C103.823 211.673 104.002 213.366 104.201 213.366C104.301 213.366 104.381 213.506 104.381 213.665C104.381 213.825 104.46 213.964 104.56 213.964C104.66 213.964 104.779 214.143 104.839 214.363C104.999 214.98 105.477 214.841 106.055 213.964C106.553 213.187 106.573 213.107 106.573 209.98C106.573 206.633 106.852 205.637 107.052 208.326C107.43 213.645 107.57 214.223 108.547 214.442C108.826 214.482 109.324 214.602 109.623 214.681C109.942 214.761 110.52 214.701 110.959 214.562C112.035 214.203 112.095 213.805 111.935 208.685C111.856 206.274 111.776 202.867 111.776 201.094L111.756 197.887L111.258 197.668C110.42 197.289 108.666 197.369 107.869 197.827C106.992 198.325 106.832 198.325 106.673 197.847C106.613 197.648 106.354 197.429 106.115 197.369C105.876 197.309 105.497 197.21 105.278 197.13C105.058 197.07 104.819 197.07 104.739 197.13Z" fill="white"/>
<path d="M115.543 198.564C115.165 200.676 115.165 211.952 115.543 213.606C115.683 214.243 115.842 214.761 115.902 214.761C116.101 214.761 116.52 214.044 116.54 213.705C116.54 213.526 116.64 213.367 116.739 213.367C116.859 213.367 116.939 213.068 116.939 212.709C116.939 212.37 117.018 211.753 117.118 211.374C117.696 209.223 117.357 198.226 116.719 198.226C116.62 198.226 116.54 198.086 116.54 197.927C116.54 197.767 116.46 197.628 116.341 197.628C116.241 197.628 116.141 197.489 116.141 197.329C116.141 197.17 116.062 197.03 115.982 197.03C115.902 197.03 115.703 197.728 115.543 198.564Z" fill="white"/>
<path d="M145.085 197.469C144.287 199.122 144.267 210.697 145.065 212.211C145.164 212.41 145.244 212.709 145.244 212.868C145.244 213.187 145.423 213.247 145.762 213.008C146.121 212.789 146.261 211.215 146.38 205.995C146.48 201.254 146.221 197.628 145.802 197.628C145.722 197.628 145.643 197.489 145.643 197.329C145.643 196.891 145.344 196.971 145.085 197.469Z" fill="white"/>
<path d="M120.347 198.425C120.208 199.043 120.128 202.051 120.128 206.215C120.128 212.111 120.168 213.048 120.447 213.466L120.766 213.964H124.932C128.42 213.964 129.198 213.904 129.796 213.626C130.354 213.367 130.493 213.187 130.493 212.729C130.493 212.191 130.453 212.171 129.576 212.171C129.078 212.171 128.241 212.032 127.703 211.852C126.766 211.554 126.746 211.534 126.945 210.956C127.045 210.637 127.224 210.378 127.344 210.378C127.444 210.378 127.463 210.279 127.404 210.179C127.344 210.059 127.065 209.98 126.806 209.98C126.547 209.98 126.267 209.88 126.208 209.781C126.148 209.661 125.729 209.581 125.311 209.581C124.693 209.581 124.394 209.721 123.776 210.338C122.5 211.593 122.46 211.613 121.862 211.095C121.404 210.697 121.324 210.478 121.324 209.621C121.324 209.063 121.424 208.545 121.523 208.486C121.643 208.406 121.723 206.354 121.723 202.987C121.723 198.505 121.683 197.628 121.444 197.628C121.284 197.628 121.025 197.568 120.866 197.509C120.646 197.429 120.507 197.648 120.347 198.425Z" fill="white"/>
<path d="M124.553 197.668C124.394 197.827 124.314 198.584 124.314 199.74C124.314 200.756 124.234 201.652 124.115 201.712C123.995 201.792 123.915 202.808 123.915 204.103C123.915 205.398 123.995 206.414 124.115 206.493C124.234 206.553 124.314 207.051 124.314 207.609C124.314 208.565 124.334 208.585 124.932 208.585C125.929 208.585 126.048 208.286 126.188 205.577C126.248 204.222 126.367 202.051 126.427 200.776C126.547 198.465 126.547 198.445 126.048 197.947C125.49 197.389 124.932 197.289 124.553 197.668Z" fill="white"/>
<path d="M130.992 197.887C130.354 198.564 130.035 199.341 130.174 199.859C130.254 200.118 130.394 201.652 130.493 203.306C130.613 204.939 130.752 206.812 130.812 207.43L130.932 208.585H131.689H132.427L132.546 207.23C132.626 206.493 132.686 204.143 132.686 202.011C132.686 198.345 132.666 198.086 132.287 197.767C131.769 197.329 131.49 197.349 130.992 197.887Z" fill="white"/>
<path d="M147.397 205.119C147.457 213.406 147.457 213.367 148.493 213.367C149.091 213.367 149.111 213.247 149.43 208.187C149.55 206.374 149.729 204.86 149.849 204.84C149.948 204.8 150.028 204.521 150.028 204.202C150.028 203.884 150.168 203.605 150.347 203.525C150.805 203.346 150.825 203.366 150.825 203.983C150.825 204.78 151.104 204.9 151.443 204.242C151.583 203.943 151.922 203.366 152.161 202.967C152.42 202.549 152.619 202.091 152.619 201.911C152.619 201.752 152.719 201.612 152.819 201.612C152.938 201.612 153.018 201.433 153.018 201.214C153.018 200.995 153.118 200.816 153.217 200.816C153.337 200.816 153.417 200.636 153.417 200.417C153.417 199.68 154.074 200.138 154.553 201.214C155.131 202.569 155.211 202.947 155.211 204.501C155.211 205.438 155.29 206.195 155.39 206.195C155.47 206.195 155.569 206.872 155.589 207.709C155.609 208.545 155.709 209.402 155.809 209.601C155.928 209.801 156.008 210.378 156.008 210.916C156.008 211.693 156.108 211.992 156.566 212.47C157.104 213.088 157.802 213.187 157.802 212.649C157.802 212.49 157.902 212.37 158.001 212.37C158.121 212.37 158.201 209.741 158.201 204.9V197.429H152.779H147.337L147.397 205.119Z" fill="white"/>
<path d="M135.178 197.867C135.118 198.006 135.098 201.174 135.118 204.9L135.178 211.673H135.676H136.174V204.7V197.728L135.716 197.668C135.477 197.628 135.237 197.728 135.178 197.867Z" fill="white"/>
</svg>
