<svg width="23" height="23" viewBox="0 0 23 23" fill="none" xmlns="http://www.w3.org/2000/svg">
<path d="M9.38344 9.70298C9.44543 9.29317 9.58211 8.93299 9.75596 8.62249C9.92982 8.31199 10.1782 8.05116 10.4888 7.85244C10.7868 7.66614 11.1595 7.5792 11.6191 7.56678C11.9047 7.5792 12.1654 7.62888 12.4015 7.72824C12.6498 7.84002 12.8734 7.98907 13.0473 8.17536C13.2212 8.36166 13.3578 8.58522 13.4696 8.83363C13.5814 9.08203 13.6311 9.35528 13.6435 9.62852H15.8667C15.8419 9.04477 15.7301 8.51071 15.519 8.02632C15.3077 7.54193 15.0221 7.11965 14.6495 6.77189C14.2769 6.42413 13.8297 6.15089 13.3082 5.95216C12.7865 5.75344 12.2152 5.6665 11.5818 5.6665C10.7744 5.6665 10.0665 5.80313 9.47036 6.08878C8.87416 6.37445 8.37735 6.74705 7.97992 7.23143C7.58247 7.71582 7.28439 8.27472 7.09808 8.92057C6.91178 9.56642 6.8 10.2371 6.8 10.9575V11.2928C6.8 12.0132 6.89936 12.6839 7.08566 13.3297C7.27197 13.9755 7.57005 14.5345 7.9675 15.0064C8.36493 15.4783 8.86174 15.8634 9.4579 16.1367C10.054 16.4099 10.762 16.559 11.5693 16.559C12.1531 16.559 12.6996 16.4596 13.2088 16.2733C13.718 16.0869 14.1651 15.8262 14.5502 15.4908C14.9352 15.1555 15.2457 14.7705 15.4692 14.3234C15.6928 13.8761 15.8294 13.4042 15.8419 12.895H13.6186C13.6062 13.1558 13.5441 13.3918 13.4324 13.6154C13.3205 13.839 13.1715 14.0252 12.9852 14.1867C12.799 14.3482 12.5877 14.4724 12.3394 14.5593C12.1034 14.6462 11.855 14.6711 11.5941 14.6835C11.147 14.6711 10.7744 14.5841 10.4888 14.3978C10.1782 14.1991 9.92982 13.9383 9.75596 13.6278C9.58211 13.3173 9.44543 12.9447 9.38344 12.5348C9.32133 12.1249 9.28404 11.7026 9.28404 11.2928V10.9575C9.28404 10.5227 9.32133 10.1129 9.38344 9.70298Z" fill="white"/>
<path fill-rule="evenodd" clip-rule="evenodd" d="M22.6667 0H0V22.6667H22.6667V0ZM20.4 2.26667H2.26667V20.4H20.4V2.26667Z" fill="white"/>
</svg>
