<svg width="24" height="24" viewBox="0 0 24 24" fill="none" xmlns="http://www.w3.org/2000/svg">
<path d="M11.9996 2.75C10.5406 2.75093 9.1148 3.18536 7.90314 3.99813C6.68976 4.81223 5.74468 5.96748 5.18714 7.31812C4.62878 8.67015 4.48231 10.157 4.76614 11.592C5.04946 13.0262 5.75077 14.3445 6.78177 15.381C8.11777 16.7212 11.2619 18.66 11.448 20.6966C11.4759 21.0009 11.6964 21.25 11.9996 21.25C12.3029 21.25 12.5241 21.0009 12.5513 20.6966C12.7373 18.66 15.879 16.7245 17.2143 15.3851C18.2464 14.349 18.9489 13.0306 19.2331 11.596C19.5179 10.1606 19.372 8.6731 18.8139 7.32037C18.2566 5.96907 17.3114 4.81317 16.0976 3.99863C14.8856 3.1854 13.4592 2.75078 11.9996 2.75Z" stroke="white" stroke-linecap="round" stroke-linejoin="round"/>
<path d="M11.9996 12.7C11.3101 12.6999 10.6488 12.426 10.1611 11.9385C9.7358 11.5132 9.47109 10.9535 9.41212 10.3549C9.35316 9.75625 9.50358 9.1557 9.83776 8.65555C10.1719 8.15539 10.6692 7.78659 11.2448 7.61197C11.8204 7.43735 12.4388 7.46771 12.9945 7.6979C13.5503 7.92808 14.009 8.34384 14.2926 8.87433C14.5761 9.40483 14.667 10.0172 14.5497 10.6072C14.4323 11.1972 14.114 11.7282 13.6491 12.1098C13.1841 12.4914 12.6012 12.7 11.9996 12.7Z" stroke="white" stroke-linecap="round" stroke-linejoin="round"/>
</svg>
